<?xml version="1.0" encoding="utf-8" ?><svg xmlns="http://www.w3.org/2000/svg" xmlns:xlink="http://www.w3.org/1999/xlink" width="500" height="500" viewBox="0 0 500 500"><path fill="#0C0A0B" d="M141.383 92.8786C138.541 90.2664 135.682 87.9741 134.797 84.0032C134.083 80.7942 135.014 77.0406 136.796 74.3048C139.207 70.6338 142.984 68.0771 147.287 67.202C155.59 65.5778 164.22 68.7173 165.82 77.9092C166.455 81.5545 165.169 84.968 163.1 87.916C164.034 91.4997 165.179 96.2729 166.616 99.555C168.335 100.146 170.125 100.421 171.935 101.09C180.584 104.287 182.506 112.506 179.229 120.611C185.968 120.833 191.978 120.507 198.5 120.575L246.555 121.093L304.509 121.305C315.079 121.358 325.433 121.571 336.059 121.466C335.532 113.163 340.647 110.037 346.913 106.578C347.307 102.242 347.781 97.9142 348.335 93.5958C346.896 91.1815 345.203 88.9863 344.995 85.9737C343.479 63.934 380.517 65.8267 375.447 88.2194C374.913 90.5761 371.385 93.1107 370.757 95.8566C369.881 99.6873 369.886 103.722 369.759 107.686C376.285 110.272 378.628 115.288 378.501 122.018C382.758 122.055 392.788 121.73 396.421 122.341C397.119 126.257 395.986 130.706 396.005 134.809C396.17 141.035 395.276 147.491 395.333 153.677C395.438 165.17 394.517 176.457 394.047 187.891L391.527 247.45C391.049 259.048 390.776 269.86 390.14 281.565C389.854 286.468 389.655 291.376 389.543 296.286C389.448 300.388 389.494 304.582 388.988 308.651C390.801 311.548 395.18 315.902 397.598 319.452C401.401 324.99 404.57 330.937 407.045 337.181C408.562 341.101 409.713 345.164 411.248 349.103C412.724 350.208 414.957 350.599 417.212 351.312C423.077 353.165 428.664 358.246 426.164 364.946C425.852 365.782 423.42 365.9 422.456 365.998L420.27 364.717C421.759 367.783 425.021 375.341 420.135 377.655C418.138 378.601 415.077 374.131 415.01 372.501C414.992 372.066 414.704 371.121 414.582 370.577C414.192 372.947 412.407 384.939 407.641 378.584C405.252 375.397 405.863 367.336 406.811 363.43C405.7 365.255 404.448 366.882 402.978 368.436C401.973 369.498 400.347 371.083 398.751 370.959C397.776 370.883 397.106 370.073 396.603 369.313C395.731 367.995 395.821 366.757 396.159 365.262C397.614 358.827 404.678 354.703 405.225 351.675C406.245 346.027 396.211 327.136 392.869 322.135C391.59 320.221 389.823 318.635 388.493 316.714C388.98 328.773 384.047 342.05 375.943 350.989C356.9 371.992 326.803 378.461 299.894 382.205C295.265 382.85 290.669 383.423 286.043 383.748C285.771 394.525 285.968 408.542 286.482 419.403C292.1 418.25 296.835 416.197 301.733 420.779C305.725 420.812 327.447 423.719 328.263 427.386C326.416 432.026 297.029 433.559 291.644 433.867C267.425 435.443 243.133 435.586 218.897 434.294C217.653 434.23 216.061 434.112 214.842 434.12C208.526 434.16 182.371 432.048 179.378 427.859C179.121 423.322 202.177 421.888 205.832 421.166C209.522 415.71 215.05 416.491 220.73 417.264C221.398 417.355 221.643 417.796 222.426 417.864C223.133 416.609 222.095 389.216 221.851 385.936C219.851 385.98 217.866 385.931 215.821 385.921C183.586 385.768 151.31 384.664 119.251 381.23C118.661 381.167 117.144 380.345 116.561 380.036C116.016 375.922 116.366 372.071 116.235 368.016C116.066 362.8 115.971 357.791 115.963 352.57L115.971 303.614C113.623 302.587 110.896 301.46 108.665 300.251C95.0382 292.869 86.9241 281.014 82.4654 266.544C81.8391 266.496 80.7141 266.35 80.1219 266.324C77.2536 266.197 73.4901 261.956 71.8365 259.517C68.9328 255.057 62.243 244.986 63.4283 239.455C64.8027 233.042 70.9481 238.693 72.8271 241.655C74.8201 244.797 76.2859 246.046 77.8915 249.563C77.8583 242.291 77.3104 241.113 79.5426 233.847C80.6059 232.891 81.51 231.802 83.0501 231.878C85.5149 231.934 86.6118 235.044 86.9087 237.111C87.5951 241.892 87.2817 247.173 87.0184 251.979C89.2083 250.585 94.1499 243.638 96.8061 245.618C102.574 249.917 94.6845 257.965 91.4671 261.245C89.4904 263.261 87.2926 264.332 88.6824 267.512C94.3659 281.808 102.051 290.729 115.799 297.422C115.809 286.289 116.054 275.093 116.25 263.96C116.397 255.612 116.194 247.233 116.41 238.884L118.175 189.107L119.932 140.486C120.163 135.054 120.275 129.183 120.332 123.814C120.399 117.532 135.306 121.83 137.604 119.942C137.615 114.024 139.027 111.656 143.272 107.477C145.179 105.6 143.177 100.739 142.539 98.4115C141.97 96.3377 141.649 95.0419 141.383 92.8786ZM228.068 419.396C234.064 419.644 239.759 419.431 245.748 419.267C257.581 418.945 269.572 419.597 281.379 419.351C281.784 415.887 281.264 411.828 281.315 408.338C281.433 400.332 280.507 392.051 280.673 384.1C267.932 385.96 255.408 385.343 242.613 385.736C237.507 385.893 232.549 386.078 227.436 385.938C227.225 389.662 227.453 394.693 227.529 398.49C227.635 405.46 227.815 412.43 228.068 419.396ZM166.4 142.234C166.995 141.789 167.729 141.421 167.807 140.706C168.06 138.398 166.863 134.639 165.673 132.857C165.115 132.684 165.155 132.68 164.577 132.75L162.879 133.368C162.393 134.422 162.933 140.215 163.302 141.577C164.285 142.395 165.153 142.314 166.4 142.234ZM355.882 146.471C357.589 144.585 357.67 139.234 356.525 137.184C355.653 136.85 354.734 136.96 353.789 136.984C352.887 139.781 350.159 147.394 355.882 146.471Z"/><path fill="#EDECED" d="M228.068 419.396C234.064 419.644 239.759 419.431 245.748 419.267C257.581 418.945 269.572 419.597 281.379 419.351C281.476 421.461 281.512 423.868 282.005 425.904C286.33 429.353 291.283 428.909 296.566 428.697C299.362 428.585 302.881 426.807 302.496 423.388C302.416 422.681 301.964 421.485 301.733 420.779C305.725 420.812 327.447 423.719 328.263 427.386C326.416 432.026 297.029 433.559 291.644 433.867C267.425 435.443 243.133 435.586 218.897 434.294C217.653 434.23 216.061 434.112 214.842 434.12C208.526 434.16 182.371 432.048 179.378 427.859C179.121 423.322 202.177 421.888 205.832 421.166C206.004 421.975 206.034 423.415 206.083 424.292C206.297 424.623 206.532 424.941 206.784 425.245C210.45 429.581 222.758 429.008 226.798 425.552C228.467 424.124 228.029 421.373 228.068 419.396Z"/><path fill="#78C6F7" d="M123.766 123.591C128.581 123.568 133.377 123.712 138.196 123.577C142.398 130.923 148.968 133.692 157.271 133.791C159.261 134.231 157.649 142.382 159.973 144.722C161.339 146.098 161.676 146.744 164.292 147.131C166.991 147.53 168.093 146.763 170.171 145.364C176.161 141.332 169.563 133.433 169.963 130.302L170.502 129.92C173.091 128.18 175.457 126.35 177.371 123.843C181.248 124.255 190.629 124.001 194.848 124.002L227.306 124.119L336.523 124.518C339.073 130.453 343.14 133.135 348.753 135.716L349.328 135.884C349.512 136.58 349.266 137.546 349.146 138.275C348.091 144.697 346.954 148.358 353.991 151.193C366.726 149.977 358.22 137.148 362.937 136.25C369.253 134.864 375.775 131.041 378.159 124.725C383.252 124.814 388.345 124.844 393.438 124.815C393.08 127.971 393.031 136.725 392.872 140.371L391.417 183.081L389.402 233.191C388.955 242.457 387.967 252.371 387.893 261.682C387.789 274.79 386.981 287.265 386.207 300.315C385.04 320.004 387.238 336.772 361.715 336.927C347.815 337.011 343.661 333.101 331.951 327.65C329.672 330.606 328.125 334.238 326.056 337.363C311.026 360.064 286.01 376.275 259.272 381.204C255.282 381.94 251.548 382.099 247.505 382.343C238.701 382.822 229.885 383.039 221.069 382.993C200.647 383.011 180.159 382.016 159.735 381.557C154.035 381.429 148.095 380.41 142.45 380.265C134.619 380.063 127.648 379.106 119.95 378.151C118.302 357.884 118.675 335.386 118.643 314.939C118.814 276.768 119.483 238.601 120.648 200.448L122.391 150.088C122.776 141.099 123.615 132.738 123.766 123.591Z"/><path fill="#64AADD" d="M348.753 135.716L349.328 135.884C349.512 136.58 349.266 137.546 349.146 138.275C348.091 144.697 346.954 148.358 353.991 151.193C366.726 149.977 358.22 137.148 362.937 136.25C365.095 138.375 366.194 139.215 366.715 142.489C369.372 159.172 340.319 158.813 344.613 142.252C345.491 138.864 346.644 138.196 348.753 135.716Z"/><path fill="#64AADD" d="M170.502 129.92C171.005 130.322 171.17 130.401 171.715 130.64C173.991 131.638 175.854 133.846 176.594 136.219C178.596 142.792 175.671 148.085 169.168 150.099C163.632 151.813 156.72 150.807 154.681 144.562C153.479 140.879 155.141 137.174 157.252 134.126L157.271 133.791C159.261 134.231 157.649 142.382 159.973 144.722C161.339 146.098 161.676 146.744 164.292 147.131C166.991 147.53 168.093 146.763 170.171 145.364C176.161 141.332 169.563 133.433 169.963 130.302L170.502 129.92Z"/><path fill="#F55F49" d="M193.498 253.566C199.06 253.523 204.71 255.471 205.765 261.717C206.137 263.818 205.608 265.978 204.308 267.67C202.212 270.424 198.903 271.842 195.557 272.296C192.106 272.286 189.608 272.083 186.579 270.174C180.339 266.24 181.467 258.368 187.767 255.204C189.847 254.159 191.193 253.92 193.498 253.566Z"/><path fill="#F55F49" d="M304.953 256.358C319.099 255.7 322.138 272.135 305.942 275.107C302.649 275.136 298.9 274.399 296.369 272.164C294.7 270.705 293.693 268.631 293.578 266.417C293.21 260.109 299.439 256.778 304.953 256.358Z"/><path fill="#0C0A0B" d="M288.779 227.567C298.216 226.832 301.954 232.972 303.32 241.413C303.675 243.605 302.703 248.499 299.777 248.445C296.548 248.386 297.718 243.061 296.935 241.028C296.154 238.664 295.82 237.644 294.082 235.76L293.838 235.5C293.193 235.121 292.486 234.732 291.745 234.595C284.3 233.22 285.398 244.611 282.272 246.419C281.559 246.831 280.496 246.931 279.738 246.591C279.198 246.35 278.836 245.901 278.606 245.373C277.512 242.86 278.623 238.873 279.672 236.462C281.514 232.23 284.473 229.236 288.779 227.567Z"/><path fill="#0C0A0B" d="M211.903 223.586C215.288 223.417 217.042 224.129 219.786 226.169C223.425 228.874 227.524 239.091 224.013 242.768C223.415 243.385 222.59 243.73 221.731 243.723C221.539 243.721 220.445 243.599 220.429 243.568C218.255 239.297 219.552 235.237 215.545 231.428L215.299 231.199C211.433 229.252 208.554 230.895 207.019 234.642C206.238 236.548 206.246 238.832 205.294 240.569C204.05 242.839 200.153 241.705 200.095 239.105C199.816 231.876 204.385 224.651 211.903 223.586Z"/><path fill="#0C0A0B" d="M233.892 258.779C238.451 258.382 237.164 261.262 239.562 264.48C245.086 271.892 255.402 272.588 261.089 264.885C262.593 262.848 263.772 258.429 266.724 259.019C268.892 260.591 268.709 262.442 267.736 264.622C264.375 271.22 258.528 275.783 250.905 276.042C243.253 276.302 233.057 269.924 232.501 261.726C232.42 260.534 233.094 259.574 233.892 258.779Z"/><path fill="#0C0A0B" d="M210.736 193.049C211.157 192.999 211.578 192.963 212.001 192.942C216.744 192.71 228.513 195.99 220.846 201.606C214.83 198.009 211.079 197.964 204.916 201.299C202.783 202.979 200.166 207.667 198.678 208.004C194.49 208.953 196.184 202.606 197.333 200.915C200.819 195.789 205.057 194.287 210.736 193.049Z"/><path fill="#0C0A0B" d="M291.774 196.81C298.619 196.03 306.208 200.205 309.518 206.157C310.917 208.672 308.669 210.082 306.699 210.813C305.371 209.668 303.445 207.59 302.082 206.269C295.444 201.09 291.849 201.392 284.833 205.79C277.759 200.766 287.86 197.891 291.774 196.81Z"/><path fill="#64AADD" d="M333.03 332.124C333.994 332.44 336.9 333.922 337.902 334.424C341.318 336.136 343.963 337.294 347.644 338.363C357.464 341.217 365.567 340.908 375.281 337.771C377.62 337.015 380.197 336.192 382.351 335C368.855 361.483 347.67 368.835 320.94 375.639C304.633 378.856 288.125 380.957 271.532 381.926C276.283 379.778 281.377 378.238 286.05 375.901C302.41 367.719 317.339 356.116 327.632 340.844C329.542 338.01 331.275 335.063 333.03 332.124Z"/><path fill="#FA3A2B" d="M149.494 69.8352C165.54 69.0372 167.816 87.7004 151.67 90.6601C148.668 90.8129 146.452 90.9621 143.63 89.602C138.456 87.1075 136.709 81.1786 139.717 76.2744C141.929 72.6666 145.49 70.7768 149.494 69.8352Z"/><path fill="#FA3A2B" d="M357.703 73.7265C367.194 72.0329 376.723 81.1535 370.279 90.1549C366.34 95.6576 355.646 95.5894 350.927 91.0018C345.855 86.0023 347.802 77.865 354.493 74.8531C355.566 74.4149 356.605 74.0878 357.703 73.7265Z"/><path fill="#F55F49" d="M354.493 74.8531C355.566 74.4149 356.605 74.0878 357.703 73.7265C359.706 73.8178 363.799 75.0581 365.002 76.6393C368.959 81.839 362.26 86.7453 357.191 85.5871C351.179 84.7282 350.234 79.09 355.136 75.8398C355.95 75.3 357.88 74.7278 358.955 74.6301L358.712 74.1921C357.708 74.0843 355.79 74.9374 354.818 75.3605L354.527 75.1485L354.493 74.8531Z"/><path fill="#FA3A2B" d="M160.176 90.9868C160.82 91.6529 165.741 110.318 166.171 112.521C163.892 119.233 158.986 121.453 152.703 118.031C150.337 115.891 149.274 110.33 148.474 107.282C147.342 102.974 146.073 98.5195 145.217 94.1662C151.068 94.6969 155.021 94.3684 160.176 90.9868Z"/><path fill="#FA3A2B" d="M351.661 96.0351C358.413 98.3457 360.42 98.5416 367.166 96.6306C366.617 102.063 366.607 115.635 364.055 119.869C363.568 120.362 363.077 120.874 362.53 121.301C360.758 122.682 358.248 122.876 356.108 122.543C354.202 122.246 352.239 121.476 351.11 119.829C348.993 116.741 350.98 100.218 351.661 96.0351Z"/><path fill="#FA3A2B" d="M167.931 103.421C173.864 105.657 178.362 109.239 176.773 116.282C173.553 130.551 150.544 135.506 142.301 122.974C139.691 117.627 142.054 114.072 145.281 110.027C146.342 114.051 147.043 118.571 150.658 121.109C158.428 126.566 171.272 120.502 169.605 110.414C169.224 108.105 168.39 105.75 167.931 103.421Z"/><path fill="#FA3A2B" d="M346.087 111.028C346.483 111.201 346.405 111.665 346.382 112.082C346.262 114.323 345.985 116.482 346.542 118.693C348.512 126.522 359.665 128.532 365.413 123.74C369.054 120.706 369.291 115.744 369.594 111.364C374.108 114.522 376.045 118.179 374.428 123.639C369.452 135.675 348.945 136.447 341.85 126.242C337.53 120.03 340.371 114.663 346.087 111.028Z"/></svg>