<?xml version="1.0" encoding="utf-8" ?><svg xmlns="http://www.w3.org/2000/svg" xmlns:xlink="http://www.w3.org/1999/xlink" width="1267" height="711" viewBox="0 0 1267 711"><path fill="#72C1F3" d="M0 0L1267 0L1267 711L0 711L0 0Z"/><path fill="#D8674E" d="M842.653 419.171C870.365 414.795 907.061 431.603 909.17 462.492C910.357 479.875 898.509 494.608 883.738 502.238C875.316 506.588 863.865 511.364 854.423 511.96C836.281 511.765 818.279 508.102 803.44 497.087C785.771 483.973 778.702 459.876 793.477 441.63C805.575 426.69 824.281 421.306 842.653 419.171Z"/><path fill="#F5CA9B" d="M875.163 437.261C884.377 439.017 884.434 442.779 880.721 450.671C874.662 463.545 866.734 475.62 858.171 486.962C833.15 481.64 868.549 444.934 875.163 437.261Z"/><path fill="#F5CA9B" d="M834.743 439.961C843.413 443.393 844.908 447.245 840.761 455.985C835.118 467.878 826.782 478.361 818.766 488.735C816.336 489.242 815.47 489.471 813.303 488.391C805.395 480.634 829.84 447.208 834.743 439.961Z"/><path fill="#D8674E" d="M383.904 435.279C402.186 433.836 421.557 438.315 433.843 452.727C441.421 461.617 444.307 470.078 447.858 480.919C441.469 510.324 422.817 525.104 393.076 528.278C375.226 528.644 354.794 524.849 341.087 512.584C332.664 504.921 327.617 494.234 327.049 482.86C325.439 450.786 356.642 436.424 383.904 435.279Z"/><path fill="#F5CA9B" d="M375.8 456.606C386.996 460.764 382.316 470.991 377.931 478.853C372.391 488.787 364.691 497.961 357.109 506.395C354.702 505.941 350.113 505.287 350.37 502.292C351.551 488.523 368.628 466.827 375.8 456.606Z"/><path fill="#F5CA9B" d="M414.852 455.259C426.171 458.203 421.397 465.844 417.614 473.799C412.827 483.862 405.587 493.287 398.729 502.054C392.188 500.73 389.788 497.366 392.304 490.836C397.257 477.987 406.668 466.257 414.852 455.259Z"/><path fill="#050505" d="M780.867 283.461C800.413 281.902 818.826 288.52 826.92 307.766C840.362 339.727 838.165 390.292 801.838 406.189C790.601 408.382 775.351 401.274 767.614 393.302C739.499 364.331 740.385 301.455 780.867 283.461Z"/><path fill="#050505" d="M434.347 297.076C455.032 297.489 468.679 306.833 476.753 325.737C490.028 356.818 482.855 406.103 448.727 420.831C422.931 420.42 408.263 405.927 401.69 381.876C395.905 360.711 397.674 334.834 408.086 315.29C413.677 304.797 423.371 300.073 434.347 297.076Z"/><path fill="#050505" d="M425.507 222.364C444.042 219.271 485.223 230.894 495.03 250.151C496.378 252.798 495.817 257.809 494.394 260.537C484.84 278.843 464.573 257.892 453.172 252.704C439.228 246.129 425.381 248.794 411.672 253.536C407.679 255.504 401.008 259.188 398.048 262.239C390.379 270.143 381.815 287.202 370.14 289.274C367.155 289.81 364.081 289.114 361.617 287.346C352.351 280.811 359.887 264.025 365.145 257.018C380.722 236.258 400.237 226.362 425.507 222.364Z"/><path fill="#050505" d="M786.646 221.758C820.098 219.538 857.018 233.126 870.037 267.848C872.032 273.168 870.823 286.132 863.357 286.758C845.591 288.249 842.274 266.914 828.214 258.067C804.219 244.402 787.808 243.841 764.632 259.215C757.481 263.959 750.79 267.222 742.157 267.932C738.869 266.069 738.089 265.522 735.369 262.907C732.997 255.313 733.319 248.861 738.777 242.727C748.958 231.287 772.108 223.09 786.646 221.758Z"/><path fill="#050505" d="M662.496 419.493C663.306 419.546 664.113 419.623 664.918 419.724C669.19 420.232 675.366 422.039 677.634 425.817C687.832 442.798 663.848 471.936 651.44 480.726C638.261 490.141 621.855 493.868 605.904 491.07C584.787 487.349 569.459 474.105 557.519 457.024C550.606 445.549 545.534 429.416 558.63 420.451C581.277 426.764 574.812 448.887 590.152 460.622C602.401 469.992 625.686 468.346 638.482 460.551C655.702 450.06 651.626 433.652 662.496 419.493Z"/></svg>