<?xml version="1.0" encoding="utf-8" ?><svg xmlns="http://www.w3.org/2000/svg" xmlns:xlink="http://www.w3.org/1999/xlink" width="612" height="408" viewBox="0 0 612 408"><path fill="#81C4F3" d="M216.419 90.1737C215.669 87.097 214.84 81.4717 213.039 79.1096C212.226 77.8832 209.519 75.9333 209.066 74.6339C204.955 62.8229 215.179 54.9842 226.282 58.6597C229.76 59.811 233.561 64.8664 232.632 68.3436C230.741 75.416 231.327 77.4842 234.246 84.0842C240.439 85.8102 246.661 90.3449 245.547 97.5901C245.223 99.697 244.516 100.926 243.576 102.811C252.276 103.42 265.898 103.132 275.098 103.243L344.137 103.98C347.643 104.032 367.328 103.92 369.344 104.468C370.241 105.324 370.041 105.405 370.427 106.763C371.914 110.077 374.635 112.681 378.01 114.021C381.86 115.509 386.147 115.382 389.903 113.669C393.202 112.146 395.265 110.069 397.121 107.026C397.504 105.551 397.244 105.658 398.21 104.737C399.734 104.229 416.252 104.01 418.294 104.97C419.568 106.529 418.104 125.945 417.96 129.001L416.127 168.785C415.567 181.396 415.743 194.757 415.168 207.453L413.502 239.412C413.295 243.836 412.607 250.967 413.02 255.213C413.664 261.821 417.613 269.524 419.56 276.242C422.401 286.041 422.532 292.942 423.375 302.866C427.246 305.513 429.422 307.858 430.265 312.624C430.666 314.897 431.002 319.957 429.428 321.706C424.909 326.724 423.01 319.06 422.569 316.399C422.549 317.985 422.802 328.067 416.89 323.916C415.823 323.167 415.981 315.294 415.963 313.225C414.631 315.252 412.702 318.284 409.891 317.208C409.185 316.424 408.952 315.726 409.022 314.662C409.379 309.274 414.085 305.845 418.065 303.129C418.706 289.938 416.37 280.025 411.438 267.654C405.095 284.877 396.297 292.424 379.677 300.274C368.467 305.568 357.377 307.692 345.221 309.4C340.595 310.05 338.361 310.911 333.209 311.034C333.103 318.963 333.045 332.501 333.481 340.29C338.309 339.596 342.698 338.694 346.458 342.484C350.411 342.797 354.498 343.264 358.396 343.966C360.503 344.346 365.198 344.725 365.559 347.22C363.621 350.816 348.546 351.474 344.352 351.822C322.249 353.655 300.025 354.276 277.89 352.592C272.179 352.157 247.8 351.218 245.19 346.715C245.865 343.344 258.876 343.224 261.933 342.568C262.666 342.411 264.188 342.427 264.958 342.472L265.305 342.495C268.739 338.834 273.219 339.536 277.705 340.157C278.295 333.126 277.819 320.33 277.822 312.804C275.185 312.568 272.541 312.506 269.894 312.481C248.482 312.277 226.768 312.161 205.516 309.406C202.442 309.008 194.555 309.119 192.449 307.537C191.797 305.06 192.013 295.496 192.058 292.566L192.842 260.579C193.366 229.704 193.382 198.806 194.292 167.933C194.583 158.036 195.536 147.771 195.917 137.798L196.583 118.175C196.704 114.65 196.77 106.283 197.741 103.293C199.349 102.202 208.425 102.56 211.038 102.499C210.649 96.573 212.035 94.0018 216.419 90.1737ZM211.038 102.499C208.425 102.56 199.349 102.202 197.741 103.293C196.77 106.283 196.704 114.65 196.583 118.175L195.917 137.798C195.536 147.771 194.583 158.036 194.292 167.933C193.382 198.806 193.366 229.704 192.842 260.579L192.058 292.566C192.013 295.496 191.797 305.06 192.449 307.537C194.555 309.119 202.442 309.008 205.516 309.406C226.768 312.161 248.482 312.277 269.894 312.481C272.541 312.506 275.185 312.568 277.822 312.804C277.819 320.33 278.295 333.126 277.705 340.157C273.219 339.536 268.739 338.834 265.305 342.495L264.958 342.472C264.188 342.427 262.666 342.411 261.933 342.568C258.876 343.224 245.865 343.344 245.19 346.715C247.8 351.218 272.179 352.157 277.89 352.592C300.025 354.276 322.249 353.655 344.352 351.822C348.546 351.474 363.621 350.816 365.559 347.22C365.198 344.725 360.503 344.346 358.396 343.966C354.498 343.264 350.411 342.797 346.458 342.484C342.698 338.694 338.309 339.596 333.481 340.29C333.045 332.501 333.103 318.963 333.209 311.034C338.361 310.911 340.595 310.05 345.221 309.4C357.377 307.692 368.467 305.568 379.677 300.274C396.297 292.424 405.095 284.877 411.438 267.654C416.37 280.025 418.706 289.938 418.065 303.129C414.085 305.845 409.379 309.274 409.022 314.662C408.952 315.726 409.185 316.424 409.891 317.208C412.702 318.284 414.631 315.252 415.963 313.225C415.981 315.294 415.823 323.167 416.89 323.916C422.802 328.067 422.549 317.985 422.569 316.399C423.01 319.06 424.909 326.724 429.428 321.706C431.002 319.957 430.666 314.897 430.265 312.624C429.422 307.858 427.246 305.513 423.375 302.866C422.532 292.942 422.401 286.041 419.56 276.242C417.613 269.524 413.664 261.821 413.02 255.213C412.607 250.967 413.295 243.836 413.502 239.412L415.168 207.453C415.743 194.757 415.567 181.396 416.127 168.785L417.96 129.001C418.104 125.945 419.568 106.529 418.294 104.97C416.252 104.01 399.734 104.229 398.21 104.737C397.244 105.658 397.504 105.551 397.121 107.026C403.097 106.9 410.397 106.857 416.35 107.166C415.622 137.504 413.322 167.794 413.088 198.181C413.026 206.284 412.182 214.909 411.743 223.045C411.344 230.655 411.054 238.27 410.873 245.888C410.769 249.883 410.816 254.531 410.396 258.406C410.083 261.289 406.944 267.54 404.702 269.39C393.357 278.749 378.357 270.737 368.506 264.316L368.255 264.626C364.951 268.776 362.106 274.346 358.766 278.812C349.434 291.292 337.982 301.556 322.846 306.244C308.184 310.989 293.159 309.55 277.979 309.733C264.533 309.896 251.032 309.771 237.586 309.573C223.601 309.106 208.91 307.44 194.834 306.3C194.302 287.551 195.067 267.1 195.349 248.166C195.602 224.091 196.046 200.019 196.681 175.951C197.445 152.481 198.839 128.695 199.786 105.227C203.779 105.219 207.772 105.267 211.764 105.369C215.463 110.963 218.844 111.395 224.992 112.727L227.533 112.46C228.571 115.092 229.212 121.356 231.333 122.177C241.233 126.007 237.428 114.087 236.736 111.219L236.518 110.293C236.776 108.985 240.506 106.464 241.732 105.529C247.004 105.199 255.7 105.644 261.156 105.732C270.961 105.842 280.767 105.881 290.572 105.847C308.833 105.847 327.093 106.009 345.35 106.334C352.537 106.448 363.577 106.205 370.427 106.763C370.041 105.405 370.241 105.324 369.344 104.468C367.328 103.92 347.643 104.032 344.137 103.98L275.098 103.243C265.898 103.132 252.276 103.42 243.576 102.811C244.516 100.926 245.223 99.697 245.547 97.5901C246.661 90.3449 240.439 85.8102 234.246 84.0842C231.327 77.4842 230.741 75.416 232.632 68.3436C233.561 64.8664 229.76 59.811 226.282 58.6597C215.179 54.9842 204.955 62.8229 209.066 74.6339C209.519 75.9333 212.226 77.8832 213.039 79.1096C214.84 81.4717 215.669 87.097 216.419 90.1737C212.035 94.0018 210.649 96.573 211.038 102.499Z"/><path fill="#141211" d="M216.419 90.1737C215.669 87.097 214.84 81.4717 213.039 79.1096C212.226 77.8832 209.519 75.9333 209.066 74.6339C204.955 62.8229 215.179 54.9842 226.282 58.6597C229.76 59.811 233.561 64.8664 232.632 68.3436C230.741 75.416 231.327 77.4842 234.246 84.0842C240.439 85.8102 246.661 90.3449 245.547 97.5901C245.223 99.697 244.516 100.926 243.576 102.811C252.276 103.42 265.898 103.132 275.098 103.243L344.137 103.98C347.643 104.032 367.328 103.92 369.344 104.468C370.241 105.324 370.041 105.405 370.427 106.763C363.577 106.205 352.537 106.448 345.35 106.334C327.093 106.009 308.833 105.847 290.572 105.847C280.767 105.881 270.961 105.842 261.156 105.732C255.7 105.644 247.004 105.199 241.732 105.529C240.506 106.464 236.776 108.985 236.518 110.293L236.736 111.219C237.428 114.087 241.233 126.007 231.333 122.177C229.212 121.356 228.571 115.092 227.533 112.46L224.992 112.727C218.844 111.395 215.463 110.963 211.764 105.369C207.772 105.267 203.779 105.219 199.786 105.227C198.839 128.695 197.445 152.481 196.681 175.951C196.046 200.019 195.602 224.091 195.349 248.166C195.067 267.1 194.302 287.551 194.834 306.3C208.91 307.44 223.601 309.106 237.586 309.573C251.032 309.771 264.533 309.896 277.979 309.733C293.159 309.55 308.184 310.989 322.846 306.244C337.982 301.556 349.434 291.292 358.766 278.812C362.106 274.346 364.951 268.776 368.255 264.626L368.506 264.316C378.357 270.737 393.357 278.749 404.702 269.39C406.944 267.54 410.083 261.289 410.396 258.406C410.816 254.531 410.769 249.883 410.873 245.888C411.054 238.27 411.344 230.655 411.743 223.045C412.182 214.909 413.026 206.284 413.088 198.181C413.322 167.794 415.622 137.504 416.35 107.166C410.397 106.857 403.097 106.9 397.121 107.026C397.504 105.551 397.244 105.658 398.21 104.737C399.734 104.229 416.252 104.01 418.294 104.97C419.568 106.529 418.104 125.945 417.96 129.001L416.127 168.785C415.567 181.396 415.743 194.757 415.168 207.453L413.502 239.412C413.295 243.836 412.607 250.967 413.02 255.213C413.664 261.821 417.613 269.524 419.56 276.242C422.401 286.041 422.532 292.942 423.375 302.866C427.246 305.513 429.422 307.858 430.265 312.624C430.666 314.897 431.002 319.957 429.428 321.706C424.909 326.724 423.01 319.06 422.569 316.399C422.549 317.985 422.802 328.067 416.89 323.916C415.823 323.167 415.981 315.294 415.963 313.225C414.631 315.252 412.702 318.284 409.891 317.208C409.185 316.424 408.952 315.726 409.022 314.662C409.379 309.274 414.085 305.845 418.065 303.129C418.706 289.938 416.37 280.025 411.438 267.654C405.095 284.877 396.297 292.424 379.677 300.274C368.467 305.568 357.377 307.692 345.221 309.4C340.595 310.05 338.361 310.911 333.209 311.034C333.103 318.963 333.045 332.501 333.481 340.29C338.309 339.596 342.698 338.694 346.458 342.484C350.411 342.797 354.498 343.264 358.396 343.966C360.503 344.346 365.198 344.725 365.559 347.22C363.621 350.816 348.546 351.474 344.352 351.822C322.249 353.655 300.025 354.276 277.89 352.592C272.179 352.157 247.8 351.218 245.19 346.715C245.865 343.344 258.876 343.224 261.933 342.568C262.666 342.411 264.188 342.427 264.958 342.472L265.305 342.495C268.739 338.834 273.219 339.536 277.705 340.157C278.295 333.126 277.819 320.33 277.822 312.804C275.185 312.568 272.541 312.506 269.894 312.481C248.482 312.277 226.768 312.161 205.516 309.406C202.442 309.008 194.555 309.119 192.449 307.537C191.797 305.06 192.013 295.496 192.058 292.566L192.842 260.579C193.366 229.704 193.382 198.806 194.292 167.933C194.583 158.036 195.536 147.771 195.917 137.798L196.583 118.175C196.704 114.65 196.77 106.283 197.741 103.293C199.349 102.202 208.425 102.56 211.038 102.499C210.649 96.573 212.035 94.0018 216.419 90.1737ZM328.917 341.472C329.318 334.02 328.823 326.287 328.91 318.814C328.937 316.49 328.892 313.966 328.705 311.658C313.018 311.711 297.595 312.26 281.936 312.583C282.215 315.023 282.15 319.712 282.186 322.291C282.233 328.568 282.328 334.845 282.47 341.121C288.829 340.772 295.641 340.833 302.06 340.824C310.66 340.813 320.338 340.687 328.917 341.472ZM234.77 120.311C235.573 118.53 235.17 112.61 233.797 111.55C232.65 111.429 232.266 111.473 231.141 111.575C230.799 112.477 230.999 114.162 231.151 115.143C231.562 117.797 231.446 120.478 234.77 120.311Z"/><path fill="#EAE9EA" d="M282.47 341.121C288.829 340.772 295.641 340.833 302.06 340.824C310.66 340.813 320.338 340.687 328.917 341.472C328.994 343.021 328.98 345.369 330.289 346.37C332.76 348.259 337.682 348.606 340.648 348.271C344.439 347.843 346.903 346.604 346.458 342.484C350.411 342.797 354.498 343.264 358.396 343.966C360.503 344.346 365.198 344.725 365.559 347.22C363.621 350.816 348.546 351.474 344.352 351.822C322.249 353.655 300.025 354.276 277.89 352.592C272.179 352.157 247.8 351.218 245.19 346.715C245.865 343.344 258.876 343.224 261.933 342.568C262.666 342.411 264.188 342.427 264.958 342.472L265.305 342.495C265.257 346.222 266.482 347.677 270.413 348.234C273.63 348.69 278.697 348.08 281.455 346.259C282.551 345.535 282.439 342.411 282.47 341.121Z"/><path fill="#6BA6DC" d="M368.986 267.956C376.891 273.462 384.648 276.591 394.396 276.168C400.289 275.912 402.507 274.834 407.131 271.521C401.179 288.996 378.309 300.45 361.612 304.243C349.902 307.189 335.001 308.864 323.027 309.022C344.395 301.532 357.598 287.142 368.986 267.956Z"/><path fill="#E1553E" d="M234.764 87.2882C243.842 90.9053 245.994 97.2985 238.855 104.654C232.954 110.734 220.85 111.193 214.934 104.871C214.692 104.413 214.46 103.95 214.239 103.481C212.896 100.603 214.295 94.6333 216.827 93.4365C218.06 94.4521 219.136 100.034 221.311 101.639C225.461 104.7 231.763 104.053 234.935 99.868C237.945 95.8959 235.386 91.5147 234.764 87.2882Z"/><path fill="#E1553E" d="M211.324 67.897C213.345 61.2107 219.554 58.3865 225.793 61.6383C234.264 68.3302 228.473 76.1675 219.915 77.4637C214.319 78.3113 209.568 73.4881 211.324 67.897Z"/><path fill="#F56D4F" d="M211.324 67.897C213.345 61.2107 219.554 58.3865 225.793 61.6383C225.447 68.5358 222.794 69.9881 215.943 70.5082C214.917 70.0195 211.842 68.6849 211.324 67.897Z"/><path fill="#E1553E" d="M228.477 77.4138L228.891 77.5692C230.581 82.3799 232.307 90.13 233.921 95.5088C231.581 100.327 228.476 101.279 223.511 99.4733C221.249 97.9875 217.6 83.672 216.917 80.4389C222.556 80.5091 223.906 80.4244 228.477 77.4138Z"/><path fill="#6BA6DC" d="M236.736 111.219C239.012 112.174 241.043 113.232 241.984 115.723C246.131 126.706 228.543 129.772 225.077 120.844C223.809 117.576 227.09 114.203 226.791 113.099C226.447 113.036 225.241 112.838 224.992 112.727L227.533 112.46C228.571 115.092 229.212 121.356 231.333 122.177C241.233 126.007 237.428 114.087 236.736 111.219Z"/><path fill="#141211" d="M279.008 227.478C285.161 227.066 284.528 234.173 284.469 238.105C290.586 236.198 295.962 233.525 302.299 231.97C310.528 229.95 313.981 237.773 306.4 240.734C303.693 241.791 300.091 242.629 297.174 243.664C298.641 244.882 300.691 246.564 300.963 248.4C302.187 250.024 298.661 253.592 298.703 253.713C301.353 261.321 291.698 263.88 286.007 263.232C282.853 262.872 280.109 261.44 277.159 259.67C275.151 262.017 273.077 264.306 270.938 266.534C264.784 272.943 255.971 279.935 247.604 283.06C243.677 284.526 240.385 279.801 247.373 277.065C257.659 273.037 266.512 264.411 273.306 255.859C271.014 248.58 273.599 247.033 274.773 240.169C275.195 237.705 274.641 233.228 275.494 230.582C276.001 229.012 277.644 228.266 279.008 227.478Z"/><path fill="#141211" d="M332.496 185.006C342.49 183.328 342.687 201.896 333.501 205.314C323.586 205.753 324.678 192.358 329.249 187.082C330.266 185.908 331.11 185.594 332.496 185.006Z"/><path fill="#141211" d="M269.969 182.645C280.186 181.744 280.827 198.091 271.667 202.611C261.367 203.213 260.843 186.602 269.969 182.645Z"/><path fill="#F56D4F" d="M342.203 209.645C354.562 208.842 357.639 220.711 346.213 224.161C341.76 224.324 336.456 223.377 335.145 218.29C334.744 216.699 335.007 215.013 335.874 213.62C337.26 211.37 339.74 210.247 342.203 209.645Z"/><path fill="#F56D4F" d="M254.584 206.623C265.209 205.957 270.297 217.117 257.914 221.306C247.067 222.974 241.762 208.94 254.584 206.623Z"/><path fill="#141211" d="M286.899 211.889C288.191 212.219 288.632 212.857 289.121 214.066C292.101 221.427 298.428 223.46 305.734 220.77C309.758 219.288 310.819 212.792 314.506 212.128C316.654 212.994 315.808 216.236 315.099 217.864C310.852 224.358 304.263 227.563 296.571 225.756C291.497 224.565 284.479 219.274 285.069 213.446C285.145 212.692 286.315 212.208 286.899 211.889Z"/><path fill="#141211" d="M333.034 162.074C334.541 161.96 336.16 162.006 337.656 162.199C341.437 162.685 348.471 166.552 347.475 171.201C346.822 172.016 347.175 171.806 346.155 171.992C344.823 171.73 343.218 169.835 342.069 168.783C333.853 163.021 330.623 169.99 326.988 168.789C323.958 165.442 330.569 162.652 333.034 162.074Z"/><path fill="#141211" d="M267.776 159.712C271.316 159.571 279.954 160.525 279.291 165.675C276.713 168.152 275.692 165.06 272.941 164.612C271.03 164.3 269.016 164.46 267.081 164.543C263.195 165.986 262.166 169.69 258.762 169.439C257.233 168.327 258.302 166.529 259.203 165.221C261.285 162.199 264.174 160.403 267.776 159.712Z"/><path fill="#141211" d="M390.553 51.7926C397.55 51.6101 404.398 53.1097 408.129 59.8634C410.146 63.5146 410.215 68.4232 408.979 72.3368C407.2 77.9672 401.58 80.639 396.497 82.6585C395.743 82.964 393.452 83.9006 392.945 84.392C390.636 86.6784 389.977 90.7205 386.932 92.2731C385.214 93.1487 383.897 91.3524 383.338 89.9148C382.582 87.9747 383.497 85.8823 384.273 84.0858C388.283 73.8969 398.967 78.5882 402.246 69.0154C402.499 68.2779 402.72 67.3811 402.927 66.6218C401.012 59.5056 396.807 56.6156 389.332 59.4896C386.755 60.4805 383.852 64.5467 380.719 63.3436C378.943 61.7499 379.44 58.9852 380.717 57.221C383.083 53.9531 386.701 52.4776 390.553 51.7926Z"/><path fill="#141211" d="M382.449 97.436C383.9 97.0594 385.441 97.4929 386.483 98.5707C387.524 99.6485 387.905 101.204 387.48 102.641C387.054 104.078 385.888 105.176 384.428 105.512C382.212 106.024 379.997 104.659 379.456 102.45C378.915 100.241 380.248 98.0074 382.449 97.436Z"/></svg>