<?xml version="1.0" encoding="utf-8" ?><svg xmlns="http://www.w3.org/2000/svg" xmlns:xlink="http://www.w3.org/1999/xlink" width="500" height="500" viewBox="0 0 500 500"><path d="M160.624 119.718C146.04 104.09 144.111 81.3777 160.44 66.2284C168.48 58.8791 179.121 55.0408 190.002 55.5644C218.182 56.7673 232.885 85.018 219.986 109.255C217.323 114.258 214.014 118.362 211.05 123.146C209.764 125.364 206.219 133.364 208.51 135.65C208.72 135.86 210.647 137.248 211.664 138.321C212.131 141.35 212.092 142.995 209.856 145.356C210.475 146.369 211.927 148.466 211.394 149.597C209.557 153.505 206.691 159.148 203.437 161.877C213.233 161.027 222.213 161.543 231.833 161.257L305.009 159.204C304.917 153.871 305.384 151.764 309.2 147.824C309.488 147.523 309.782 147.227 310.081 146.938C309.755 143.133 308.737 139.329 307.584 135.689C306.02 134.283 305.088 133.43 303.898 131.733C298.346 123.82 307.085 113.959 315.488 114.284C327.122 114.735 329.108 122.879 325.928 132.101C326.845 134.868 328.102 140.245 328.742 143.255C336.605 144.879 339.937 149.964 338.517 157.926L338.884 157.964C342.573 158.324 360.426 156.985 361.945 157.768C363.564 160.978 363.207 178.169 363.347 182.955C363.953 203.578 364.025 224.25 363.806 244.884C363.651 259.383 362.684 274.365 362.45 288.82C364.659 288.145 366.48 286.824 368.398 285.547C376.034 280.461 380.959 274.428 385.378 266.49C386.848 263.848 388.078 259.655 389.33 257.661C384.972 254.394 379.519 249.06 383.935 243.222C386.372 240.307 388.199 241.102 387.844 236.998C387.503 233.049 384.536 222.052 387.629 219.093C393.368 213.603 394.068 227.623 394.273 229.724C394.629 233.368 395.216 235.25 395.286 238.071C396.209 235.823 397.346 233.521 398.328 231.271C399.755 228.005 401.033 222.856 403.562 220.415C404.945 220 406.193 219.566 407.54 220.391C408.237 220.818 408.513 221.54 408.604 222.314C409.271 227.944 402.1 237.666 402.152 239.525C402.159 239.786 405.408 242.955 405.792 243.622C407.615 246.786 406.195 251.453 404.035 254.062C402.055 256.454 399.018 258.323 395.887 258.594C395.048 258.666 394.199 258.684 393.357 258.71C387.58 272.532 385.087 278.757 371.68 288.151C368.83 290.147 364.992 292.271 362.316 294.185L362.267 294.602C361.839 298.375 362.1 302.249 361.775 306.001C361.119 313.484 360.709 321.048 359.773 328.5C355.299 364.126 321.522 378.828 290.554 385.67C285.798 386.72 280.593 387.362 275.971 388.504L276.003 388.892C276.229 391.775 276.062 395.607 276.036 398.602L276.002 413.754C276.004 414.579 275.991 419.528 276.181 420.077L276.56 419.899C279.118 418.719 281.112 419.031 283.919 419.301C285.407 420.39 287.116 421.648 287.481 423.566C291.113 423.892 303.58 425.371 305.954 427.523L305.953 428.031C302.882 431.479 286.01 432.21 280.987 432.578C266.944 433.718 252.855 434.188 238.768 433.988C229.762 433.792 222.431 433.291 212.827 432.578C205.832 432.059 194.717 431.721 187.515 429.109C187.007 428.924 186.904 428.252 186.842 427.808C187.755 425.964 193.658 425.269 195.617 424.911C199.199 424.256 202.15 424.092 205.567 422.633C208.253 418.461 213.537 417.579 217.159 420.947C217.285 412.77 216.951 404.687 217.047 396.517C217.064 395.094 217.049 393.689 216.996 392.267C208.957 391.6 200.473 392.032 192.379 391.386C189.616 391.166 186.667 391.401 183.884 391.168C171.648 390.109 159.351 389.249 147.158 387.787C143.968 387.405 136.721 387.22 134.203 385.669C133.409 384.334 133.751 369.095 133.745 366.504L133.724 320.654C133.722 311.682 133.88 302.041 133.514 293.107C121.604 286.721 112.435 278.802 106.728 266.26C106.11 265.223 104.245 258.857 103.5 258.51C98.8891 256.367 93.2151 256.647 91.4611 250.432C89.8551 244.743 91.752 241.96 95.6915 238.479C93.4182 234.125 89.0863 225.525 90.3001 220.996C91.3006 217.263 95.926 219.32 97.1257 222.597C98.0619 225.154 101.604 236.146 103.171 237.251L103.454 237.123C104.569 232.965 104.411 215.692 111.113 217.828C115.48 219.22 110.805 236.104 110.051 238.855C123.173 248.43 107.442 254.793 108.27 258.038C110.352 266.196 119.182 278.808 126.286 283.615C127.54 284.569 132.49 288.17 133.342 288.198C133.715 286.352 133.498 279.444 133.44 277.384C133.313 273.508 133.257 269.631 133.269 265.753C133.062 241.155 133.189 216.556 133.648 191.962C133.708 188.349 133.202 165.245 134.566 163.475C136.88 162.708 149.249 162.855 153.023 162.458C151.479 154.998 154.456 154.37 157.907 149.434C157.345 146.269 156.846 143.07 155.811 140.016C155.237 138.323 153.237 137.14 152.513 135.805C148.815 128.979 153.285 120.866 160.624 119.718ZM271.309 422.556C271.635 420.426 271.502 417.818 271.645 415.616C272.218 406.764 271.696 398.121 271.773 389.206C264.068 389.692 256.324 390.694 248.446 391.224C239.582 391.82 229.971 391.528 221.378 392.259C221.679 402.047 221.344 412.102 221.639 422.099C226.313 422.391 231.37 422.03 236.076 422.052C247.477 422.106 259.982 421.509 271.309 422.556ZM175.76 142.868C176.523 141.406 176.966 141 178.059 139.824C177.364 138.212 176.554 134.264 174.909 133.855C173.28 136.553 174.084 137.721 174.887 140.594C175.115 141.41 175.087 142.849 175.556 143.43C175.773 142.921 175.739 143.076 175.76 142.868Z"/><path fill="#F1F0EE" d="M221.639 422.099C226.313 422.391 231.37 422.03 236.076 422.052C247.477 422.106 259.982 421.509 271.309 422.556C271.571 427.743 275.701 428.48 280.321 428.328C283.615 428.22 286.068 426.551 287.481 423.566C291.113 423.892 303.58 425.371 305.954 427.523L305.953 428.031C302.882 431.479 286.01 432.21 280.987 432.578C266.944 433.718 252.855 434.188 238.768 433.988C229.762 433.792 222.431 433.291 212.827 432.578C205.832 432.059 194.717 431.721 187.515 429.109C187.007 428.924 186.904 428.252 186.842 427.808C187.755 425.964 193.658 425.269 195.617 424.911C199.199 424.256 202.15 424.092 205.567 422.633C205.662 423.38 205.847 425.33 206.378 425.88C209.636 429.254 216.995 428.938 220.576 426.158C221.741 425.254 221.588 423.439 221.639 422.099Z"/><path fill="#70C2F8" d="M337.092 160.939C344.246 160.747 353.333 160.211 360.288 160.242C360.928 173.73 360.605 187.922 360.8 201.462C361.026 210.804 361.152 220.148 361.177 229.493C361.122 254.881 360.531 280.792 358.816 306.111C358.281 314 357.967 334.274 352.974 339.939C343.826 350.317 322.983 350.188 313.428 340.224C311.909 338.745 309.997 336.725 308.315 335.597C305.914 337.924 303.977 341.625 302.185 344.437C290.729 362.409 274.168 375.904 254.782 384.586C249.975 386.739 244.513 389.222 239.113 389.384C233.8 389.496 228.433 389.68 223.122 389.703C203.839 389.793 184.562 388.991 165.354 387.3C158.952 386.707 152.537 385.628 146.07 385.224C142.819 385.021 139.504 384.1 136.112 383.963C135.8 376.123 135.989 367.343 135.986 359.419L135.931 313.072C135.505 263.815 135.521 214.554 135.978 165.297C141.754 165.123 147.532 164.997 153.31 164.92C156.549 169.405 159.128 171.43 164.779 172.57C166.465 172.91 167.562 172.426 168.54 173.616L168.651 173.957C169.67 177.19 167.771 180.167 171.615 182.162C176.089 184.484 180.536 179.789 180.142 175.397L179.799 174.833C178.47 175.118 178.719 175.273 177.591 174.892C176.868 174.159 176.729 173.084 176.45 172.041L176.285 171.682C176.388 170.88 178.473 169.792 179.289 169.263C181.303 167.958 182.457 166.77 184.033 164.998C201.686 164.993 220.551 163.865 238.36 163.294L305.619 161.5C308.178 165.444 311.84 168.74 316.774 168.888C317.395 168.907 320.543 169.23 321.06 169.417C321.213 170.709 321.789 174.146 321.576 175.191C320.584 175.383 320.077 175.315 319.616 176.243C319.981 179.176 322.571 179.381 324.678 180.274C328.164 181.75 333.833 175.79 331.915 173.555C329.11 172.758 329.441 172.103 329.117 169.483C328.94 168.451 328.748 168.374 329.078 167.566C332.822 165.329 334.327 164.201 337.092 160.939Z"/><path fill="#589FD9" d="M176.45 172.041L177.195 172.631C178.857 172.345 180.258 172.633 181.931 172.86C192.302 182.268 174.229 192.278 165.452 183.579C163.465 177.873 165.252 177.384 168.54 173.616L168.651 173.957C169.67 177.19 167.771 180.167 171.615 182.162C176.089 184.484 180.536 179.789 180.142 175.397L179.799 174.833C178.47 175.118 178.719 175.273 177.591 174.892C176.868 174.159 176.729 173.084 176.45 172.041Z"/><path fill="#6298CF" d="M176.45 172.041L177.195 172.631C179.996 173.443 178.256 173.086 179.799 174.833C178.47 175.118 178.719 175.273 177.591 174.892C176.868 174.159 176.729 173.084 176.45 172.041Z"/><path fill="#589FD9" d="M329.117 169.483C337.259 172.363 340.51 179.243 331.154 183.138C327.929 184.51 324.287 184.525 321.051 183.18C317.92 181.881 315.69 178.588 317.152 175.317C318.355 172.626 321.076 172.801 321.06 169.417C321.213 170.709 321.789 174.146 321.576 175.191C320.584 175.383 320.077 175.315 319.616 176.243C319.981 179.176 322.571 179.381 324.678 180.274C328.164 181.75 333.833 175.79 331.915 173.555C329.11 172.758 329.441 172.103 329.117 169.483Z"/><path d="M259.226 268.601C262.476 268.369 265.992 270.422 266.609 273.738C270.078 292.399 252.492 310.455 234.246 299.8C228.128 295.653 224.464 288.459 223.994 281.398C223.467 273.466 227.356 267.011 236.103 269.508C240.829 270.858 246.942 270.782 251.659 269.895C254.216 269.413 256.581 268.81 259.226 268.601Z"/><path fill="#FB694E" d="M243.681 288.819L243.99 288.793C249.583 288.391 253.905 289.964 258.084 293.549C254.848 296.961 252.009 298.407 247.454 299.499C241.327 299.937 236.362 298.162 232.308 293.468C236.268 290.335 238.773 289.744 243.681 288.819Z"/><path fill="#F1F0EE" d="M231.186 272.51C234.693 272.317 239.411 273.985 243.087 274.213C246.965 274.443 250.875 273.492 254.692 272.912C256.555 272.629 261.978 271.661 262.388 274.275C261.94 275.627 260.681 276.534 259.568 277.337C252.401 281.3 237.242 281.958 230.38 276.604C228.746 275.329 229.797 273.464 231.186 272.51Z"/><path d="M280.361 245.554C288.025 244.828 294.083 249.698 295.535 257.131C296.346 261.09 295.489 265.209 293.165 268.515C290.895 271.812 288.013 273.758 284.054 274.478C272.499 275.156 265.782 263.878 270.457 253.608C272.522 249.071 275.762 247.228 280.361 245.554Z"/><path fill="#F1F0EE" d="M278.74 250.349C280.94 249.67 283.278 250.883 283.989 253.073C284.701 255.263 283.522 257.618 281.343 258.362C279.905 258.853 278.313 258.531 277.179 257.52C276.044 256.508 275.542 254.964 275.866 253.478C276.189 251.993 277.287 250.797 278.74 250.349Z"/><path d="M205.906 246.735C213.474 245.417 220.673 250.501 221.96 258.075C223.247 265.648 218.134 272.825 210.555 274.082C203.02 275.331 195.893 270.253 194.613 262.723C193.333 255.194 198.382 248.046 205.906 246.735Z"/><path fill="#F1F0EE" d="M206.026 250.917C207.414 250.301 209.025 250.478 210.246 251.381C211.467 252.283 212.11 253.771 211.929 255.279C211.747 256.786 210.771 258.08 209.371 258.667C208.043 259.224 206.523 259.066 205.339 258.247C204.154 257.429 203.469 256.063 203.52 254.625C203.578 253.011 204.55 251.572 206.026 250.917Z"/><path fill="#FB694E" d="M295.562 273.539C303.008 273.186 307.154 274.618 309.404 282.26C307.896 289.327 304.43 290.769 297.809 291.974C292.81 292.308 285.597 290.865 284.14 285.243C283.609 283.233 283.962 281.092 285.111 279.359C287.396 275.86 291.716 274.41 295.562 273.539Z"/><path fill="#F1F0EE" d="M296.462 280.041C299.209 280.678 299.169 284.869 298.065 286.89L297.386 286.935C295.393 285.794 296.031 281.935 296.462 280.041Z"/><path fill="#F1F0EE" d="M293.204 279.853C293.386 279.964 293.67 280.222 293.845 280.368C294.227 282.153 294.337 284.678 293.391 286.298C292.008 284.656 292.299 281.656 293.204 279.853Z"/><path fill="#FB694E" d="M192.675 273.604C195.393 273.612 198.069 274.269 200.481 275.522C202.905 276.798 204.931 278.841 205.67 281.534C206.183 283.373 205.896 285.343 204.881 286.959C203.004 289.944 199.348 291.253 196.076 291.974C190.412 292.673 183.605 290.667 182.627 284.198C182.27 281.861 182.886 279.48 184.331 277.609C186.496 274.814 189.388 274.02 192.675 273.604Z"/><path fill="#F1F0EE" d="M198.312 280.136C201.757 280.328 198.935 285.712 197.964 287.114C197.257 287.312 197.613 287.308 196.88 286.967C195.661 284.931 197.046 281.829 198.312 280.136Z"/><path fill="#F1F0EE" d="M194.477 279.892C194.937 280.079 194.828 280.057 195.224 280.402C195.748 282.448 194.395 284.589 193.359 286.341C191.413 284.973 193.522 281.384 194.477 279.892Z"/><path d="M209.906 223.611C213.28 223.538 215.952 224.032 218.757 226.041C220.421 227.232 221.026 229.262 219.646 230.92C216.493 232.358 211.959 226.26 205.286 230.393C203.097 232.304 202.714 233.139 201.19 235.645C195.278 235.588 197.415 231.391 199.95 228.493C202.493 225.613 206.073 223.858 209.906 223.611Z"/><path d="M280.111 223.802C285.838 223.425 293.076 226.29 294.698 232.521C294.993 233.653 294.853 234.654 294.233 235.645C292.683 236.6 291.047 235.419 290.232 234.044L289.141 232.229C282.259 225.411 276.118 231.925 273.363 231.277C272.624 230.778 272.386 230.465 272.215 229.594C271.472 225.8 277.365 224.308 280.111 223.802Z"/><path fill="#FED92D" d="M180.937 139.564C179.223 130.925 172.01 126.254 165.874 120.68C157.66 113.219 151.464 103.615 151.593 92.1612C151.707 83.4524 155.309 75.1532 161.59 69.1202C168.709 62.257 179.2 57.966 189.103 58.194C198.233 58.3963 206.916 62.1839 213.275 68.7379C224.409 80.4287 224.131 98.1781 215.753 111.233C209.24 121.383 205.376 123.496 205.073 136.117C202.946 136.594 200.797 136.968 198.634 137.237L195.547 137.521C194.183 137.625 192.713 137.705 191.365 137.885L188.951 138.135C187.568 138.513 182.776 139.186 180.937 139.564Z"/><path fill="#F1F0EE" d="M191.493 111.613C190.761 108.2 190.756 105.547 191.98 102.075C193.444 96.7265 200.723 94.5026 203.437 100.016C207.24 107.743 200.11 112.62 194.066 114.387L193.855 115.236L193.69 115.181L193.727 115.012C193.12 115.293 192.735 115.492 192.1 115.209C191.118 114.712 188.786 115.283 187.476 115.471C186.963 115.575 185.532 115.959 185.2 116.003C182.367 116.064 180.244 116.143 177.788 114.325C175.662 112.719 174.296 110.305 174.013 107.656C173.211 100.764 180.249 97.228 184.993 102.536C187.683 105.547 187.607 108.282 187.504 112.03L191.493 111.613Z"/><path fill="#FED92D" d="M197.517 100.02C204.233 100.416 200.806 107.479 196.656 109.993C195.88 110.348 194.808 110.72 193.989 111.032C193.824 106.937 193.548 102.344 197.517 100.02Z"/><path fill="#FED92D" d="M179.294 103.433C183.593 103.29 186.049 109.495 184.588 112.064L183.61 112.266C178.564 111.649 174.872 107.485 179.294 103.433Z"/><path fill="#FED92D" d="M187.476 115.471C188.786 115.283 191.118 114.712 192.1 115.209C192.811 122.536 194.88 130.571 195.547 137.521C194.183 137.625 192.713 137.705 191.365 137.885L188.951 138.135C188.486 137.327 185.34 117.977 185.2 116.003C185.532 115.959 186.963 115.575 187.476 115.471Z"/><path fill="#F9FEDC" d="M185.2 116.003C185.532 115.959 186.963 115.575 187.476 115.471C188.453 121.866 189.755 128.208 190.649 134.618C190.803 135.725 191.016 136.821 191.365 137.885L188.951 138.135C188.486 137.327 185.34 117.977 185.2 116.003Z"/><path fill="#F9FEDC" d="M192.1 115.209C192.735 115.492 193.12 115.293 193.727 115.012L193.69 115.181L193.855 115.236L194.066 114.387C194.811 117.889 195.481 121.407 196.077 124.938C196.619 128.167 197.461 134.418 198.634 137.237L195.547 137.521C194.88 130.571 192.811 122.536 192.1 115.209Z"/><path fill="#FBF690" d="M175.681 67.2893C176.855 67.2137 178.238 67.3274 179.115 68.2095C179.623 68.729 179.908 69.4268 179.907 70.1534C179.903 73.6819 172.968 77.3573 170.665 79.8189C168.365 82.2775 166.351 84.976 163.994 87.3557C160.22 88.9055 159.11 83.736 161.12 80.5569C164.436 75.3138 169.614 69.1674 175.681 67.2893Z"/><path fill="#589FD9" d="M308.329 339.343C308.611 339.473 308.65 339.452 308.839 339.661C319.747 351.719 339.351 354.656 352.604 344.026C351.882 345.364 351.14 346.692 350.379 348.009C339.092 367.376 317.462 376.074 296.805 381.507C284.129 384.641 266.488 388.043 253.442 387.989C276.032 379.463 296.752 360.44 308.329 339.343Z"/><path fill="#E13823" d="M171.092 138.77L171.195 138.778C171.723 139.126 172.148 140.267 172.275 140.991C173.47 147.809 179.112 159.736 169.4 162.862C167.841 163.363 166.121 162.463 164.791 161.631C162.332 159.452 159.338 144.529 159.2 141.233C164.926 141.41 165.914 141.435 171.092 138.77Z"/><path fill="#FB694E" d="M163.715 142.994C166.737 143.273 166.948 147.693 167.379 150.264C167.971 153.803 169.652 155.921 165.819 157.347C165.206 157.485 165.5 157.508 164.932 157.179C163.912 155.557 161.622 145.86 161.661 144.215C162.118 143.493 162.88 143.331 163.715 142.994Z"/><path fill="#E13823" d="M323.357 134.528L323.452 134.527C323.97 134.812 324.187 135.629 324.314 136.306C325.266 141.701 329.242 149.701 326.686 154.827C325.085 158.038 319.929 158.186 317.022 156.396C313.596 153.158 313.211 147.324 311.965 142.979C311.559 141.56 310.96 138.948 311.211 137.567C311.881 137.127 314.685 137.62 315.867 137.458C318.705 137.069 320.882 135.84 323.357 134.528Z"/><path fill="#FB694E" d="M315.55 138.749C316.21 138.873 316.747 138.909 317.165 139.466C318.914 141.797 320.099 148.263 319.7 150.974C319.189 151.611 318.834 151.518 317.864 151.799C317.447 151.772 317.068 151.717 316.654 151.666C315.719 150.906 313.657 141.757 313.858 140.293C314.314 139.392 314.644 139.306 315.55 138.749Z"/><path fill="#E13823" d="M309.279 119.396C313.759 116.849 317.856 116.195 322.172 119.71C326.002 123.788 325.91 127.927 321.572 131.675C315.8 136.661 303.792 134.344 305.355 124.979C305.803 122.289 307.185 120.914 309.279 119.396Z"/><path fill="#FB694E" d="M309.279 119.396C313.759 116.849 317.856 116.195 322.172 119.71C322.636 127.18 311.843 131.68 307.432 124.494C308.162 122.568 309.38 121.41 309.748 120.156L309.279 119.396Z"/><path fill="#E13823" d="M329.986 146.346C333.855 147.563 336.786 151.395 335.888 155.495C333.388 166.908 315.806 170.628 308.946 161.164C306.239 156.278 308.037 154.017 310.854 150.014C312.245 155.806 315.855 160.945 322.599 159.873C324.993 159.512 327.139 158.198 328.549 156.23C330.845 153.051 330.591 149.91 329.986 146.346Z"/><path fill="#FB694E" d="M153.666 131.128C154.193 125.684 157.698 123.668 162.424 122.168C164.446 123.445 167.048 125.837 168.902 127.469L172.958 130.933C171.305 133.996 169.588 136.77 166.02 137.708C159.995 139.292 155.351 137.12 153.666 131.128Z"/><path fill="#E13823" d="M168.902 127.469L172.958 130.933C171.305 133.996 169.588 136.77 166.02 137.708C159.995 139.292 155.351 137.12 153.666 131.128C154.218 131.272 154.843 131.556 155.353 131.815C160.19 134.276 164.293 132.787 167.552 129.013L168.902 127.469Z"/><path fill="#E13823" d="M176.465 147.916C176.774 148.112 177.97 149.15 178.303 149.427C178.264 154.463 178.473 156.654 183.963 157.289C182.849 162.014 181.493 164.55 177.245 167.271C173.405 169.731 167.872 170.334 163.486 169.271C159.711 168.356 157.72 166.37 155.776 163.196C154.271 158.495 155.811 155.894 158.761 152.43C159.542 157.018 160.235 162.212 165.005 164.457C166.959 165.354 169.191 165.43 171.201 164.668C178.187 162.034 178.918 154.059 176.465 147.916Z"/><path fill="#C8C7C7" d="M204.531 139.355C205.921 139.278 207.226 139.181 208.62 139.23L208.961 139.627C209.021 140.911 208.567 143.022 207.619 143.963C206.562 145.012 186.541 147.023 183.732 147.263C182.411 147.446 181.025 147.558 179.743 147.191C178.741 146.336 178.317 143.7 179.292 142.883C180.794 141.81 183.566 141.667 185.356 141.513C191.777 140.96 198.107 139.804 204.531 139.355Z"/><path fill="#C8C7C7" d="M207.597 147.403L207.977 147.413C208.279 148.164 208.131 150.468 208.115 151.407C202.097 153.133 188.668 154.224 182.346 154.392L181.668 154.084C180.776 153.142 180.727 151.486 181.412 150.404C181.889 150.011 182.526 149.828 183.133 149.822C191.119 149.744 199.807 147.582 207.597 147.403Z"/><defs><linearGradient id="gradient_0" gradientUnits="userSpaceOnUse" x1="196.06224" y1="154.36751" x2="195.13853" y2="161.04579"><stop offset="0" stop-color="#626062"/><stop offset="1" stop-color="#838283"/></linearGradient></defs><path fill="url(#gradient_0)" d="M204.51 155.129L204.974 155.129L205.097 155.529C202.395 161.353 194.579 163.175 189.355 159.625C188.191 158.729 187.495 158.107 186.433 157.113C192.197 156.784 197.786 155.456 204.51 155.129Z"/><path fill="#C8C7C7" d="M172.861 172.298C173.932 172.544 176.615 178.338 176.53 179.231C176.008 180.052 175.608 180.183 174.738 180.7L174.018 180.656C173.093 180.013 171.171 174.112 170.921 172.875C171.654 172.3 171.782 172.458 172.861 172.298Z"/><path fill="#C8C7C7" d="M323.71 168.859C324.15 168.815 325.457 168.652 325.723 168.831C327.431 169.983 327.585 176.738 327.179 178.119C326.388 178.123 326.049 178.204 325.379 177.786C325.146 176.543 323.608 169.51 323.71 168.859Z"/><path fill="#FED92D" d="M206.198 30.2139C207.041 30.1631 209.725 30.1037 209.409 31.4982C208.464 35.6754 206.112 44.9915 203.911 48.4191C202.926 48.668 202.833 48.7357 201.868 48.5485C201.492 48.25 201 47.8745 201.027 47.3538C201.203 44.0543 204.851 32.5402 206.198 30.2139Z"/><path fill="#FED92D" d="M170.684 30.9362C171.006 30.9609 172.468 31.0496 172.612 31.2494C174.963 34.5124 175.997 41.9044 176.891 45.9721C177.281 47.7482 176.873 48.383 176.1 49.3777C175.088 49.525 175.151 49.6793 174.357 49.341C172.834 46.9632 170.336 35.8885 169.912 32.6151C169.816 31.8714 170.227 31.4666 170.684 30.9362Z"/><path fill="#FED92D" d="M139.97 45.61C140.375 45.6777 141.01 45.7971 141.356 46.0006C143.284 47.1364 151.982 57.1221 152.477 58.4744C152.419 59.4532 152.271 59.5472 151.68 60.3906C151.115 60.4337 150.168 60.5156 149.78 60.0841C147.858 57.9476 139.384 49.8189 138.91 47.6301C138.979 46.6187 139.274 46.4379 139.97 45.61Z"/></svg>