<?xml version="1.0" encoding="utf-8" ?><svg xmlns="http://www.w3.org/2000/svg" xmlns:xlink="http://www.w3.org/1999/xlink" width="500" height="500" viewBox="0 0 500 500"><path d="M159.137 99.3791C157.848 97.7871 154.601 95.146 153.852 93.5886C151.186 88.0419 153.118 81.5636 157.863 77.8935C168.559 69.6191 185.887 77.3014 179.218 92.3057C179.676 95.6286 181.05 101.355 182.266 104.424C190.874 107.958 198.569 115.34 191.902 125.003C208.74 125.346 224.841 124.824 241.563 124.666C269.274 124.319 296.987 124.175 324.7 124.233C325.392 117.3 326.105 116.787 330.674 112.145C331.916 110.884 329.876 103.05 329.523 100.622C327.675 98.7842 325.512 96.6142 324.707 94.1326C320.894 82.3697 335.685 73.7559 345.403 78.8924C350.276 81.4682 353.331 86.0369 352.097 91.5896C351.69 93.4246 350.864 94.7474 349.976 96.3812C350.051 99.4352 350.413 105.377 351.192 108.148C357.726 112.053 362.282 115.089 361.828 123.536C362.865 125.042 382.158 122.773 384.224 124.303C385.96 125.589 385.686 136.589 385.746 139.076C385.951 148.822 386.011 158.571 385.925 168.32C385.905 194.025 385.676 219.73 385.239 245.431L384.659 270.935C384.523 275.639 383.849 279.624 384.326 284.348C387.688 283.406 393.63 281.154 396.482 279.419C406.017 273.62 413.03 263.408 415.746 252.691C413.039 250.525 410.974 248.36 409.885 245.018C407.622 238.076 411.091 235.575 416.951 233.752C415.784 229.416 414.789 220.666 415.662 216.322C418.424 212.358 422.005 214.128 422.411 217.647C422.956 222.365 423.791 228.801 424.074 233.484C425.563 229.344 430.235 213.93 436.396 217.609C441.632 220.736 432.312 232.632 430.327 235.515C433.243 236.906 434.313 237.311 435.968 240.051C436.5 249.429 429.892 255.017 420.799 254.663C419.623 258.059 418.337 261.909 416.565 265.036C411.13 274.519 402.646 283.148 392.179 286.846C389.385 287.832 386.558 287.85 383.792 288.724C383.751 296.072 383.42 303.416 382.801 310.738C381.64 324.669 380.053 335.571 371.883 347.686C355.486 371.997 316.691 380.298 289.484 385.608C289.533 396.597 288.994 407.625 289.008 418.815C293.173 415.712 298.892 416.889 302.235 420.68C306.366 420.748 324.886 422.12 326.759 425.544C326.636 425.993 326.625 426.264 326.056 426.445C319.619 428.483 312.515 429.268 305.835 430.26C303.195 430.653 300.44 430.407 297.788 430.749C273.345 432.768 248.596 432.72 224.122 431.171C215.589 430.631 207.144 430.364 198.726 428.572C196.185 428.031 190.386 427.424 188.563 425.758C187.95 423.202 198.916 421.944 201.012 421.47C203.937 420.81 207.73 421.322 210.7 421.167C213.58 416.553 219.106 416.156 223.612 418.445C224.282 414.496 223.71 407.291 223.525 403.014C223.377 399.042 223.308 395.068 223.317 391.094C214.202 390.633 203.723 390.933 194.46 390.74C178.314 390.498 162.198 389.25 146.207 387.001C143.568 386.616 134.343 385.32 133.715 383.544C132.567 380.295 133.104 366.738 133.154 363.195L133.368 342.181C133.51 330.149 133.269 317.708 133.553 305.765C129.332 309.484 125.814 311.461 120.009 311.001C112.478 310.404 108.452 306.822 103.768 301.536C98.2162 300.821 95.6284 299.786 94.9912 293.867C84.4757 293.951 73.3189 287.848 65.6001 280.969C45.0724 262.676 44.0449 229.371 62.1349 208.945C80.2454 188.496 112.314 187.275 132.533 205.664C132.321 200.753 132.583 194.507 132.7 189.608C132.818 183.477 132.9 177.345 132.946 171.213L133.055 145.56C133.059 141.059 132.608 130.128 133.943 126.386C135.493 125.604 154.017 125.808 157.126 125.781C154.517 118.812 157.405 114.815 161.647 109.689C160.776 107.033 159.627 102.113 159.137 99.3791ZM228.317 418.768C238.307 419.069 246.976 418.579 256.808 418.677C261.217 418.714 265.626 418.774 270.034 418.858C273.855 418.95 280.485 419.3 284.145 418.578C284.426 415.819 284.268 412.028 284.351 409.15C284.567 401.693 284.241 393.815 284.582 386.389C280.456 387.157 276.786 387.355 272.652 387.851C257.657 389.65 242.569 390.24 227.494 391.027C227.455 394.018 227.637 397.28 227.686 400.306C227.785 406.388 227.78 412.726 228.317 418.768ZM349.824 135.962C350.096 136.921 350.334 137.649 350.454 138.642C350.927 141.043 352.211 141.534 352.575 142.968C354.682 151.259 342.194 153.558 340.548 145.43C340.229 143.857 341.873 142.344 341.647 139.411C341.304 137.183 340.418 137.13 338.281 136.772C331.845 135.694 327.535 133.199 324.958 126.932L240.331 127.518C223.674 127.664 207.244 128.053 190.545 127.923C187.459 130.721 185.962 131.918 182.243 133.698L183.354 136.352C184.458 139.317 186.78 140.018 185.321 143.622C184.664 145.217 183.375 146.47 181.761 147.08C180.328 147.62 178.732 147.516 177.381 146.795C174.828 145.415 173.911 142.535 174.094 139.868C174.185 138.554 173.637 137.621 173.614 136.524C172.99 135.733 172.969 135.475 171.736 135.368C165.967 134.871 161.9 132.751 158.118 128.314C150.658 128.422 143.197 128.486 135.736 128.506L135.494 208.475C138.995 212.883 142.665 217.855 144.8 222.897C151.146 237.891 150.192 255.64 141.681 269.596C140.18 272.059 137.139 275.046 136.28 277.95C135.99 281.173 136.05 285.705 136.031 289.028L135.918 311.859L135.826 356.439C135.799 364.645 135.503 374.475 135.816 382.576C146.765 385.095 153.593 385.526 164.774 386.527C185.883 388.416 206.881 388.647 228.067 388.02C236.979 387.757 251.449 387.776 259.906 385.907C268.701 383.964 281.567 376.277 289.359 371.495C301.807 363.856 312.142 354.146 320.486 342.073C322.947 338.513 324.466 334.288 327.206 330.571C329.914 332.056 332.504 334.725 335.122 336.46C338.782 338.945 342.901 340.893 347.176 341.965C357.407 344.532 369.79 340.93 374.997 331.215C379.925 322.019 380.162 308.503 380.71 298.095C381.145 290.688 381.485 283.276 381.731 275.86C382.492 256.715 382.944 237.558 383.085 218.398C383.365 188.894 384.53 155.877 382.909 126.513C376.035 125.946 368.082 126.512 361.095 126.324C358.062 131.339 355.529 134.092 349.824 135.962ZM133.113 280.459C128.548 283.826 123.296 288.344 117.969 290.2C110.572 292.778 115.287 294.609 110.58 299.466C112.099 301.063 112.96 302 114.895 303.15C121.563 307.136 128.172 306.381 132.526 299.695C134.196 297.132 134.07 283.811 133.598 280.681L133.113 280.459ZM96.1183 203.671C74.1993 205.199 57.6395 224.159 59.075 246.084C60.5105 268.009 79.4012 284.648 101.332 283.305C123.394 281.953 140.153 262.926 138.709 240.87C137.265 218.815 118.168 202.135 96.1183 203.671Z"/><path fill="#EBEAEB" d="M228.317 418.768C238.307 419.069 246.976 418.579 256.808 418.677C261.217 418.714 265.626 418.774 270.034 418.858C273.855 418.95 280.485 419.3 284.145 418.578C283.858 426.579 284.619 427.231 293.438 427.616C298.163 427.823 302.928 426.428 302.235 420.68C306.366 420.748 324.886 422.12 326.759 425.544C326.636 425.993 326.625 426.264 326.056 426.445C319.619 428.483 312.515 429.268 305.835 430.26C303.195 430.653 300.44 430.407 297.788 430.749C273.345 432.768 248.596 432.72 224.122 431.171C215.589 430.631 207.144 430.364 198.726 428.572C196.185 428.031 190.386 427.424 188.563 425.758C187.95 423.202 198.916 421.944 201.012 421.47C203.937 420.81 207.73 421.322 210.7 421.167C209.238 428.916 223.905 429.037 227.59 425.18C228.886 423.823 228.386 420.592 228.317 418.768Z"/><path fill="#71C2F8" d="M361.095 126.324C368.082 126.512 376.035 125.946 382.909 126.513C384.53 155.877 383.365 188.894 383.085 218.398C382.944 237.558 382.492 256.715 381.731 275.86C381.485 283.276 381.145 290.688 380.71 298.095C380.162 308.503 379.925 322.019 374.997 331.215C369.79 340.93 357.407 344.532 347.176 341.965C342.901 340.893 338.782 338.945 335.122 336.46C332.504 334.725 329.914 332.056 327.206 330.571C324.466 334.288 322.947 338.513 320.486 342.073C312.142 354.146 301.807 363.856 289.359 371.495C281.567 376.277 268.701 383.964 259.906 385.907C251.449 387.776 236.979 387.757 228.067 388.02C206.881 388.647 185.883 388.416 164.774 386.527C153.593 385.526 146.765 385.095 135.816 382.576C135.503 374.475 135.799 364.645 135.826 356.439L135.918 311.859L136.031 289.028C136.05 285.705 135.99 281.173 136.28 277.95C137.139 275.046 140.18 272.059 141.681 269.596C150.192 255.64 151.146 237.891 144.8 222.897C142.665 217.855 138.995 212.883 135.494 208.475L135.736 128.506C143.197 128.486 150.658 128.422 158.118 128.314C161.9 132.751 165.967 134.871 171.736 135.368C172.969 135.475 172.99 135.733 173.614 136.524C173.637 137.621 174.185 138.554 174.094 139.868C173.911 142.535 174.828 145.415 177.381 146.795C178.732 147.516 180.328 147.62 181.761 147.08C183.375 146.47 184.664 145.217 185.321 143.622C186.78 140.018 184.458 139.317 183.354 136.352L182.243 133.698C185.962 131.918 187.459 130.721 190.545 127.923C207.244 128.053 223.674 127.664 240.331 127.518L324.958 126.932C327.535 133.199 331.845 135.694 338.281 136.772C340.418 137.13 341.304 137.183 341.647 139.411C341.873 142.344 340.229 143.857 340.548 145.43C342.194 153.558 354.682 151.259 352.575 142.968C352.211 141.534 350.927 141.043 350.454 138.642C350.334 137.649 350.096 136.921 349.824 135.962C355.529 134.092 358.062 131.339 361.095 126.324ZM299.452 251.497C301.28 251.143 302.416 250.899 304.12 250.046C315.076 244.562 315.408 227.791 305.453 221.161C303.272 219.708 300.502 218.779 297.84 219.083C278.544 221.424 279.857 251.707 299.452 251.497ZM215.019 249.994C233.393 246.479 230.802 216.216 212.236 218.344C194.958 220.363 193.71 250.685 215.019 249.994Z"/><path fill="#58A4DC" d="M183.354 136.352C185.142 136.252 187.479 137.345 188.668 138.633C197.523 148.225 175.41 155.848 170.007 148.181C165.668 142.025 172.151 140.301 173.614 136.524C173.637 137.621 174.185 138.554 174.094 139.868C173.911 142.535 174.828 145.415 177.381 146.795C178.732 147.516 180.328 147.62 181.761 147.08C183.375 146.47 184.664 145.217 185.321 143.622C186.78 140.018 184.458 139.317 183.354 136.352Z"/><path fill="#58A4DC" d="M350.454 138.642C358.569 140.251 360.451 148.124 353.329 152.677C346.731 156.896 334.451 153.722 336.744 144.154C337.247 141.937 339.515 140.242 341.647 139.411C341.873 142.344 340.229 143.857 340.548 145.43C342.194 153.558 354.682 151.259 352.575 142.968C352.211 141.534 350.927 141.043 350.454 138.642Z"/><path d="M297.84 219.083C300.502 218.779 303.272 219.708 305.453 221.161C315.408 227.791 315.076 244.562 304.12 250.046C302.416 250.899 301.28 251.143 299.452 251.497C279.857 251.707 278.544 221.424 297.84 219.083ZM297.336 233.697C298.905 232.946 299.851 231.308 299.718 229.575C299.585 227.841 298.401 226.366 296.737 225.863C295.805 225.581 294.804 225.63 293.904 226.002C292.488 226.588 291.502 227.897 291.329 229.421C291.156 230.944 291.823 232.441 293.072 233.33C294.321 234.219 295.954 234.359 297.336 233.697Z"/><path d="M212.236 218.344C230.802 216.216 233.393 246.479 215.019 249.994C193.71 250.685 194.958 220.363 212.236 218.344ZM214.576 232.63C217.917 230.804 218.2 229.904 217.226 226.255C215.575 224.582 215.396 224.566 213.084 224.324C210.491 224.866 208.678 226.5 209.475 229.342C209.826 230.563 210.668 231.584 211.8 232.161C212.731 232.629 213.559 232.631 214.576 232.63Z"/><path fill="#F7685B" d="M310.718 251.084C314.205 250.865 317.964 251.161 320.841 253.347C322.748 254.795 323.988 256.954 324.277 259.33C324.561 261.751 323.879 264.187 322.378 266.107C320.24 268.814 317.497 269.376 314.319 269.779C311.059 269.904 307.267 269.605 304.513 267.764C300.352 264.983 298.778 259.576 301.976 255.431C304.392 252.3 307.07 251.6 310.718 251.084Z"/><path fill="#F7685B" d="M196.197 250.335C211.62 251.351 213.94 267.347 196.814 269.677C182.005 269.907 179.098 252.411 196.197 250.335Z"/><path d="M238.281 251.207C240.719 251.23 241.062 252.816 241.538 254.926C243.844 265.146 262.217 265.369 266.984 257.144C268.178 255.083 269.1 250.746 272.14 251.309C274.244 253.003 273.784 255.318 273.013 257.49C271.87 259.615 270.372 261.529 268.584 263.149C264.197 267.191 259.492 268.731 253.058 268.545C245.609 268.33 236.916 262.919 236.493 254.67C236.42 253.232 237.172 252.147 238.281 251.207Z"/><path d="M296.253 196.595C300.674 196.13 306.396 197.648 309.792 200.614C312.119 202.647 314.893 206.553 312.363 209.461C309.725 210.84 308.297 207.302 306.989 205.595C305.31 203.9 303.277 202.681 301.06 201.924C297.145 200.588 294.077 202.359 290.485 203.469C288.101 204.206 286.593 201.586 287.566 199.81C288.836 197.491 293.982 196.839 296.253 196.595Z"/><path d="M213.145 195.588C216.738 195.309 221.047 196.429 224.022 198.495C224.386 198.748 224.643 199.704 224.509 200.132C223.155 204.446 218.615 201.294 215.883 200.598C212.992 199.89 209.738 201.133 207.368 202.596L207.074 202.782C206.097 203.602 205.011 204.835 204.433 206.031C203.825 207.291 201.806 209.738 200.152 208.412C197.915 206.619 199.669 202.76 201.173 200.943C204.091 197.418 208.75 196.106 213.145 195.588Z"/><path fill="#515050" d="M96.0382 196.322C122.032 194.731 144.412 214.475 146.075 240.465C147.737 266.455 128.054 288.889 102.069 290.622C75.9832 292.362 53.4432 272.587 51.7746 246.496C50.1059 220.405 69.943 197.92 96.0382 196.322ZM101.332 283.305C123.394 281.953 140.153 262.926 138.709 240.87C137.265 218.815 118.168 202.135 96.1183 203.671C74.1993 205.199 57.6395 224.159 59.075 246.084C60.5105 268.009 79.4012 284.648 101.332 283.305Z"/><path d="M94.3778 200.666C118.037 198.302 139.126 215.582 141.461 239.244C143.795 262.906 126.489 283.974 102.824 286.279C79.201 288.58 58.1787 271.311 55.8483 247.69C53.518 224.07 70.7604 203.026 94.3778 200.666ZM101.332 283.305C123.394 281.953 140.153 262.926 138.709 240.87C137.265 218.815 118.168 202.135 96.1183 203.671C74.1993 205.199 57.6395 224.159 59.075 246.084C60.5105 268.009 79.4012 284.648 101.332 283.305Z"/><path d="M119.076 225.259C120.289 225.18 120.65 225.016 121.293 226.11C121.227 229.271 106.328 240.059 103.677 242.527C102.707 243.43 102.48 246.106 101.284 247.685C94.1482 250.814 95.4413 245.572 93.3781 242.574C91.9965 240.567 87.2673 236.579 85.2367 234.584C83.3405 232.703 81.5555 231.451 80.4669 229.009C80.5454 228.071 80.3605 228.433 80.8499 227.804C83.7638 226.838 93.7187 237.079 96.4157 239.414C98.1974 239.471 99.1442 239.525 100.895 239.804C106.083 236.474 113.331 228.428 119.076 225.259Z"/><path fill="#515050" d="M97.3244 241.741C98.1238 241.333 99.0825 241.395 99.8221 241.904C100.562 242.412 100.963 243.285 100.869 244.177C100.774 245.07 100.199 245.839 99.3689 246.181C98.1554 246.682 96.763 246.135 96.214 244.943C95.665 243.75 96.155 242.337 97.3244 241.741Z"/><path d="M131.27 241.613C132.796 241.576 134.222 241.584 134.914 243.2C134.606 245.738 131.838 245.511 129.947 245.49C128.395 245.53 127.174 245.636 126.218 244.217C126.111 241.491 129.412 241.644 131.27 241.613Z"/><path d="M68.9062 241.629C70.4355 241.717 71.1839 242.239 71.3908 243.814C70.5715 245.973 67.7856 245.542 65.9375 245.48C64.685 245.508 63.5975 245.389 62.9091 244.213C63.0873 241.369 66.8791 241.641 68.9062 241.629Z"/><path d="M98.0139 206.597C98.6103 206.746 99.4711 206.872 99.7654 207.491C100.708 209.474 100.627 213.91 99.3618 215.624C98.5992 215.577 98.5917 215.573 97.8634 215.337C96.3292 213.557 96.3595 208.363 98.0139 206.597Z"/><path d="M97.7348 270.947C98.4393 270.948 98.5144 270.979 99.21 271.135C101.152 272.609 100.507 277.731 99.4102 279.532C95.7041 279.285 96.3994 272.687 97.7348 270.947Z"/><path d="M68.5128 225.627C70.2463 226.248 72.9966 227.643 73.5543 229.495C73.3446 230.632 73.5757 230.133 72.7964 231.03C70.9828 230.356 68.3972 229.096 67.6446 227.223C67.7304 226.174 67.6316 226.554 68.5128 225.627Z"/><path d="M128.697 227.207C129.411 227.357 129.577 227.588 129.906 228.145C129.705 230.048 126.633 231.489 125.111 232.287C123.97 232.043 123.681 231.6 123.813 230.589C124.975 228.905 126.89 228.102 128.697 227.207Z"/><path d="M124.113 257.153C125.982 257.322 128.532 258.489 129.523 260.194C129.878 260.804 129.425 261.518 129.182 262.096C127.397 261.617 124.854 260.617 123.834 258.984C123.643 258.031 123.728 258.023 124.113 257.153Z"/><path d="M79.8447 213.35C81.6596 214.175 85.0931 217.333 83.4801 219.478C81.4593 219.121 79.4812 217.002 79.0592 214.989C78.9122 214.287 79.4448 213.846 79.8447 213.35Z"/><path d="M114.383 267.595C116.756 267.972 119.27 271.335 118.323 273.906C115.735 273.494 113.312 270.117 114.383 267.595Z"/><path d="M118.404 213.374C119.21 213.559 119.168 213.517 119.708 214.137C120.203 216.042 117.671 218.385 116.135 219.169L115.262 218.74C114.068 216.653 116.923 214.664 118.404 213.374Z"/><path d="M73.1347 257.204C74.0047 257.631 74.1091 257.77 74.2889 258.619C73.6706 260.342 71.0405 261.53 69.4297 262.332C68.514 261.61 68.5192 261.666 68.4109 260.826C69.0285 259.229 71.5437 258.122 73.1347 257.204Z"/><path d="M82.1462 267.685C82.5894 267.828 83.0165 267.986 83.4541 268.144C84.7835 270.102 82.171 272.032 80.7753 273.382C79.948 273.185 79.7624 273.042 79.371 272.473C79.2868 270.93 81.1308 268.99 82.1462 267.685Z"/><path fill="#58A4DC" d="M327.838 334.667C340.401 345.528 358.786 349.42 372.64 338.711L373.616 339.525C371.845 343.869 368.199 348.211 365.216 351.825C347.649 373.105 296.404 383.044 269.829 385.512C285.315 378.882 305.55 365.301 316.241 352.133C320.872 346.43 324.086 340.976 327.838 334.667Z"/><path fill="#F7685B" d="M155.647 87.0238C155.938 85.3032 156.198 83.794 157.247 82.3277C161.128 76.9014 169.354 75.5505 174.783 79.345C178.556 82.2584 178.936 88.7366 176.171 92.2085C170.386 99.4731 154.155 99.2684 155.647 87.0238Z"/><path fill="#E13B35" d="M174.783 79.345C178.556 82.2584 178.936 88.7366 176.171 92.2085C170.386 99.4731 154.155 99.2684 155.647 87.0238C160.621 92.6319 170.27 91.2537 174.445 85.4363C174.805 83.0479 173.997 80.7367 174.783 79.345Z"/><path fill="#E13B35" d="M161.829 99.9314C166.603 100.741 170.978 99.854 174.965 97.035C175.745 96.4947 176.495 95.9107 177.209 95.2859C178.143 101.441 179.761 107.487 181.167 113.547C181.4 114.551 181.619 115.479 181.721 116.51C179.072 122.572 171.899 126.231 167.481 120.128C165.816 115.903 164.161 108.326 162.804 103.65L161.829 99.9314Z"/><path fill="#F7685B" d="M162.804 103.65C164.17 102.503 168.315 102.604 170.262 102.499C171.867 106.333 173.517 114.946 174.425 119.242C170.745 120.409 169.285 119.475 167.481 120.128C165.816 115.903 164.161 108.326 162.804 103.65Z"/><defs><linearGradient id="gradient_0" gradientUnits="userSpaceOnUse" x1="339.63254" y1="99.021965" x2="336.19937" y2="80.665955"><stop offset="0" stop-color="#DD362C"/><stop offset="1" stop-color="#FA5049"/></linearGradient></defs><path fill="url(#gradient_0)" d="M339.113 80.1016C353.73 80.9163 352.284 99.2098 337.341 99.8096C322.408 98.8957 323.555 81.0734 339.113 80.1016Z"/><path fill="#E13B35" d="M182.872 107.663C187.501 109.522 192.763 114.221 191.358 119.593C187.77 133.307 168.161 137.873 159.884 125.825C157.311 120.751 158.482 116.895 162.307 113.015C163.212 116.328 163.996 121.112 166.654 123.355C171.464 127.413 178.231 126.32 182.158 121.573C186.341 116.516 183.383 112.978 182.872 107.663Z"/><path fill="#E13B35" d="M346.912 99.4792C347.684 100.307 349.836 117.991 349.724 120.43C349.546 120.742 349.362 121.051 349.172 121.357C347.902 123.361 345.876 124.768 343.554 125.258C341.081 125.759 338.896 125.065 336.868 123.663C334.234 120.341 333.519 107.234 332.336 102.019C332.724 102.12 333.113 102.216 333.503 102.307C339.004 103.578 342.349 102.33 346.912 99.4792Z"/><path fill="#E13B35" d="M351.948 111.787C353.46 112.263 356.841 115.157 357.534 116.391C363.929 127.776 348.38 137.173 338.47 134.495C333.706 133.208 331.003 131.752 328.448 127.788C325.87 122.619 327.854 118.708 331.442 114.929C331.81 118.787 332.154 122.773 335.133 125.581C337.119 127.433 339.784 128.379 342.493 128.195C347.182 127.905 352.652 124.184 352.58 118.968C352.549 116.671 352.122 114.135 351.948 111.787Z"/><path fill="#EBEAEB" d="M346.08 136.864L346.848 136.814C347.779 137.675 348.982 145.275 348.864 146.814C348.344 147.439 347.631 147.545 346.825 147.802C346.26 147.692 346.374 147.689 345.842 147.402C344.656 145.783 343.742 139.425 343.836 137.387C344.277 136.918 345.283 136.96 346.08 136.864Z"/><path fill="#EBEAEB" d="M178.385 135.067L179.368 134.989C180.667 135.757 182.249 141.743 181.8 143.312C181.693 143.684 181.08 143.917 180.747 144.109C180.047 144.099 179.512 144.037 178.823 143.962C177.976 143.243 176.335 136.004 176.716 135.36L178.385 135.067Z"/><path fill="#71C2F8" d="M372.64 338.711C373.472 337.911 374.45 336.916 375.309 336.175L373.616 339.525L372.64 338.711Z"/></svg>