<?xml version="1.0" encoding="utf-8" ?><svg xmlns="http://www.w3.org/2000/svg" xmlns:xlink="http://www.w3.org/1999/xlink" width="500" height="500" viewBox="0 0 500 500"><path d="M313.023 128.757C311.883 125.978 311.905 123.631 311.015 120.89C310.033 118.857 307.997 117.306 306.745 115.476C305.355 113.445 305.443 109.248 306.475 107.061C312.345 94.6152 334.416 99.8551 327.499 115.471C329.009 118.578 328.844 121.56 329.981 124.492C338.306 128.251 340.643 130.165 339.967 139.965C345.365 140.008 358.667 138.771 362.538 140.327C363.976 151.156 363.825 159.351 363.896 169.998C364.025 181.184 364.078 192.371 364.055 203.558L363.995 235.991C363.969 244.869 363.917 257.011 363.048 265.899C375.566 261.066 383.41 250.757 387.399 238.142C383.462 235.195 379.415 228.111 383.106 223.623C384.198 222.295 385.453 221.635 386.95 220.899C385.984 218.208 380.595 198.074 387.697 201.055C390.66 202.299 392.609 215.617 393.416 219.18C394.499 215.636 398.637 203.096 400.586 202.269C410.162 198.209 400.758 218.565 399.729 220.759L399.614 221.001C400.655 221.537 401.79 222.092 402.799 222.667C405.532 228.003 402.912 235.353 397.532 238.022C395.56 239.001 393.999 239.039 391.845 238.986C386.62 254.949 378.467 264.768 362.67 270.977C362.111 280.344 361.987 289.323 360.921 298.671C360.245 304.598 360.224 307.725 358.556 313.706C356.746 320.054 353.959 326.082 350.293 331.571C337.298 351.33 315.611 358.306 293.856 364.141C289.549 365.297 282.79 366.072 278.981 367.644C279.197 375.352 278.589 385.238 279.284 392.525C282.547 391.474 289.534 389.702 289.386 395.423C289.411 396.169 289.459 396.635 289.544 397.366C290.488 397.735 292.183 397.463 293.257 397.57C295.443 397.788 306.13 398.632 306.374 400.946C305.847 401.716 305.295 401.957 304.429 402.235C298.892 404.012 292.946 403.838 287.202 404.264C279.063 404.869 270.991 405.208 262.842 405.558C257.683 405.78 252.603 406.099 247.429 406.101C244.184 406.103 240.973 405.756 237.735 405.633C229.937 405.334 204.113 404.918 198.312 401.677C197.766 401.371 197.48 401.207 197.319 400.58C198.489 398.504 210.636 397.967 213.096 397.114C213.835 396.858 213.847 396.616 214.053 396.042C214.693 392.109 217.365 390.916 221.041 391.774C222.281 392.056 223.467 392.538 224.553 393.2C224.236 387.201 224.178 379.181 224.322 373.069C202.309 373.23 181.296 373.501 159.372 370.249C154.33 369.501 148.922 369.097 144.078 367.521C143.37 361.108 143.881 349.733 143.73 342.694C143.423 318.645 143.287 294.594 143.321 270.543C131.871 264.88 124.67 259.79 118.754 248.075C117.229 245.056 115.746 241.402 114.291 238.549C110.525 238.245 107.732 237.444 105.232 234.369C102.285 230.745 101.359 225.996 103.648 221.853C104.494 221.436 105.806 220.838 106.563 220.347C105.069 216.911 98.7022 202.741 103.684 200.7C108.479 201.172 112.234 214.572 113.067 218.619C113.499 215.49 115.275 198.768 120.497 200.346C125.161 201.755 120.317 216.659 119.327 220.357C128.888 225.219 124.289 231.772 118.456 237.114C119.478 239.62 120.455 242.267 121.696 244.654C126.409 253.824 133.982 261.208 143.269 265.688L142.457 182.992L142.314 161.793C142.289 158.909 141.866 147.893 142.96 145.878C145.147 144.661 157.923 144.856 161.574 144.636C160.871 137.942 162.064 136.012 166.568 131.159C166.119 129.524 164.874 123.72 164.291 122.718C162.155 119.05 158.866 118.833 159.031 113.385C159.073 111.563 159.559 109.779 160.447 108.187C165.096 99.9711 179.844 100.441 182.124 110.381C182.677 112.788 181.81 115.34 181.063 117.612C181.429 119.357 182.565 126.499 183.919 126.996C192.517 130.155 194.817 134.785 192.645 143.832C197.641 143.84 202.683 143.571 207.687 143.473L260.42 142.081L290.064 141.461C295.351 141.366 302.824 141.466 307.938 140.884C307.998 134.846 309.058 133.153 313.023 128.757ZM274.783 395.38C275.126 392.121 275.182 386.563 275.199 383.206C275.22 378.981 275.496 372.15 275.043 368.122C271.636 368.487 268.463 369.025 265.117 369.416C252.956 370.934 240.74 371.975 228.498 372.538C228.647 380.24 228.686 388.313 229.072 395.974C229.689 396.348 252.257 395.88 254.61 395.86C259.334 395.818 270.653 396.637 274.783 395.38ZM328.615 152.985C328.268 151.907 328.043 150.959 326.826 150.614C325.478 151.675 326.164 153.116 326.575 154.527L327.129 154.71C327.794 154.46 328.188 153.63 328.615 152.985Z"/><path fill="#EFEEEF" d="M274.783 395.38C275.033 400.229 278.124 400.754 282.509 400.571C284.806 400.476 287.39 399.503 288.902 397.759C289.415 397.152 289.35 396.266 289.386 395.423C289.411 396.169 289.459 396.635 289.544 397.366C290.488 397.735 292.183 397.463 293.257 397.57C295.443 397.788 306.13 398.632 306.374 400.946C305.847 401.716 305.295 401.957 304.429 402.235C298.892 404.012 292.946 403.838 287.202 404.264C279.063 404.869 270.991 405.208 262.842 405.558C257.683 405.78 252.603 406.099 247.429 406.101C244.184 406.103 240.973 405.756 237.735 405.633C229.937 405.334 204.113 404.918 198.312 401.677C197.766 401.371 197.48 401.207 197.319 400.58C198.489 398.504 210.636 397.967 213.096 397.114C213.835 396.858 213.847 396.616 214.053 396.042C214.481 397.717 215.018 398.605 216.648 399.598C219.698 401.457 226.209 402.034 228.478 398.63C228.843 398.082 228.988 396.649 229.072 395.974C229.689 396.348 252.257 395.88 254.61 395.86C259.334 395.818 270.653 396.637 274.783 395.38Z"/><path fill="#71C1F1" d="M338.786 142.487C345.936 142.222 353.578 141.952 360.713 141.958C360.922 155.935 361.539 169.786 361.696 183.835C361.989 208.595 361.636 233.359 360.638 258.101C360.125 272.84 359.64 288.404 357.908 302.989C357.437 306.949 355.553 317.552 352.757 319.817C348.122 323.57 340.125 327.007 333.865 326.733C326.834 326.425 321.466 324.178 315.683 320.243C313.684 318.882 311.527 316.726 309.58 315.261C305.49 320.686 301.701 327.255 297.35 332.204C284.994 346.129 269.441 358.286 252.273 365.641C249.183 366.965 245.095 368.715 241.761 368.996C210.861 371.601 176.653 371.387 146.277 365.382C146.153 292.827 145.659 220.274 144.798 147.725C149.526 147.412 158.283 147.039 162.88 147.368C164.908 149.792 165.314 150.395 168.375 152.112C171.134 153.659 174.635 153.217 177.038 154.68C177.234 154.8 177.446 155.676 177.508 155.914C177.562 158.53 178.55 158.264 176.317 160.25C175.935 160.59 177.016 162.567 177.326 163.185C182.038 166.407 189.923 162.681 188.501 156.677C188.366 156.103 186.603 155.915 185.964 155.758C185.103 154.947 185.365 155.165 184.981 153.869L184.787 152.875C185.107 151.841 190.002 147.943 191.435 146.46C197.861 146.63 207.604 146.05 214.224 145.861L256.144 144.724C266.524 144.445 276.906 144.237 287.288 144.101C293.591 143.99 302.326 143.909 308.508 143.33C311.121 148.499 315.386 151.126 321.193 151.248C321.847 151.289 322.183 151.162 322.518 151.665C323.477 153.104 324.05 154.694 324.04 156.381L323.836 156.767C322.718 157.001 322.701 156.799 322.166 157.481C321.625 159.97 324.506 161.825 326.58 162.278C330.77 163.194 337.017 157.818 334.159 153.571C333.819 153.058 332.845 153.245 332.247 153.304C331.424 152.806 331.31 152.125 331.026 151.139C330.962 150.863 330.656 149.951 330.849 149.8C333.968 147.356 336.3 145.718 338.786 142.487Z"/><path fill="#5E98CE" d="M321.193 151.248C321.847 151.289 322.183 151.162 322.518 151.665C323.477 153.104 324.05 154.694 324.04 156.381L323.836 156.767C322.718 157.001 322.701 156.799 322.166 157.481C321.625 159.97 324.506 161.825 326.58 162.278C330.77 163.194 337.017 157.818 334.159 153.571C333.819 153.058 332.845 153.245 332.247 153.304C331.424 152.806 331.31 152.125 331.026 151.139C333.001 151.497 337.689 153.709 338.464 155.627C341.338 162.741 329.758 167.447 324.314 164.909C321.691 163.8 319.437 162.023 318.095 159.466C316.162 155.783 320.923 153.001 321.193 151.248Z"/><path fill="#5E98CE" d="M184.981 153.869C192.718 154.452 196.741 159.995 190.307 165.29C184.547 170.03 170.358 169.288 173.395 158.524C175.012 157.122 175.451 156.708 177.508 155.914C177.562 158.53 178.55 158.264 176.317 160.25C175.935 160.59 177.016 162.567 177.326 163.185C182.038 166.407 189.923 162.681 188.501 156.677C188.366 156.103 186.603 155.915 185.964 155.758C185.103 154.947 185.365 155.165 184.981 153.869Z"/><path fill="#E75E45" d="M287.684 252.108C298.915 251.59 302.505 264.297 288.559 267.052C274.498 266.389 274.427 252.749 287.684 252.108Z"/><path fill="#FEC899" d="M292.584 254.877C292.818 254.908 293.076 255.038 293.31 255.132C294.103 257.308 290.575 261.329 289.211 262.882C285.384 262.221 291.628 255.847 292.584 254.877Z"/><path fill="#FEC899" d="M285.391 255.599C289.334 256.164 283.658 261.956 282.671 262.993L282.183 263.226L281.814 263.014C281.471 261.158 284.305 257.228 285.391 255.599Z"/><path fill="#E75E45" d="M212.048 254.845C225.327 254.345 224.968 268.44 214.081 269.834C200.668 269.601 198.867 256.353 212.048 254.845Z"/><path fill="#FEC899" d="M211.473 258.165C214.036 259.781 208.901 264.967 207.662 266.238C207.448 266.209 207.284 266.087 207.071 265.974C206.419 263.936 210.189 259.6 211.473 258.165Z"/><path fill="#FEC899" d="M217.894 257.895C219.977 259.456 215.79 264.444 214.452 265.688C212.464 263.471 216.359 259.598 217.894 257.895Z"/><path d="M276.965 230.027C287.561 229.662 287.708 245.784 280.254 250.078C270.213 249.106 268.535 234.284 276.965 230.027Z"/><path d="M219.811 232.246C230.272 232.233 231.107 247.117 223.402 252.165C215.532 254.568 210.934 237.676 219.811 232.246Z"/><path d="M219.491 219.816C221.363 219.707 223.185 220.073 225.129 220.74C227.138 221.43 231.885 223.615 230.263 226.519C228.85 229.048 224.315 225.32 222.654 224.631C220.688 223.814 218.904 224.411 216.882 225.148C214.274 226.924 211.879 231.167 209.131 231.027C207.216 229.803 208.451 226.994 209.5 225.532C211.979 222.073 215.408 220.565 219.491 219.816Z"/><path d="M277.569 219.782C280.312 219.61 282.117 219.693 284.718 220.808C287.41 222.012 289.909 223.984 291.032 226.784C291.539 228.011 291.635 230.722 289.702 230.647C288.592 230.605 287.693 229.639 287.078 228.793C286.394 227.85 285.691 227.036 284.819 226.214C277.834 220.921 274.555 227.516 270.479 227.384C269.366 226.758 268.696 225.264 269.379 224.13C270.962 221.503 274.77 220.497 277.569 219.782Z"/><path d="M240.432 252.093C245.464 254.032 242.886 261.081 251.078 259.963C257.19 259.129 255.021 254.084 258.521 252.002C260.588 252.12 260.596 255.075 260.274 256.62C255.176 270.088 234.842 261.289 240.432 252.093Z"/><path fill="#5E98CE" d="M310.279 319.609C310.625 319.707 310.461 319.627 310.727 319.815C316.89 324.16 322.072 328.435 329.799 329.439C338.762 330.603 343.308 328.605 350.986 324.353C350.499 325.224 350.006 326.091 349.506 326.955C343.958 336.537 340.445 340.445 331.169 346.313C319.161 353.908 307.704 357.764 294.066 361.402C282.756 364.313 266.331 366.774 254.653 367.819C258.761 365.376 263.469 363.723 267.359 361.238C281.331 352.314 295.66 341.112 304.705 327.03C306.323 324.511 308.416 321.977 310.279 319.609Z"/><path fill="#E75E45" d="M325.252 117.992C326.883 119.274 329.594 134.014 329.787 136.775C327.043 140.022 323.899 141.175 319.894 139.439C316.607 135.271 314.849 126.555 313.951 121.223C319.762 121.349 320.677 121.523 325.252 117.992Z"/><path fill="#EFEEEF" d="M318.341 122.356C321.743 123.615 322.882 131.625 322.738 134.901C322.698 135.797 322.404 135.87 321.771 136.384C318.715 135.152 317.171 127.337 317.011 124.28C316.963 123.355 317.729 122.858 318.341 122.356Z"/><path fill="#E75E45" d="M178.543 120.701L178.699 120.755C180.056 122.078 182.706 135.901 182.958 138.312C183.151 140.155 180.179 142.403 178.393 142.709C175.93 143.13 175.269 143.014 173.098 141.764C170.757 139.234 168.008 127.431 167.156 123.546C167.388 123.576 167.621 123.602 167.854 123.624C172.064 124.021 175.237 123.394 178.543 120.701Z"/><path fill="#EFEEEF" d="M171.424 125.174C173.165 125.279 173.701 125.814 174.28 127.511C175.345 130.63 176.319 134.101 176.726 137.379C176.81 138.058 175.885 138.529 175.398 138.902L174.722 138.813C172.353 136.523 170.997 130.684 170.652 127.404C170.532 126.261 170.727 125.986 171.424 125.174Z"/><path fill="#E13F2B" d="M164.026 108.042C166.308 105.922 168.484 105.39 171.455 105.444C184.481 105.772 180.162 122.43 168.952 120.576C161.885 119.408 159.467 113.69 164.026 108.042Z"/><path fill="#E75E45" d="M164.026 108.042C166.308 105.922 168.484 105.39 171.455 105.444C173.621 106.172 174.692 107.825 173.987 110.155C172.852 113.907 166.461 115.582 164.743 111.362C164.276 110.216 164.752 109.576 164.026 108.042Z"/><path fill="#E13F2B" d="M309.715 106.845C312.405 103.948 315.149 103.012 318.971 102.983C320.864 103.18 323.45 103.95 324.507 105.631C330.788 115.623 315.46 123.26 309.193 114.653C307.556 112.404 308.274 109.108 309.715 106.845Z"/><path fill="#E75E45" d="M309.715 106.845C312.405 103.948 315.149 103.012 318.971 102.983C319.586 105.022 321.874 105.726 320.597 108.403C319.231 111.264 314.739 112.006 312.153 110.567C310.708 109.763 310.645 108.167 309.715 106.845Z"/><path fill="#E13F2B" d="M331.14 127.88C333.223 128.52 335.552 130.477 336.624 132.363C337.732 134.27 337.982 136.555 337.314 138.656C334.121 149.047 316.571 152.659 311.1 142.005C309.672 137.753 311.078 135.66 313.443 132.329C313.997 133.868 314.869 135.939 315.31 137.528C317.704 146.156 330.555 144.481 332.621 136.65C333.191 134.491 331.746 130.242 331.14 127.88Z"/><path fill="#E13F2B" d="M184.067 129.879C186.163 130.719 187.273 131.15 188.769 132.896C190.392 135.679 191.785 137.731 190.73 141.093C188.097 149.485 178.128 152.251 170.545 149.908C171.149 148.616 172.353 147.708 172.7 146.535C172.923 145.783 172.795 146.081 173.269 145.336C179.992 147.301 188.186 143.064 185.712 135.343C184.924 133.711 184.509 131.662 184.067 129.879Z"/><path fill="#E75E45" d="M184.067 129.879C186.163 130.719 187.273 131.15 188.769 132.896C187.766 133.732 186.747 134.547 185.712 135.343C184.924 133.711 184.509 131.662 184.067 129.879Z"/><path fill="#E75E45" d="M166.997 134.747C168.509 139.461 168.89 142.826 173.269 145.336C172.795 146.081 172.923 145.783 172.7 146.535C172.353 147.708 171.149 148.616 170.545 149.908C163.89 146.967 161.822 140.194 166.997 134.747Z"/><path fill="#EFEEEF" d="M179.791 153.128L181.009 153.28C183.069 154.564 184.27 159.291 183.345 161.557C182.711 161.629 182.123 161.714 181.728 161.132C180.433 159.22 179.562 155.349 179.791 153.128Z"/><path fill="#EFEEEF" d="M328.615 152.985C329.01 154.21 330.879 158.936 328.741 159.283C327.22 158.475 326.522 156.12 326.575 154.527L327.129 154.71C327.794 154.46 328.188 153.63 328.615 152.985Z"/></svg>