<?xml version="1.0" encoding="utf-8" ?><svg xmlns="http://www.w3.org/2000/svg" xmlns:xlink="http://www.w3.org/1999/xlink" width="1024" height="1024" viewBox="0 0 1024 1024"><path fill="white" d="M0 0L1024 0L1024 1024L0 1024L0 0Z"/><path fill="#070607" d="M636.29 245.957C628.301 238.62 623.306 233.003 626.856 221.053C632.989 201.085 664.127 198.358 672.582 217.917C675.47 224.597 673.778 230.071 671.221 236.339C673.346 242.559 674.566 248.687 676.022 255.098C692.264 260.45 699.246 268.922 696.201 286.488C705.216 286.29 714.23 286.011 723.241 285.653C728.099 285.491 738.906 284.345 742.491 287.24C744.692 292.285 744.753 317.446 744.971 324.949C746.375 376.511 746.645 428.097 745.781 479.671C745.338 500.806 745.026 523.466 743.63 544.535C765.622 536.59 777.64 520.216 788.394 500.771L790.605 495.383L793.411 487.859C781.574 478.306 773.525 459.498 792.049 452.719C790.695 445.656 783.76 420.063 786.216 414.77C787.027 413.023 788.374 411.636 790.262 411.116C791.768 410.7 793.263 410.927 794.579 411.785C801.264 416.147 803.938 440.118 805.495 448.328C808.102 442.197 815.638 415.822 820.04 413.972C840.82 405.239 821.322 445.687 818.942 452.574C825.045 455.174 827.058 456.756 827.627 463.51C827.455 467.012 827.28 468.741 826.662 472.186C823.828 479.578 819.256 487.866 810.475 489.03C808.101 489.848 805.504 489.689 802.947 489.735C801.908 492.752 800.926 495.802 799.661 498.728C789.358 523.027 773.708 542.832 748.59 553.108C746.779 553.856 744.94 554.536 743.078 555.146C742.474 569.366 741.651 583.576 740.61 597.77C739.824 608.776 739.192 618.751 737.402 629.656C733.052 656.165 718.601 683.695 698.596 701.868C671.769 726.239 631.803 738.213 597.393 747.283C589.174 749.45 579.902 750.656 571.765 752.757C572.406 769.583 571.24 787.614 572.007 803.938C581.841 799.093 594.671 798.988 592.851 813.337C597.834 814.266 630.084 815.275 629.159 821.693C628.691 822.085 628.277 822.424 627.724 822.693C605.738 833.393 432.499 834.267 405.979 823.813C404.379 823.182 403.088 822.549 402.364 820.916C405.045 815.277 432.023 815.633 437.579 813.481C437.898 812.048 437.944 811.5 438.072 810.071C438.394 809.246 438.737 808.43 439.1 807.622C443.424 798.191 452.637 801.555 459.73 805.014C459.413 791.604 459.511 777.685 459.434 764.234C409.899 765.412 362.516 764.797 313.428 756.814C308.328 755.985 298.918 755.549 295.134 752.612C293.34 747.563 294.007 725.615 293.94 718.753C293.561 694.507 293.412 670.258 293.491 646.009L292.959 553.875C259.728 539.019 247.19 520.905 233.968 488.334C230.749 488.445 227.843 488.333 224.564 487.211C214.406 483.737 206.355 468.307 210.19 458.011C211.573 454.298 214.393 452.957 217.963 451.599C215.545 444.021 201.21 415.261 211.492 411.549C212.968 411 214.606 411.091 216.012 411.801C223.045 415.264 228.691 438.247 231.09 446.204C232.948 438.583 235.74 416.062 241.513 411.675C243.101 410.467 245.462 409.803 247.429 410.307C248.762 410.648 249.624 411.494 250.337 412.625C254.208 418.767 246.481 443.887 244.746 451.309C262.895 459.174 256.114 476.066 243.174 485.412L243.312 485.861C251.319 511.082 269.219 531.974 292.915 543.752C291.726 484.343 291.781 423.144 291.542 363.612L291.384 325.685C291.327 318.554 290.556 304.914 292.004 298.626C293.068 297.564 294.832 296.86 296.304 296.767C307.658 296.043 319.314 296.667 330.692 296.025C329.13 282.951 331.805 277.848 340.656 268.498C339.378 262.623 337.613 256.421 336.251 250.383C327.151 243.557 322.589 235.556 327.148 224.321C338.146 197.214 385.983 209.846 370.898 241.105C372.865 247.53 373.66 253.529 376.019 260.046C376.175 260.086 376.331 260.125 376.487 260.164L377.262 260.377C394.051 264.918 399.926 278.227 395.006 294.49C420.059 292.991 449.537 293.061 474.934 292.365L630.396 288.359C630.35 276.098 632.774 272.597 640.614 263.645C638.942 259.467 637.281 250.632 636.29 245.957Z"/><path fill="white" d="M468.151 763.507C499.952 761.748 531.664 758.641 563.201 754.194C563.693 771.003 563.158 794.321 562.54 811.232C562.361 819.73 570.517 820.277 577.179 820.132C583.303 819.999 589.33 818.699 592.851 813.337C597.834 814.266 630.084 815.275 629.159 821.693C628.691 822.085 628.277 822.424 627.724 822.693C605.738 833.393 432.499 834.267 405.979 823.813C404.379 823.182 403.088 822.549 402.364 820.916C405.045 815.277 432.023 815.633 437.579 813.481C437.898 812.048 437.944 811.5 438.072 810.071C438.543 813.489 438.774 815.182 441.628 817.281C446.759 821.054 455.013 821.829 461.186 820.696C466.581 819.705 469.198 817.275 468.981 811.811L468.151 763.507Z"/><path fill="#EDEDED" d="M592.851 813.337C597.834 814.266 630.084 815.275 629.159 821.693C628.691 822.085 628.277 822.424 627.724 822.693C605.738 833.393 432.499 834.267 405.979 823.813C404.379 823.182 403.088 822.549 402.364 820.916C405.045 815.277 432.023 815.633 437.579 813.481C437.898 812.048 437.944 811.5 438.072 810.071C438.543 813.489 438.774 815.182 441.628 817.281C446.759 821.054 455.013 821.829 461.186 820.696C466.581 819.705 469.198 817.275 468.981 811.811C472.433 810.9 491.082 811.007 495.759 810.944C517.315 810.653 541.054 809.883 562.54 811.232C562.361 819.73 570.517 820.277 577.179 820.132C583.303 819.999 589.33 818.699 592.851 813.337Z"/><path fill="#252325" d="M799.661 498.728C797.263 495.69 796.029 497.238 794.341 495.138C795.898 493.02 801.633 487.141 803.791 485.689C803.221 487.248 803.256 486.693 803.26 488.268C805.975 489.636 808.427 487.666 810.475 489.03C808.101 489.848 805.504 489.689 802.947 489.735C801.908 492.752 800.926 495.802 799.661 498.728Z"/><path fill="#252325" d="M821.325 467.709C823.66 465.239 824.392 464.159 827.627 463.51C827.455 467.012 827.28 468.741 826.662 472.186C824.572 469.876 823.844 469.431 821.325 467.709Z"/><path fill="#252325" d="M788.394 500.771L790.605 495.383C792.601 495.838 793.238 495.952 794.673 497.499L794.774 499.081C791.66 501.759 791.822 500.479 788.394 500.771Z"/><path fill="#72C1F3" d="M693.456 292.03C708.332 291.321 723.252 291.49 738.282 290.806C741.762 383.622 741.221 476.546 736.66 569.316C735.277 593.742 734.607 627.471 725.83 650.476C723.637 656.223 708.465 664.329 702.229 666.539C682.895 673.393 663.904 668.168 647.506 656.663C643.261 653.684 638.454 648.06 634.225 646.037C632.155 647.337 622.618 662.694 619.981 666.25C615.842 671.89 611.466 677.351 606.865 682.62C591.202 700.489 573.137 716.099 553.187 729.005C539.495 737.796 517.73 749.614 502.174 755.032C498.578 756.285 477.959 757.239 473.016 757.537C425.273 760.848 377.32 759.46 329.849 753.395C320.185 752.115 309.128 750.843 299.694 748.801C299.274 737.367 299.596 723.892 299.577 712.245L299.397 629.641L296.758 302.5L297.503 302.463C306.23 302.063 324.341 301.055 333.812 301.835C334.261 302.246 334.71 302.656 335.159 303.067C338.683 308.264 343.187 311.004 348.978 313.136C352.537 313.994 361.054 314.508 362.453 316.189L362.938 318.562C363.448 320.582 364.639 324.416 364.413 326.296C362.811 326.308 362.665 326.262 361.054 326.665C360.474 327.59 360.274 327.434 360.364 328.546C360.911 335.339 367.86 337.525 373.527 336.955C377.499 336.547 381.137 334.549 383.613 331.416C386.01 328.435 388.45 321.321 384.986 318.547C383.421 319.113 382.517 319.673 380.97 319.177C379.441 317.587 379.615 316.8 378.989 314.481C378.715 313.398 378.656 312.727 378.525 311.613C379.41 310.348 384.545 307.232 386.371 305.484C388.423 303.519 389.797 302.148 391.768 299.942L549.895 295.868C576.538 295.142 605.661 295.276 632.064 293.69C637.233 304.071 644.996 308.422 656.196 309.495C657.798 309.457 660.084 309.008 660.795 310.204C662.68 313.378 664.625 318.315 664.095 321.901C661.421 321.353 661.782 320.995 659.97 322.005C658.019 325.954 662.577 330.048 665.875 331.475C669.586 333.048 673.775 333.058 677.493 331.503C685.748 328.008 689.001 314.258 682.475 313.024C681.3 313.828 681.409 313.829 680.128 314.379C678.993 312.838 678.183 309.454 677.591 307.484C677.101 306.014 678.753 305.351 679.935 304.741C685.841 301.693 689.521 297.248 693.456 292.03Z"/><path fill="#5D98CF" d="M677.591 307.484C683.096 311.213 692.976 313.464 694.325 321.304C696.021 331.163 683.813 337.929 675.521 338.952C663.156 341.262 643.669 328.862 652.701 315.211C653.843 313.484 657.748 312.17 658.64 310.263L656.196 309.495C657.798 309.457 660.084 309.008 660.795 310.204C662.68 313.378 664.625 318.315 664.095 321.901C661.421 321.353 661.782 320.995 659.97 322.005C658.019 325.954 662.577 330.048 665.875 331.475C669.586 333.048 673.775 333.058 677.493 331.503C685.748 328.008 689.001 314.258 682.475 313.024C681.3 313.828 681.409 313.829 680.128 314.379C678.993 312.838 678.183 309.454 677.591 307.484Z"/><path fill="#5D98CF" d="M378.989 314.481C381.409 314.604 383.226 314.715 385.521 315.305C390.956 316.704 396.6 323.165 395.86 328.985C394.415 340.342 378.486 345.68 368.47 344.169C361.635 343.138 356.845 340.037 353.563 334.272C353.485 331.387 353.296 325.962 355.599 324.004C357.197 322.644 360.482 319.892 362.433 319.243L362.938 318.562C363.448 320.582 364.639 324.416 364.413 326.296C362.811 326.308 362.665 326.262 361.054 326.665C360.474 327.59 360.274 327.434 360.364 328.546C360.911 335.339 367.86 337.525 373.527 336.955C377.499 336.547 381.137 334.549 383.613 331.416C386.01 328.435 388.45 321.321 384.986 318.547C383.421 319.113 382.517 319.673 380.97 319.177C379.441 317.587 379.615 316.8 378.989 314.481Z"/><path fill="#E85E42" d="M587.773 516.189C611.629 514.237 620.152 541.214 592.185 547.081C564.087 547.767 558.993 519.122 587.773 516.189Z"/><path fill="#FCC893" d="M598.387 522.232L600.004 522.653C600.56 523.19 601.114 523.468 601.03 524.077C600.55 527.566 594.882 536.137 592.731 538.769L590.847 538.254C586.836 534.273 595.655 525.484 598.387 522.232Z"/><path fill="#FCC893" d="M584.911 523.146C586.753 523.739 586.77 523.985 587.658 525.216C587.976 528.893 582.14 535.941 579.727 539.303C578.638 539.584 578.713 539.554 577.618 539.261L577.099 538.267C577.346 533.952 582.42 526.78 584.911 523.146Z"/><path fill="#E85E42" d="M432.979 521.653C445.077 520.38 453.239 524.752 456.237 536.83C453.921 546.942 448.866 550.263 439.128 552.428C429.482 553.025 417.951 549.795 416.197 538.775C415.634 535.232 416.538 531.614 418.701 528.752C422.289 523.962 427.425 522.526 432.979 521.653Z"/><path fill="#FCC893" d="M432.253 528.679C439.426 530.112 428.304 542.813 426.103 545.257C424.181 544.864 424.858 545.351 423.77 544.127C423.388 540.726 430.018 531.96 432.253 528.679Z"/><path fill="#FCC893" d="M445.283 528.176C447.418 528.906 446.769 528.242 447.676 529.819C447.466 533.715 442.494 540.798 439.936 543.738C437.86 543.317 438.161 543.368 437.348 542.148C437.516 538.353 442.868 531.335 445.283 528.176Z"/><path fill="#070607" d="M567.009 471.081C573.586 470.616 579.801 472.835 582.344 479.229C586.777 490.379 586.031 506.351 573.973 511.949C554.42 513.14 549.273 478.498 567.009 471.081Z"/><path fill="#070607" d="M451.725 475.589C472.049 474.949 472.894 510.478 456.686 516.706C439.506 517.429 436.767 493.992 442.722 482.126C444.603 478.377 447.809 476.646 451.725 475.589Z"/><path fill="#070607" d="M449.239 450.652C452.182 450.485 455.134 450.75 457.999 451.441C462.777 452.597 479.255 459.408 469.27 465.782C467.031 467.212 460.887 462.277 458.418 461.013C453.844 458.671 449.907 459.474 445.079 460.777C441.105 462.501 439.79 463.494 437.221 467.027C434.89 470.235 431.633 474.976 427.097 472.19C422.981 466.086 432.823 456.775 437.772 454.257C442.039 452.086 444.621 451.444 449.239 450.652Z"/><path fill="#070607" d="M567.676 450.6C575.488 449.989 581.851 450.846 588.47 455.513C592.789 458.558 599.813 465.988 595.834 471.425C590.307 474.877 587.55 466.617 584.138 463.504C567.5 452.316 561.274 466.53 554.09 465.841C552.952 465.205 551.988 464.768 551.595 463.416C549.292 455.491 562.806 451.715 567.676 450.6Z"/><path fill="#070607" d="M527.552 516.426C532.429 516.33 534.637 519.526 533.2 523.715C526.222 544.059 504.017 545.928 492.705 528.773C492.398 528.248 492.107 527.713 491.832 527.17C490.346 524.198 489.178 517.869 493.303 516.696C501.079 518.488 498.268 528.239 505.448 531.012C510.723 533.049 517.546 532.379 521.728 528.353C525.466 524.756 524.271 520.489 527.552 516.426Z"/><path fill="#5D98CF" d="M635.439 653.847C649.202 665.082 658.849 673.015 677.329 675.119C694.059 677.024 704.68 673.006 718.691 664.655C697.521 710.28 647.171 728.274 601.643 739.889C575.37 746.776 548.556 751.408 521.495 753.734C528.201 749.111 543.05 742.77 551.296 737.418C589.057 712.909 611.368 691.11 635.439 653.847Z"/><path fill="#E85E42" d="M666.579 241.944L667.074 242.324C669.013 247.65 676.496 274.155 675.331 280.286C675.044 281.796 670.995 285.434 668.735 286.203C663.095 288.121 660.226 288.18 654.808 285.952C649.963 281.863 643.819 255.382 642.733 248.452C653.766 248.787 657.571 249.082 666.579 241.944Z"/><path fill="white" d="M651.608 250.884C652.787 251.12 654.547 251.532 655.273 253.037C658.1 258.899 661.8 270.486 661.164 276.935C661.048 278.104 659.403 278.704 658.486 279.181C657.662 278.896 656.417 278.436 655.9 277.769C653.02 274.047 648.898 258.052 648.645 254.052C649.099 252.391 650.167 251.923 651.608 250.884Z"/><path fill="#E85E42" d="M341.902 253.08C352.546 254.313 357.72 253.168 366.681 246.918C369.131 254.549 371.159 262.31 372.754 270.164L373.43 273.634C374.072 277.184 375.977 283.445 374.284 286.458C370.047 294.023 355.625 296.08 351.784 286.949C347.326 276.354 345.771 264.137 341.902 253.08Z"/><path fill="white" d="M350.923 256.49C353.307 256.565 353.474 256.328 355.217 257.493C357.233 261.516 360.759 276.402 361.606 281.54C361.845 282.991 360.624 283.546 359.427 284.581C358.532 284.481 356.808 284.479 356.129 283.406C352.403 277.514 350.196 266.66 349.127 259.746C348.906 258.319 350.218 257.247 350.923 256.49Z"/><path fill="#E03E27" d="M341.297 217.266C356.164 211.462 373.678 220.677 366.146 237.507C358.54 254.503 322.294 249.259 333.65 224.081C336.209 220.271 337.434 219.479 341.297 217.266Z"/><path fill="#E85E42" d="M343.645 218.063C369.509 213.478 351.07 243.912 336.851 227.428C336.965 221.909 339.126 220.45 343.645 218.063Z"/><path fill="#E03E27" d="M649.884 210.672C653.451 210.583 658.081 211.504 661.163 213.301C664.533 215.241 666.936 218.505 667.785 222.3C669.468 229.606 665.274 236.755 658.948 240.229C656.019 241.838 653.352 242.211 650.126 242.758C645.989 243.106 641.48 242.271 638.005 239.919C634.693 237.676 632.472 234.148 631.881 230.192C630.068 218.556 639.52 211.997 649.884 210.672Z"/><path fill="#E85E42" d="M649.344 213.174C660.224 212.888 659.561 227.605 644.632 227.688C640.62 226.621 632.806 223.414 636.966 217.866C639.711 214.205 645.135 213.824 649.344 213.174Z"/><path fill="#E03E27" d="M677.978 261.62C682.342 262.918 687.069 266.9 689.281 270.849C695.691 282.294 686.447 295.216 676.16 300.368C668.139 304.468 658.802 305.153 650.269 302.266C643.658 299.973 640.026 296.903 637.006 290.666C634.621 282.594 636.996 276.707 642.511 270.701C644.46 277.645 645.301 287.013 651.797 290.938C665.579 299.267 687.356 287.459 680.48 270.308C679.527 267.932 678.647 264.144 677.978 261.62Z"/><path fill="#E03E27" d="M377.607 266.013C380.109 267.434 382.642 268.799 385.204 270.109L385.693 269.83L386.207 270.34L385.749 271.582C394.5 282.075 392.289 292.685 381.909 301.55C373.11 309.065 359.523 310.308 348.682 306.765L348.128 306.428C351.92 303.412 354.107 302.504 353.894 297.326C363.132 301.235 375.012 298.1 380.07 288.76C382.563 284.154 381.623 280.403 379.983 275.737L379.766 274.45L378.799 271.037L377.607 266.013Z"/><path fill="#E85E42" d="M377.607 266.013C380.109 267.434 382.642 268.799 385.204 270.109L385.693 269.83L386.207 270.34L385.749 271.582C384.801 273.492 384.789 273.611 383.139 274.875C380.906 275.347 381.997 275.421 379.766 274.45L378.799 271.037L377.607 266.013Z"/><path fill="#E85E42" d="M338.88 299.439C334.901 290.719 335.608 283.158 341.955 275.715C345.054 284.883 344.866 292.26 353.894 297.326C354.107 302.504 351.92 303.412 348.128 306.428C343.513 304.36 342.535 302.74 338.88 299.439Z"/><path fill="#EDEDED" d="M668.367 308.41C669.409 308.479 670.493 308.596 671.538 308.692C672.048 309.333 672.313 309.52 672.49 310.283C673.445 314.403 677.248 322.884 675.577 326.62C673.911 326.651 673.557 326.618 671.981 326.403C670.238 324.186 668.433 314.675 667.608 311.463C667.182 309.807 667.591 309.429 668.367 308.41Z"/><path fill="#EDEDED" d="M369.632 313.271C370.524 313.313 372.074 313.289 372.504 314.144C374.809 318.728 376.705 324.474 376.554 329.636C376.534 330.308 375.121 330.936 374.549 331.293C373.943 331.313 373.347 331.227 372.734 331.171C370.703 328.663 368.681 319.188 368.335 315.765C368.184 314.267 368.569 314.38 369.632 313.271Z"/><path fill="#252325" d="M372.754 270.164C374.18 269.324 376.223 267.232 377.607 266.013L378.799 271.037L376.376 271.584C375.421 272.3 374.475 273.1 373.43 273.634L372.754 270.164Z"/><path fill="#252325" d="M376.376 271.584L378.799 271.037L379.766 274.45L379.983 275.737C378.102 276.229 378.144 276.582 376.78 275.947C376.503 274.314 376.46 273.215 376.376 271.584Z"/></svg>