<?xml version="1.0" encoding="utf-8" ?><svg xmlns="http://www.w3.org/2000/svg" xmlns:xlink="http://www.w3.org/1999/xlink" width="206" height="200" viewBox="0 0 206 200"><path transform="scale(0.407115 0.40568)" d="M129.077 5.56164C137.576 4.74877 146.137 9.13623 149.018 17.747C150.243 21.4068 148.867 25.5193 146.781 28.5717C144.75 31.5425 145.468 34.6772 145.596 38.0537C145.699 40.4528 145.808 42.7499 146.471 45.0856L146.568 45.4161C151.184 47.7038 154.527 49.6144 157.105 54.3262C160.772 61.0255 158.12 66.5034 156.196 73.0195C161.047 74.1419 170.453 74.5037 176.23 75.3463L345.921 98.9768C360.869 101.05 376.035 102.462 390.988 104.573C395.405 105.241 400.409 105.405 404.761 106.264C409.232 107.147 412.112 107.364 411.919 112.438C411.461 124.535 409.017 136.801 407.524 148.722C402.744 184.948 397.265 221.078 391.09 257.092C388.661 270.75 386.137 284.434 383.25 298.003C382.387 302.061 381.403 306.333 380.951 310.445C382.805 312.769 384.859 314.914 386.418 317.466C395.756 332.753 398.16 352.744 397.877 370.351C397.835 373.014 397.752 375.721 397.507 378.373C397.282 380.802 396.648 383.534 396.902 385.958C397.301 389.761 403.227 390.298 402.851 400.372C402.615 406.667 401.058 414.386 396.171 418.804C394.339 420.46 391.871 421.701 389.343 421.512C387.593 421.381 386.198 420.478 385.12 419.127C381.65 414.778 382.927 407.279 383.423 402.09C380.61 403.146 377.522 405.579 374.916 402.785C374.458 402.293 374.032 401.283 374.202 400.637C375.969 393.946 384.651 390.315 389.517 386.492L389.799 386.268C390.262 383.849 390.414 379.877 390.522 377.275C390.659 373.972 391.29 369.636 391.201 366.427C390.888 355.109 389.318 342.067 385.763 331.285C384.559 327.634 381.141 321.796 379.172 318.391C377.64 323.356 376.564 330.461 375.611 335.693C371.92 355.96 364.826 374.317 351.476 390.331C335.694 409.262 313.322 417.35 289.753 422.176C281.4 423.942 272.966 425.304 264.481 426.256C259.37 426.852 254.151 427.136 249.024 427.565C245.422 427.866 240.762 427.689 237.355 428.607L236.965 428.714C236.505 431.801 236.244 435.154 235.787 438.353C234.493 447.421 232.558 457.469 232.072 466.549C238.405 466.1 248.893 464.358 245.825 474.813C244.192 477.949 242.152 478.839 238.716 478.897C234.827 478.963 229.678 478.933 226.652 475.976C224.003 473.386 225.815 466.479 226.051 463.216C227.02 453.958 228.973 444.946 230.243 435.734C230.572 433.347 231.052 431.537 231.011 429.09L231.002 428.656C225.932 428.654 219.739 428.981 214.756 428.542C206.988 427.858 199.387 428.235 191.705 427.836L172.496 426.756C168.627 426.563 164.508 426.172 160.675 426.594C159.403 427.954 157.508 451.34 156.472 454.937C155.47 458.418 156.293 462.768 153.79 466.851C150.231 469.131 146.088 468.916 142.243 467.623C136.195 465.587 133.322 462.346 135.68 456.035C141.238 451.356 144.356 454.369 150.075 456.977C151.11 450.692 151.92 444.726 152.638 438.409C153.119 434.186 154.131 430.187 154.333 425.809C147.857 424.689 141.079 424.363 134.54 423.424C106.387 419.383 78.3723 414.593 51.1901 406.014C44.773 403.989 39.5175 402.446 33.4657 399.44C32.2267 391.615 34.8296 381.279 35.866 373.344C36.6589 367.274 37.4198 361.189 38.4373 355.151C39.1829 350.726 39.3886 346.329 39.9507 341.89L44.7832 305.222C45.5057 300.061 46.2725 294.906 47.0837 289.759C47.8537 285.042 48.865 279.515 49.2075 274.78L48.9732 274.959C35.9696 284.98 27.1263 308.765 24.0549 324.394C23.3486 327.988 21.5754 331.474 22.3264 335.094C25.7344 338.911 34.0869 347.876 32.7578 353.962C32.6144 354.619 31.2669 355.148 30.6223 355.444C27.6879 354.382 26.11 352.791 23.9711 352.121C22.14 353.719 22.7097 367.185 16.5125 368.153C14.443 368.476 12.0531 369.063 10.1397 367.817C5.2483 364.631 4.74165 358.527 4.92985 353.231C5.04509 348.04 5.07236 344.975 7.35922 340.331C9.57467 335.832 11.6757 335.439 15.3701 332.72C16.1554 329.582 16.3683 325.709 17.0523 322.382C21.0355 303.004 33.4905 275.362 50.3835 264.27C51.4475 261.256 51.3905 257.493 51.9014 254.3C54.4707 238.243 56.6739 222.011 58.9246 205.905L69.6865 132.542C70.2379 128.882 71.0158 125.251 71.5569 121.548L76.9153 84.9946C77.7838 79.1593 78.6454 69.7988 80.6781 64.6103C82.9865 62.841 105.986 67.0552 110.102 67.4755C110.568 57.3602 111.827 53.7378 120.42 48.0979C120.407 45.0394 120.711 35.7342 119.541 33.2529C117.681 30.0265 114.993 28.476 114.432 24.5052C113.062 14.8265 119.897 7.27618 129.077 5.56164ZM184.763 336.489C185.795 337.625 186.082 338.216 187.315 339.184L187.565 339.096C186.973 337.816 186.232 337.16 185.272 336.13L184.763 336.489Z"/><path fill="#79B9E9" transform="scale(0.407115 0.40568)" d="M83.8088 68.1667C88.8991 68.5168 94.4352 69.2908 99.5474 69.8488C102.978 70.2233 107.891 70.5087 111.114 71.1414L111.32 71.393C113.978 74.6882 115.884 78.8997 119.802 80.9521C122.866 82.5568 126.541 83.3399 129.907 84.0854C130.178 85.8325 131.095 91.9815 130.573 93.4372C130.027 93.1133 129.714 92.9266 129.13 92.6553C124.795 94.0244 129.859 105.849 141.761 99.1258L142.062 98.9532C145.024 96.3174 151.024 87.6057 142.714 89.0633C142.207 86.8911 142.015 85.6393 141.764 83.4132C142.274 83.1519 143.157 82.8085 143.713 82.5739C148.154 80.5861 149.989 78.1885 153.541 76.4167L398.001 109.512C401.528 109.957 405.118 110.114 408.611 110.545C407.589 117.294 406.52 124.096 405.6 130.855C404.915 135.893 404.524 141.06 403.854 146.116C401.64 163.741 399.104 181.323 396.248 198.855C392.865 220.56 389.27 242.232 385.463 263.867C384.522 269.103 383.19 274.349 382.256 279.578L377.174 307.209C376.564 310.492 376.281 314.021 375.555 317.24C372.129 332.413 369.694 347.473 363.745 361.95C359.79 371.574 359.969 372.221 350.023 376.303C341.953 379.615 335.489 381.686 326.455 379.935C317.916 378.248 307.351 371.259 301.368 365.005C298.964 362.493 296.827 359.092 294.378 356.827L294.121 357.063C292.3 358.761 290.314 361.139 288.72 363.067C272.919 382.178 251.777 397.056 229.711 408.077C222.883 411.071 216 413.541 209.04 416.273C200.628 419.579 191.421 423.289 182.292 423.652C181.349 423.689 179.868 423.53 178.878 423.451C166.346 422.456 154.064 422.2 141.624 420.093C136.446 419.216 130.766 418.909 125.485 418.156C110.062 415.876 94.734 412.991 79.5373 409.507C75.127 408.466 70.4483 407.072 66.0354 405.904C56.6415 403.416 45.9872 400.691 36.9413 397.283C37.0855 388.883 40.0034 374.076 41.2773 365.374L48.4401 312.935L63.6382 206.505C64.8994 197.823 65.7292 188.83 67.0238 180.235L78.3091 105.157C80.1209 93.0381 82.3634 80.2366 83.8088 68.1667ZM184.763 336.489C185.795 337.625 186.082 338.216 187.315 339.184L187.565 339.096C186.973 337.816 186.232 337.16 185.272 336.13L184.763 336.489Z"/><path fill="#5D9ACD" transform="scale(0.407115 0.40568)" d="M141.764 83.4132C142.274 83.1519 143.157 82.8085 143.713 82.5739C144.98 84.4012 147.613 86.1151 149.197 88.4858L149.046 88.7074C148.59 88.3554 148.23 88.0655 147.987 87.5373C147.198 85.822 144.469 84.5185 143.52 83.3196C142.18 83.3885 142.403 85.1349 142.592 86.0995C143.559 86.7445 144.595 87.0834 145.726 87.832C146.071 87.6337 145.911 87.7733 146.168 87.3734C149.391 90.7182 145.299 98.6525 142.062 98.9532C145.024 96.3174 151.024 87.6057 142.714 89.0633C142.207 86.8911 142.015 85.6393 141.764 83.4132Z"/><path transform="scale(0.407115 0.40568)" d="M178.509 370.068C171.689 366.255 159.27 353.77 154.926 347.299C152.687 344.012 150.968 340.4 149.829 336.59C148.539 332.114 148.425 328.216 149.181 323.627C151.348 310.489 164.834 305.85 175.975 312.383C178.817 314.034 181.268 316.28 183.161 318.967C181.826 323.199 179.586 327.337 178.23 331.501C179.472 332.424 180.849 333.494 182.13 334.321L182.807 333.48L182.612 333.179C180.208 329.415 183.502 326.81 185.397 323.41C187.467 319.61 190.078 317.16 193.437 314.855C200.977 309.683 215.371 312.138 219.34 320.787C228.317 340.342 207.15 359.41 191.322 367.495C188.334 369.02 186.036 370.165 183.03 370.874C181.195 369.895 180.605 369.941 178.509 370.068ZM184.763 336.489C185.795 337.625 186.082 338.216 187.315 339.184L187.565 339.096C186.973 337.816 186.232 337.16 185.272 336.13L184.763 336.489Z"/><path fill="#37393B" fill-opacity="0.98823529" transform="scale(0.407115 0.40568)" d="M185.272 336.13C186.232 337.16 186.973 337.816 187.565 339.096L187.315 339.184C186.082 338.216 185.795 337.625 184.763 336.489L185.272 336.13Z"/><path fill="#708789" transform="scale(0.407115 0.40568)" d="M182.807 333.48C183.534 334.277 184.509 335.419 185.272 336.13L184.763 336.489C184.181 335.872 182.847 334.887 182.13 334.321L182.807 333.48Z"/><path fill="#E15E46" transform="scale(0.407115 0.40568)" d="M201.496 316.589C214.17 314.889 220.314 326.115 216.216 337.143C211.764 349.124 200.073 358.648 188.941 364.145L186.365 365.226C187.634 362.025 188.821 358.792 189.926 355.53C187.984 353.546 185.88 351.901 183.71 350.19C186.327 346.962 191.352 342.948 193.162 339.473C191.912 337.24 187.723 332.699 185.813 330.208C190.772 323.231 191.832 317.831 201.496 316.589Z"/><path fill="#FCFCFB" transform="scale(0.407115 0.40568)" d="M198.575 319.538C202.564 319.494 202.336 322.888 199.164 324.541C195.837 323.712 194.166 320.78 198.575 319.538Z"/><path fill="#E15E46" transform="scale(0.407115 0.40568)" d="M163.879 313.543C169.685 313.073 174.509 315.835 178.618 319.659C176.902 324.119 174.728 328.394 173.009 332.911C174.76 334.906 179.442 338.2 181.784 339.889C180.618 341.323 179.308 343.394 178.094 344.709C170.674 352.753 175.38 351.951 181.425 357.407L181.724 357.68L180.247 361.333C179.713 362.663 179.036 364.073 178.435 365.388C176.327 363.447 174.036 361.794 171.811 359.759C161.047 349.915 146.572 334.207 155.376 318.799C157.211 315.588 160.412 314.284 163.879 313.543Z"/><path fill="#FCFCFB" transform="scale(0.407115 0.40568)" d="M161.776 317.49C164.175 317.319 164.53 318.116 165.994 319.777C164.123 322.103 162.489 323.9 160.455 326.067C159.531 326.719 160.017 326.601 158.978 326.546C155.781 324.23 159.138 319.126 161.776 317.49Z"/><path fill="#FCFCFB" transform="scale(0.407115 0.40568)" d="M157.598 328.209C160.248 328.082 162.073 328.299 161.051 331.554C159.663 331.915 158.556 332.373 157.548 331.272C157.238 330.272 157.472 329.278 157.598 328.209Z"/><path transform="scale(0.407115 0.40568)" d="M213.306 251.856C222.766 251.581 229.513 256.08 234.474 263.974C237.076 268.112 238.93 276.141 231.313 274.869C230.287 274.697 230.199 270.693 229.658 269.821C227.938 264.898 225.108 261.697 220.49 259.336C214.135 256.801 205.038 258.531 201.182 264.496C200.267 265.713 199.539 267.351 198.658 268.549C196.837 271.022 193.083 269.909 192.994 266.715C192.842 263.98 194.426 261.797 196.24 259.873C201.317 254.489 206.037 252.204 213.306 251.856Z"/><path transform="scale(0.407115 0.40568)" d="M178.343 218.252C191.698 218.255 171.782 249.029 148.391 239.056C147.683 238.66 146.997 238.231 146.417 237.656C145.613 236.858 145.081 235.395 145.089 234.272C145.095 233.517 145.348 232.806 145.97 232.336C148.439 230.467 152.555 233.749 155.224 234.213C158.252 234.74 161.423 234.214 164.301 233.216C176.963 228.825 173.639 221.446 178.343 218.252Z"/><path transform="scale(0.407115 0.40568)" d="M261.333 231.03C261.843 230.978 263.125 230.853 263.588 230.909C267.171 231.558 266.205 237.703 267.189 240.571C268.313 244.567 270.823 247.401 274.008 249.874C278.474 253.341 282.314 252.517 287.462 252.602C288.152 252.613 289.599 253.07 289.949 253.781C290.988 255.891 290.372 257.407 288.486 258.601C286.789 259.148 285.348 259.314 283.58 259.361C277.641 259.548 271.885 257.288 267.658 253.11C263.343 248.922 259.32 242.395 259.534 236.242C259.611 234.025 259.795 232.594 261.333 231.03Z"/><path fill="#5D9ACD" transform="scale(0.407115 0.40568)" d="M294.308 363.376C300.667 370.137 306.215 376.878 315.038 380.694C323.475 384.342 331.147 385.215 340.206 384.088C345.027 383.489 348.838 381.768 353.309 379.995C348.247 388.639 344.772 392.134 337.035 398.335C319.933 412.041 298.382 417.074 277.176 420.376C271.843 421.207 266.021 421.563 260.51 422.283C256.231 422.389 250.975 424.099 246.608 424.099C231.45 424.1 215.595 425.423 200.536 424.874C207.423 420.833 213.804 420.248 220.803 417.064C248.341 404.534 275.503 387.639 294.308 363.376Z"/><path fill="#E15E46" transform="scale(0.407115 0.40568)" d="M123.459 36.5271C132.935 38.6069 132.874 38.1669 141.756 35.6791C142.273 39.1233 142.758 45.8763 142.827 49.3073C145.038 54.4325 138.801 62.8201 147.36 64.9007C144.64 70.5251 138.552 72.0577 132.847 72.4916C134.643 72.0443 136.172 70.543 135.391 68.5947C134.417 67.7029 134.744 67.9803 133.323 67.6333C126.998 65.9112 125.856 63.2358 125.54 56.99C125.318 55.8495 125.301 55.0064 125.241 53.8561C124.819 51.6816 124.864 47.2552 124.732 44.8465C124.542 41.3542 124.25 39.8851 123.459 36.5271Z"/><path fill="#FCFCFB" transform="scale(0.407115 0.40568)" d="M127.348 40.0391C128.671 39.8199 130.226 39.5362 131.492 40.0314C132.887 41.5637 134.018 54.3169 133.655 56.8809C133.244 59.7851 131.814 63.1882 128.847 59.3511C127.312 54.4736 127.426 45.4443 127.348 40.0391Z"/><path fill="#450803" transform="scale(0.407115 0.40568)" d="M142.827 49.3073C145.038 54.4325 138.801 62.8201 147.36 64.9007C144.64 70.5251 138.552 72.0577 132.847 72.4916C134.643 72.0443 136.172 70.543 135.391 68.5947C134.417 67.7029 134.744 67.9803 133.323 67.6333C134.956 67.4465 136.244 67.63 138.09 67.3014C140.355 66.7055 141.501 65.7612 142.79 63.823C142.655 59.0256 142.76 54.1101 142.827 49.3073Z"/><path fill="#DF7E61" transform="scale(0.407115 0.40568)" d="M125.241 53.8561C125.636 50.538 124.958 45.7797 126.6 42.0571C126.951 41.2604 127.082 40.8697 127.348 40.0391C127.426 45.4443 127.312 54.4736 128.847 59.3511C127.599 58.1466 127.368 54.7999 126.856 52.7574L126.472 52.7537C125.916 53.9201 126.291 55.4521 125.54 56.99C125.318 55.8495 125.301 55.0064 125.241 53.8561Z"/><path fill="#DF7E61" transform="scale(0.407115 0.40568)" d="M138.09 67.3014C136.758 67.2808 135.756 67.5296 134.986 66.3234C135.589 64.5365 139.666 63.2617 141.475 63.1202C142.326 63.0537 142.316 63.2766 142.79 63.823C141.501 65.7612 140.355 66.7055 138.09 67.3014Z"/><path fill="#E15E46" transform="scale(0.407115 0.40568)" d="M127.334 10.2912C139.375 9.23349 149.504 14.3777 142.723 28.2045C141.492 30.7147 138.764 31.7917 136.211 32.4312C133.356 32.9528 128.086 33.6982 125.454 32.3316C114.961 26.8838 116.809 14.2137 127.334 10.2912Z"/><path fill="#E15E46" transform="scale(0.407115 0.40568)" d="M147.487 51.0185C154.681 54.089 156.388 61.1202 153.277 67.9607C150.765 73.4841 147.763 75.955 142.245 78.2173C134.437 81.4189 126.869 80.0172 119.939 75.2071C118.645 74.1802 118.176 73.6774 117.063 72.4767C120.218 71.2031 122.315 69.5747 123.338 66.2329C124.918 68.6742 125.385 69.1361 127.716 70.8938C129.702 72.1492 130.386 72.4113 132.847 72.4916C138.552 72.0577 144.64 70.5251 147.36 64.9007C148.653 59.6177 147.36 56.0739 147.487 51.0185Z"/><path fill="#DF7E61" transform="scale(0.407115 0.40568)" d="M117.063 72.4767C112.165 65.657 115.274 58.2121 120.854 53.0843C121.076 57.6959 121.531 61.9615 123.338 66.2329C122.315 69.5747 120.218 71.2031 117.063 72.4767Z"/><path fill="#FCFCFB" transform="scale(0.407115 0.40568)" d="M133.857 83.8513C134.963 83.8566 136.069 84.0086 137.17 84.1295C137.974 86.746 139.277 94.3947 138.912 97.0892C137.908 97.1433 135.477 97.4049 135.077 96.3676C133.957 93.4634 133.475 86.8741 133.857 83.8513Z"/><path transform="scale(0.407115 0.40568)" d="M485.373 84.286C489.835 84.0401 492.504 84.4705 496.371 86.8649C501.49 90.0349 505.723 96.6437 505.428 102.745C505.129 108.951 500.831 116.446 494.35 117.719C492.033 118.219 489.177 117.783 486.992 118.408C485.081 118.954 482.666 120.757 480.97 121.823C478.972 123.078 476.657 124.56 474.941 126.166L474.694 126.399C474.726 131.847 474.705 135.396 471.202 139.86C468.127 143.824 463.57 146.363 458.582 146.893C450.017 147.81 446.935 144.293 440.881 139.433C437.505 140.394 434.167 142.495 431.143 144.297C427.442 146.385 423.601 148.478 419.45 149.504C418.137 149.828 413.775 150.224 413.185 148.623C411.492 144.16 417.398 140.181 420.658 138.202C425.104 135.503 429.315 132.228 433.744 129.54C433.066 124.061 431.181 119.35 432.625 113.351C433.679 108.971 436.835 105.168 440.672 102.899C444.616 100.552 449.389 100.047 453.737 101.515C456.086 102.318 458.105 103.38 460.571 103.98L460.911 104.061C463.388 102.493 471.625 97.7679 472.792 95.779C476.236 89.9076 477.165 85.8844 485.373 84.286ZM467.698 113.799C469.552 110.191 465.77 109.967 463.259 110.304L462.89 110.589C459.019 113.528 454.973 113.767 454.177 118.46C454.348 118.802 454.482 119.593 454.572 120.007C457.074 122.156 465.539 115.288 467.698 113.799ZM416.514 146.595C417.542 146.38 418.313 146.24 419.316 145.878C427.296 142.665 430.915 141.102 438.145 136.407C437.335 134.853 436.76 133.09 435.282 132.456C432.328 133.314 419.019 143.847 416.514 146.595Z"/><path fill="#E15E46" transform="scale(0.407115 0.40568)" d="M453.514 113.505C457.387 110.53 461.096 107.529 465.347 105.104C467.574 103.834 469.885 102.45 471.97 100.98C472.173 102.783 472.962 105.397 473.45 107.215C475.52 111.04 478.341 114.407 481.744 117.114C476.576 121.213 462.911 128.84 456.761 131.179C448.854 127.241 444.92 119.711 453.514 113.505ZM454.177 118.46C454.348 118.802 454.482 119.593 454.572 120.007C457.074 122.156 465.539 115.288 467.698 113.799C469.552 110.191 465.77 109.967 463.259 110.304L462.89 110.589C459.019 113.528 454.973 113.767 454.177 118.46Z"/><path fill="#DF7E61" transform="scale(0.407115 0.40568)" d="M453.514 113.505C457.387 110.53 461.096 107.529 465.347 105.104C467.574 103.834 469.885 102.45 471.97 100.98C472.173 102.783 472.962 105.397 473.45 107.215C473.323 108.186 473.484 108.201 472.957 108.807C471.741 110.781 469.841 112.859 467.698 113.799C469.552 110.191 465.77 109.967 463.259 110.304L462.89 110.589C459.019 113.528 454.973 113.767 454.177 118.46C453.791 116.68 453.71 115.618 454.202 113.825L453.514 113.505Z"/><path fill="#FCFCFB" transform="scale(0.407115 0.40568)" d="M463.259 110.304C463.604 108.528 468.655 105.892 470.371 106.298C471.232 106.501 472.394 108.131 472.957 108.807C471.741 110.781 469.841 112.859 467.698 113.799C469.552 110.191 465.77 109.967 463.259 110.304Z"/><defs><linearGradient id="gradient_0" gradientUnits="userSpaceOnUse" x1="480.19626" y1="108.73915" x2="497.177" y2="94.085968"><stop offset="0" stop-color="#CE3B1C"/><stop offset="1" stop-color="#E06848"/></linearGradient></defs><path fill="url(#gradient_0)" transform="scale(0.407115 0.40568)" d="M485.713 88.3087C488.54 88.1303 490.491 88.1434 492.959 89.6991C496.417 91.96 499.532 95.2617 500.617 99.3053C502.43 106.061 499.664 112.496 492.485 114.237C489.435 114.381 486.853 114.544 484.052 112.879C474.389 107.135 473.393 91.7389 485.713 88.3087Z"/><path fill="#E15E46" transform="scale(0.407115 0.40568)" d="M437.28 113.181C441.266 104.438 447.381 103.806 455.818 106.274C450.052 110.061 445.771 111.992 444.395 119.347C444.387 120.375 444.369 121.894 444.531 122.885C445.945 131.544 455.868 138.229 464.119 133.559C466.438 132.247 468.552 130.826 470.72 129.436C469.83 133.896 467.91 139.728 463.231 141.687C447.488 148.276 432.502 127.396 437.28 113.181Z"/><path fill="#DF7E61" transform="scale(0.407115 0.40568)" d="M437.28 113.181C441.266 104.438 447.381 103.806 455.818 106.274C450.052 110.061 445.771 111.992 444.395 119.347C444.114 120.597 444.321 120.593 443.571 121.376C440.497 121.548 438.112 115.53 437.28 113.181Z"/><path transform="scale(0.407115 0.40568)" d="M423.506 17.4503C428.097 19.8073 446.666 69.3361 445.817 75.2356C444.57 75.3591 443.73 75.0348 443.224 73.8412C442.316 71.6984 441.69 69.2907 441.013 67.0681C439.771 62.9261 438.48 58.7993 437.139 54.6887C433.964 45.1457 430.415 35.7313 426.5 26.4672C425.569 24.2421 424.116 21.1119 423.287 18.8155C423.162 18.4708 423.386 17.8156 423.506 17.4503Z"/><path transform="scale(0.407115 0.40568)" d="M440.599 184.56C440.985 184.708 441.199 184.842 441.494 185.147C443.502 187.22 444.272 211.022 444.213 215.643C444.153 220.352 443.768 225.156 443.362 229.848C442.309 230.072 442.144 230.011 441.568 229.232C441.448 227.898 441.468 226.712 441.462 225.378C441.407 214.118 441.903 202.778 440.45 191.58C440.198 189.632 439.946 187.459 440.017 185.509C440.017 185.509 440.548 184.643 440.599 184.56Z"/><path transform="scale(0.407115 0.40568)" d="M455.444 169.367C456.277 169.398 456.436 169.32 457.125 169.783C459.365 173.98 460.242 199.797 459.669 205.498C458.739 205.391 459.07 205.602 458.553 205.005C457.75 198.902 457.407 193.044 457.054 186.897C456.791 182.311 454.801 173.625 455.444 169.367Z"/><path transform="scale(0.407115 0.40568)" d="M415.276 45.5351C415.575 45.4308 415.811 45.2368 416.113 45.4088C419.256 47.2013 428.408 72.5204 429.077 76.5476C429.17 77.112 429.052 77.4362 428.802 77.9273L427.578 77.1649C426.165 73.992 425.43 70.4381 424.243 67.1716C422.484 62.3309 420.286 57.6131 418.239 52.8918C417.38 50.9114 415.524 47.5581 415.276 45.5351Z"/></svg>