<?xml version="1.0" encoding="utf-8" ?><svg xmlns="http://www.w3.org/2000/svg" xmlns:xlink="http://www.w3.org/1999/xlink" width="500" height="500" viewBox="0 0 500 500"><path d="M329.683 81.4913C329.36 79.8442 327.396 71.2879 326.723 70.0856C324.249 66.0433 320.764 64.9094 320.013 59.6279C318.702 50.4064 325.708 43.7833 334.35 42.5473C338.33 41.9863 342.368 43.032 345.575 45.4536C352.794 50.9573 349.918 55.6809 349.903 62.6446C349.895 66.2164 352.134 72.5698 352.68 76.6051C357.017 77.4324 360.31 78.3487 363.328 81.9531C366.963 86.2942 366.22 90.9242 365.637 96.0005C370.91 96.7782 394.756 92.8626 397.713 94.4635C399.181 97.3476 399.447 120.508 399.777 125.425C402.971 172.818 404.769 220.296 405.17 267.795C405.334 285.881 406.214 305.374 404.665 323.236C402.474 348.517 380.011 371.427 358.236 382.302C342.318 390.252 322.99 394.334 305.748 398.222C305.348 398.782 305.302 399.418 305.314 400.116C305.497 411.361 304.259 422.729 304.197 433.928C310.78 431.404 320.232 430.265 319.282 440.391C320.601 440.743 321.812 440.587 323.007 440.798C328.271 441.726 342.004 441.917 345.733 445.504L345.927 446.034C344.348 449.127 323.676 450.451 319.278 450.786C294.292 452.723 269.205 452.979 244.185 451.552C237.133 451.214 227.624 451.411 220.798 449.276C220.561 449.442 219.671 450.035 219.497 450.073C217.508 450.507 216.49 448.427 213.761 447.402C205.386 444.256 201.957 449.083 195.126 452.241C192.042 453.667 189.915 453.729 186.903 453.867C176.625 454.338 175.863 445.498 168.414 442.482C161.83 439.816 153.133 446.346 147.596 449.093C146.993 449.392 145.054 450.097 144.511 449.784C143.247 449.056 140.905 446.723 140.054 445.597C136.857 441.369 133.854 436.759 130.746 432.465C128.621 429.529 124.451 424.554 122.761 421.939C122.176 421.035 119.301 413.098 118.643 411.448C117.89 411.757 117.122 412.028 116.342 412.257C102.115 416.431 92.0655 398.459 99.5885 385.968C83.6827 382.085 77.2988 368.203 84.9982 353.705C86.6448 350.604 88.8034 348.179 91.0609 345.537C85.7465 334.96 81.3939 322.989 76.3487 312.191C75.5143 310.406 74.4526 305.998 75.6942 304.084C78.4823 299.787 87.6133 296.034 92.4472 298.749C96.1835 301.908 105.306 329.702 108.026 331.162C110.031 330.815 115.248 326.833 116.809 325.361C116.811 322.042 116.452 317.924 116.373 314.494C116.067 301.272 115.016 287.876 114.579 274.677L111.235 150.404C111.052 139.652 110.645 128.911 110.765 118.148C110.788 116.105 110.601 113.619 111.113 111.653C112.21 111.002 132.631 110.032 136.268 109.574C134.931 105.34 134.551 100.923 136.237 96.6162C137.411 93.6168 140.037 92.1697 141.636 89.5981C141.764 89.3919 139.201 79.4853 139.015 78.9616C138.796 78.3259 138.486 77.7252 138.096 77.1779C136.62 75.081 134.171 73.4312 132.944 70.9686C131.469 67.9948 131.685 64.0078 132.723 60.9301C135.615 52.3515 146.517 49.1525 154.488 52.1615C157.747 53.3663 160.374 55.847 161.764 59.0315C163.381 62.825 162.831 66.5582 161.397 70.2573C162.735 74.4995 163.507 80.0411 164.828 84.6942C176.461 86.8531 181.124 95.7517 176.02 106.494C181.195 106.691 186.711 105.842 191.88 105.496L223.435 103.556C230.138 103.204 236.825 103.192 243.463 102.877L301.012 99.5922C308.499 99.142 315.91 99.0382 323.487 98.5399C321.878 89.893 323.867 87.3249 329.683 81.4913ZM215.536 444.125C220.564 440.511 227.972 441.27 234.026 439.99L234.269 439.936C232.119 430.262 243.59 431.547 249.299 434.31C249.177 432.361 249.173 430.381 249.187 428.429C249.247 419.944 248.685 411.468 248.501 402.998C233.819 403.258 218.554 404.541 203.818 404.944L169.121 405.789C158.624 405.961 148.297 405.95 137.813 406.612C138.725 408.358 141.78 413.997 142.136 415.663C144.256 425.565 145.687 435.917 147.243 445.944C154.088 441.722 161.02 437.048 169.43 438.734C176.52 440.154 178.683 449.873 186.568 450.024C198.167 449.46 203.113 438.946 215.536 444.125ZM255.49 439.359C259.57 439.058 264.154 439.422 268.296 439.364C277.266 439.24 286.222 439.332 295.19 439.597C296.32 439.63 297.242 439.887 298.428 439.952C299.204 426.292 300.426 412.818 300.757 399.036C292.575 399.267 283.544 400.575 275.26 401.224C268.209 401.776 260.319 401.998 253.463 402.912C253.468 405.241 253.624 407.327 253.931 409.635C255.226 419.361 254.218 429.654 255.49 439.359ZM351.227 120.38C351.91 120.243 352.553 120.264 352.91 119.587C353.763 117.969 352.644 114.508 352.005 112.841C351.592 111.762 351.149 110.334 350.356 109.724L349.681 109.817C348.835 109.953 347.812 110.009 347.182 110.52C346.67 112.692 349.496 118.781 351.227 120.38ZM161.555 117.802L158.29 118.471C159.722 121.403 159.835 126.961 162.181 128.66C163.473 128.756 163.226 128.936 164.157 128.395C165.379 126.399 163.15 120.107 162.244 117.983C161.733 117.751 161.969 117.777 161.555 117.802ZM116.012 332.691C114.759 333.553 110.604 336.011 110.316 337.238C110.539 339.26 114.961 350.04 116.007 352.136C116.67 353.881 116.972 354.613 117.951 356.229C117.98 352.999 117.952 335.011 116.698 332.806C116.538 332.775 116.155 332.684 116.012 332.691ZM138.7 419.832C134.193 420.711 132.127 421.759 127.972 423.843C130.772 427.434 133.518 431.067 136.208 434.741C137.354 436.31 139.173 439.861 141.339 438.743C142.075 437.725 142.413 436.513 142.276 435.265C141.742 430.369 141.013 424.726 139.602 420.04C139.045 419.691 139.346 419.758 138.7 419.832ZM92.9982 351.392C86.6471 359.843 82.6969 369.689 93.1071 377.514C95.0413 378.968 97.7816 380.031 100.166 380.461C101.465 380.682 103.541 381.104 104.759 380.927L104.941 380.662C104.309 377.693 94.298 351.973 92.9982 351.392Z"/><path fill="#F2F1F2" d="M255.49 439.359C259.57 439.058 264.154 439.422 268.296 439.364C277.266 439.24 286.222 439.332 295.19 439.597C296.32 439.63 297.242 439.887 298.428 439.952C299.135 445.324 307.06 444.723 311.136 444.333C315.093 443.955 316.399 442.866 319.282 440.391C320.601 440.743 321.812 440.587 323.007 440.798C328.271 441.726 342.004 441.917 345.733 445.504L345.927 446.034C344.348 449.127 323.676 450.451 319.278 450.786C294.292 452.723 269.205 452.979 244.185 451.552C237.133 451.214 227.624 451.411 220.798 449.276C220.07 447.26 217.255 445.291 215.536 444.125C220.564 440.511 227.972 441.27 234.026 439.99L234.269 439.936C235.99 442.563 238.82 444.03 241.891 444.393C246.327 444.917 254.628 445.083 255.49 439.359Z"/><path fill="#70C8FB" d="M364.598 99.2972L395.011 96.6624C396.017 106.96 396.347 119.819 397.001 130.391C399.278 166.601 400.855 202.851 401.734 239.121C402.394 257.399 402.742 275.687 402.779 293.976C402.809 301.869 403.004 310.556 402.435 318.362C402.21 321.442 399.329 328.338 397.218 330.628C392.792 335.426 385.03 338.228 378.619 338.612C368.183 339.238 361.962 336.597 352.822 332.521C354.783 329.129 360.787 319.076 360.635 314.662C360.57 312.757 356.918 312.56 356.421 314.641C353.92 319.728 351.4 325.045 348.426 329.877C339.764 324.562 330.677 315.834 325.084 307.368C323.058 304.302 321.477 301.254 319.57 298.256C325.833 293.542 332.188 286.908 333.814 278.803C335.204 271.871 328.285 266.996 322.635 271.666C318.852 274.793 316.331 281.359 313.024 285.159C310.969 287.906 305.476 293.388 305.222 296.634C304.807 301.935 310.533 303.078 314.84 301.497C317.786 305.933 321.47 312.129 324.498 316.21C329.495 322.945 338.965 329.827 345.776 334.725C334.895 354.459 319.53 371.195 301.301 384.466C296.863 387.697 290.924 390.404 286.047 392.94C277.179 397.78 273.193 398.386 263.174 399.026C257.393 399.383 251.611 399.706 245.828 399.996C209.315 401.912 172.768 403.074 136.208 403.482C134.256 394.758 129.813 386.156 126.319 377.967C125.01 374.899 122.227 369.082 121.904 365.914C121.24 359.404 121.281 352.027 121.031 345.421L119.19 305.266C116.197 250.871 114.565 196.41 114.294 141.933C114.26 132.756 113.696 123.822 113.81 114.565C120.455 113.404 130.257 113.617 137.711 112.655C143.541 118.098 148.246 118.482 155.476 119.278C156.203 119.358 156.387 121.624 155.98 122.503C155.344 123.974 154.769 125.069 154.75 126.688C154.635 136.736 170.802 136.201 170.798 126.73C170.797 124.16 168.045 121.92 166.22 120.382C165.532 119.11 165.326 118.041 164.958 116.648C170.012 114.304 171.157 114.019 174.964 109.85L259.898 105.165L300.06 102.852C308.01 102.398 316.272 101.748 324.2 101.521C324.681 102.43 325.26 103.284 325.927 104.067C329.751 108.604 335.013 110.511 340.765 111.052C341.893 111.094 342.82 111.183 343.943 111.307L344.751 114.906C343.141 118.95 342.792 123.481 347.682 125.264C349.978 126.094 352.512 125.963 354.711 124.903C359.869 122.421 361.375 117.647 357.298 113.315C356.39 112.648 355.463 112.008 354.517 111.396L353.436 108.818C358.093 106.942 362.011 103.6 364.598 99.2972Z"/><path fill="#60A1D9" d="M340.765 111.052C341.893 111.094 342.82 111.183 343.943 111.307L344.751 114.906C343.141 118.95 342.792 123.481 347.682 125.264C349.978 126.094 352.512 125.963 354.711 124.903C359.869 122.421 361.375 117.647 357.298 113.315C357.812 112.715 358.222 112.485 359.001 112.662C362.629 113.445 364.519 118.196 363.821 121.591C361.601 132.4 343.636 134.571 337.803 125.788C336.282 123.51 335.739 120.717 336.297 118.036C336.823 115.564 338.618 112.816 340.834 111.555L340.765 111.052Z"/><path fill="#60A1D9" d="M166.22 120.382C170.389 119.221 174.805 123.379 175.369 127.174C176.377 133.952 169.936 138.029 164.031 138.93C154.605 140.368 145.371 134.082 152.146 124.172C152.743 123.299 153.747 122.534 154.757 122.147C155.29 122.266 155.474 122.305 155.98 122.503C155.344 123.974 154.769 125.069 154.75 126.688C154.635 136.736 170.802 136.201 170.798 126.73C170.797 124.16 168.045 121.92 166.22 120.382Z"/><path fill="#FB3C36" d="M304.373 259.846C321.755 258.121 323.478 278.179 305.35 280.701C296.254 281.062 286.552 274.381 293.462 264.468C295.889 260.986 300.355 260.199 304.373 259.846Z"/><path fill="#FBA983" d="M301.84 263.867L302.282 264.234C303.627 267.795 299.468 273.911 297.117 276.348C294.018 274.262 299.773 265.729 301.84 263.867Z"/><path fill="#FBA983" d="M309.433 264.147C310.493 264.286 310.41 264.3 310.914 265.116C311.228 267.723 308.271 272.417 306.75 274.438C306.363 274.482 306.186 274.432 305.792 274.392C303.785 272.273 307.73 265.898 309.433 264.147Z"/><path fill="#FB3C36" d="M197.833 262.542C206.184 261.694 217.134 267.858 212.442 277.965C211.025 281.017 206.566 282.349 203.402 283.071C199.636 283.703 195.769 283 192.467 281.083C187.506 278.137 185.44 272.725 188.855 267.71C191.195 264.273 194.015 263.342 197.833 262.542Z"/><path fill="#FBA983" d="M206.642 267.673C209.883 269.669 204.519 276.996 202.671 278.627L202.129 278.449C200.014 276.051 204.87 269.545 206.642 267.673Z"/><path fill="#FBA983" d="M198.127 267.096L198.843 267.322C200.772 269.838 195.753 276.528 193.946 278.464C190.182 277.968 197.186 268.476 198.127 267.096Z"/><path d="M301.089 237.222C304.829 238.715 303.918 243.248 303.555 246.501C302.375 257.073 286.949 265.227 280.13 254.517C278.481 251.928 277.781 249.858 277.07 246.724C276.873 245.277 274.985 236.854 280.683 238.682C282.496 239.264 282.396 244.975 283.038 246.995C284.056 250.199 284.595 252.236 288.088 253.904C298.023 253.509 297.627 246.895 298.796 239.281C298.957 238.232 300.242 237.625 301.089 237.222Z"/><path d="M220.348 239.257C221.638 239.208 224.186 238.896 224.446 240.715C225.56 246.702 222.744 258.056 216.074 260.235C207.644 262.99 200.309 257.65 197.813 249.946C197.545 248.672 197.385 247.379 197.335 246.078C197.273 244.107 197.167 240.83 199.902 241.049C203.264 242.673 202.798 249.42 205.571 252.443C206.553 253.791 208.588 255.654 210.385 255.696C218.92 255.894 219.014 246.719 219.282 240.575C219.315 239.808 219.812 239.618 220.348 239.257Z"/><path d="M262.077 256.5C263.068 256.538 264.797 256.497 265.263 257.623C267.338 262.432 263.378 270.278 258.931 272.636C252.263 276.171 244.403 273.014 240.891 266.753C240.398 265.641 240.053 264.469 239.864 263.268C238.842 256.631 244.947 256.959 245.559 261.102C246.737 269.312 254.699 270.976 259.204 264.311C260.703 262.095 260.14 258.497 262.077 256.5Z"/><path d="M289.112 201.352C296.891 201.012 304.287 204.593 307.557 211.889C308.285 213.513 308.394 215.967 306.348 216.593C304.793 216.339 303.942 215.548 302.992 214.349C298.988 208.701 293.769 206.809 286.95 207.319C285.127 207.455 283.681 208.051 282.108 207.14C278.757 202.564 286.319 201.592 289.112 201.352Z"/><path d="M210.196 203.6C217.309 202.85 221.757 208.38 213.907 209.203C206.635 209.966 202.508 210.219 198.03 216.687C197.418 217.68 195.262 221.037 193.611 219.615C190.978 217.347 194.154 212.646 195.818 210.576C199.522 205.967 204.446 204.127 210.196 203.6Z"/><path fill="#60A1D9" d="M399.426 332.719L399.62 332.964C397.961 339.658 388.666 353.954 383.984 359.233C379.276 364.542 364.63 375.584 358.338 378.689C337.426 389.01 309.879 395.33 286.726 397.306C288.031 396.596 289.325 395.865 290.607 395.113C296.914 391.185 303.159 387.735 309.154 383.202C326.448 370.122 338.246 354.653 350.087 336.807C363.185 344.986 389.099 346.347 399.426 332.719Z"/><path fill="#FB3C36" d="M87.8221 301.066C90.3683 300.89 91.1534 301.014 92.422 303.516C93.351 305.348 93.8234 307.387 94.4759 309.332C95.2691 311.694 96.1802 314.014 97.2057 316.285C101.914 326.641 106.781 336.662 110.996 347.31C112.817 351.911 114.122 356.539 115.854 360.966C119.992 371.544 124.322 382.127 128.825 392.556C132.165 400.293 135.293 408.692 138.94 416.234C135.627 416.844 129.177 419.26 126.134 420.998C125.347 420.635 121.452 410.327 121.378 409.11C121.036 403.483 121.978 403.079 117.853 398.568C119.55 395.812 121.002 393.267 120.863 389.856C120.769 387.194 119.567 384.692 117.549 382.954C114.724 380.504 112.049 380.296 108.579 380.58C108.036 378.759 106.894 376.354 106.236 374.454C103.751 366.883 100.16 359.887 97.1685 352.534C91.3123 338.135 84.9455 323.95 78.9534 309.619C78.4766 308.479 77.8797 306.091 78.6544 305.07C80.5738 302.539 84.8904 301.632 87.8221 301.066Z"/><path fill="#FB3C36" d="M158.125 73.6777L158.481 73.8175C158.535 73.9509 158.673 74.2732 158.722 74.47C160.63 82.1534 162.985 90.3008 163.988 98.1272C164.084 98.8743 163.382 100.57 163.027 101.19C161.829 103.25 159.819 104.71 157.49 105.213C154.847 105.801 152.986 104.899 150.846 103.524C146.273 99.137 143.211 84.788 142.39 78.4819L143.035 78.5063C149.843 78.7509 153.024 78.4213 158.125 73.6777Z"/><path fill="#F2F1F2" d="M148.306 80.4882C151.715 81.2896 151.607 84.7522 152.61 87.734C153.665 90.8719 154.516 94.2153 155.401 97.4024C155.691 98.4461 155.019 99.5776 154.454 100.407C153.951 100.337 152.542 100.18 152.288 99.711C149.995 95.478 147.61 87.5241 147.118 82.6833C147.014 81.6616 147.806 80.9418 148.306 80.4882Z"/><path fill="#FB3C36" d="M346.259 65.6847L346.503 65.8294C347.889 68.3682 350.834 83.0344 351.775 86.7315C352.11 88.8209 352.926 91.1432 351.427 92.9446C347.574 97.5737 343.607 98.1129 338.753 94.8838C334.033 90.4887 331.74 76.9238 330.331 70.432C331.259 70.5201 332.19 70.5877 333.121 70.6348C339.126 70.9482 341.922 69.6108 346.259 65.6847Z"/><path fill="#F2F1F2" d="M336.259 72.4701C336.82 72.5029 338.321 72.614 338.567 73.137C340.2 76.6174 344.809 89.4648 342.464 92.4249C339.296 92.5299 338.285 86.7549 337.538 84.1273C336.686 81.1264 334.052 74.9055 336.259 72.4701Z"/><path fill="#FB3C36" d="M353.61 79.8264C354.266 80.0113 354.916 80.2135 355.561 80.4328C358.122 81.328 361.53 83.8795 362.42 86.4454C369.146 105.836 334.365 116.182 326.646 98.3834C324.695 92.2881 326.666 88.9257 330.702 84.5877C332.271 89.7277 333.179 95.9336 337.926 98.8558C340.652 100.552 343.949 101.071 347.064 100.293C348.682 99.8962 350.037 99.2756 351.401 98.3197C358.443 93.3868 355.388 86.5723 353.61 79.8264Z"/><path fill="#FB3C36" d="M334.416 45.78C350.587 44.5703 351.423 64.5871 336.451 67.508C335.376 67.5412 334.299 67.6017 333.217 67.4958C323.09 66.5054 318.719 54.2234 327.859 48.3484C330.161 46.8688 331.729 46.4151 334.416 45.78Z"/><path fill="#FB3C36" d="M147.377 53.837C153.201 53.5559 157.801 56.0961 158.938 62.2111C159.444 65.0519 158.807 67.9775 157.165 70.3504C154.895 73.6316 151.522 74.8264 147.815 75.4929C131.587 76.4011 130.006 55.8043 147.377 53.837Z"/><path fill="#FB3C36" d="M165.605 88.1532C179.831 91.3319 176.099 108.652 165.237 113.167C159.662 115.484 151.764 116.488 145.98 114.314C141.977 112.809 140.129 110.296 138.479 106.55C136.648 100.938 138.594 96.7031 142.752 92.9648C144.521 99.3565 145.428 106.881 153.054 108.605C154.689 108.975 156.054 109.113 157.726 108.859C160.933 108.36 163.809 106.603 165.715 103.976C169.642 98.4538 166.365 93.7642 165.605 88.1532Z"/></svg>