<?xml version="1.0" encoding="utf-8" ?><svg xmlns="http://www.w3.org/2000/svg" xmlns:xlink="http://www.w3.org/1999/xlink" width="152" height="200" viewBox="0 0 152 200"><path transform="matrix(0.349425 0 0 0.348432 0.00012207 3.05176e-05)" d="M338.233 14.663C338.94 14.4769 340.294 14.512 341.065 14.4691C352.177 13.8521 364.44 24.427 361.249 36.1297C360.76 37.9246 359.471 41.1952 359.626 43.0871C359.854 45.8573 361.094 48.9364 361.663 51.6847C362.122 53.5697 362.904 57.1073 363.51 58.7398C364.291 60.8444 369.789 62.0684 371.935 63.3259C374.171 64.6361 375.211 65.095 377.19 67.0414C383.028 72.7838 382.067 80.2031 382.041 87.7469C390.869 87.9231 416.59 85.7488 422.998 88.4667C425.972 96.4491 425.593 129.786 425.793 140.577C427.081 191.434 426.961 242.317 425.434 293.168C425.049 305.121 424.209 316.884 423.665 328.725C423.04 343.451 422.167 358.165 421.045 372.862C418.923 399.249 416.762 413.746 403.048 436.93C378.676 478.133 332.198 490.811 288.984 502.469C285.618 503.377 272.412 504.921 270.184 506.187C269.45 507.492 269.556 551.281 270.431 552.462C271.302 552.628 273.751 551.748 274.711 551.463C280.355 549.744 287.192 549.43 288.772 556.625C290.569 564.57 280.055 566.859 274.273 566.687C270.94 566.69 262.641 565.557 262.474 560.875C262.139 551.503 262.716 541.301 262.771 531.852C262.797 527.42 263.233 523.222 263.159 518.83C263.094 514.997 263.26 511.334 262.83 507.552C250.864 508.57 238.547 510.658 226.496 511.755L189.798 515.052C186.944 515.306 180.305 515.344 178.055 516.043C177.382 516.253 177.104 516.599 176.95 517.271C176.197 520.538 177.006 526.529 177.178 530.113C177.431 535.365 178.49 560.489 176.77 563.698C175.904 565.313 173.529 566.461 171.798 566.912C166.585 568.271 159.873 567.779 155.141 565.096C152.508 563.603 151.337 561.841 150.557 558.947C153.181 549.744 157.709 549.782 165.895 552.373C166.896 552.69 168.396 553.606 169.391 553.463C170.009 551.542 169.583 521.391 169.59 516.837C166.613 516.68 163.631 516.628 160.65 516.681C119.687 518.058 78.6831 515.756 38.1318 509.803C33.4783 509.081 27.3483 508.768 23.231 506.757C20.4206 505.384 21.1027 495.727 21.1327 492.869C21.2021 488.008 21.2368 483.147 21.2368 478.287L21.0197 421.934L19.3441 271.282L19.2666 206.793C19.2502 174.146 18.2905 141.573 18.4897 108.921C18.508 105.922 18.2623 100.655 19.8549 98.1494C22.8001 96.3673 48.6714 96.7384 53.8742 96.452C54.0959 93.9599 53.9953 90.9359 54.053 88.3864C54.2192 81.0408 58.1364 77.2412 62.676 71.9899C62.4821 67.5661 60.9265 61.4092 59.7708 57.0197C58.0003 52.0842 52.0748 49.8431 50.2893 44.8341C46.8098 35.0676 53.3413 23.9476 62.6519 20.2725C75.9415 15.0269 94.595 23.5343 91.904 39.6848C91.6128 41.4325 90.0631 45.2437 90.2096 46.7178C90.7441 52.0973 92.1644 58.6775 94.1217 63.7128C95.0405 64.1979 97.4001 65.0285 98.5059 65.4811C103.161 67.3865 106.722 69.8191 109.659 73.9137C113.738 79.6003 112.654 88.313 111.367 94.8958C119.473 94.6077 128.469 94.0867 136.44 93.8974L200.085 93.0088L254.345 91.3825L295.382 90.3233C305.033 90.1166 313.459 90.2637 323.224 89.655C323.268 83.341 323.497 78.3702 327.455 73.0782C328.386 71.6918 332.036 68.2899 331.629 66.6011C330.455 61.7254 329.821 55.9717 328.59 51.2047C324.565 47.3676 320.132 44.0907 319.366 38.2397C317.722 25.6684 326.173 16.4492 338.233 14.663Z"/><path fill="#72C0F0" transform="matrix(0.349425 0 0 0.348432 0.00012207 3.05176e-05)" d="M379.601 92.7509C393.062 92.3017 406.233 92.2881 419.754 91.6289C420.591 115.309 421.207 138.996 421.603 162.687C422.249 212.04 421.537 261.402 419.468 310.716C418.502 336.47 417.772 363.01 414.808 388.598C413.513 396.134 411.197 412.299 406.207 417.947C402.391 422.267 388.737 428.976 383.37 430.442C367.733 434.717 349.924 429.009 337.354 419.43C333.475 416.474 330.53 412.871 326.324 410.248L326.048 410.533C322.649 414.084 317.829 422.405 314.766 426.846C311.012 432.513 306.668 437.74 302.257 442.911C280.789 468.079 254.674 486.685 225.034 501.061C210.015 508.345 203.692 510.326 186.813 510.644C177.287 510.823 166.742 511.986 157.023 512.279C124.714 513.199 92.3804 511.701 60.2943 507.797C48.2469 506.432 37.9252 505.519 26.0377 503.128C25.4278 489.883 25.8009 474.296 25.8205 460.881L25.7154 385.458L23.4153 101.948C31.512 101.31 49.2303 100.299 56.7283 101.491C59.5328 104.494 61.2875 107.532 65.0738 109.513C69.6777 111.921 75.1165 112.04 80.0538 113.337C81.8059 113.797 82.1826 114.247 82.6589 115.921C83.2687 118.024 84.572 121.686 84.0068 123.686C82.7681 124.334 82.3809 123.358 81.0661 124.014C78.5671 130.741 88.8328 134.105 94.0626 132.542C100.295 130.68 104.772 125.104 103.857 118.389C103.745 117.573 102.951 117.154 102.339 116.859C101.195 116.809 100.435 117.338 99.3838 117.867C97.9252 115.44 97.3419 114.083 96.7015 111.33C96.8798 110.79 97.238 110.02 97.6801 109.667C101.637 106.508 105.015 103.391 108.563 99.7704C117.975 99.1072 130.273 99.0503 139.854 98.8491L183.917 97.7947L324.5 94.2051C330.015 103.921 334.59 107.048 345.732 108.143C347.125 108.145 348.581 108.127 349.967 108.177C352.318 112.018 352.704 115.149 353.442 119.516C352.241 119.272 351.431 118.965 350.316 119.393C348.323 121 349.766 123.813 351.179 125.212C359.608 133.561 372.267 127.504 372.619 115.961C372.757 111.421 370.841 111.698 367.298 112.087L366.3 109.203C365.877 108.229 365.396 107.181 365.008 106.202L365.259 105.986C367.026 104.477 368.923 103.296 370.766 101.899C374.152 99.3088 377.13 96.2251 379.601 92.7509Z"/><path fill="#5E9ACE" transform="matrix(0.349425 0 0 0.348432 0.00012207 3.05176e-05)" d="M345.732 108.143C347.125 108.145 348.581 108.127 349.967 108.177C352.318 112.018 352.704 115.149 353.442 119.516C352.241 119.272 351.431 118.965 350.316 119.393C348.323 121 349.766 123.813 351.179 125.212C359.608 133.561 372.267 127.504 372.619 115.961C372.757 111.421 370.841 111.698 367.298 112.087L366.3 109.203C367.024 109.65 366.805 109.829 367.237 110.2C368.556 111.334 371.456 112.313 372.802 110.932L372.357 110.187C373.445 110.587 374.024 111.186 374.94 111.713C382.944 116.323 381.779 125.844 374.434 130.532C369.459 133.707 362.594 136.061 356.479 134.842C351.638 133.878 345.717 129.886 342.948 125.734C341.207 123.166 340.607 119.992 341.29 116.967C342.29 112.404 345.809 111.077 349.627 108.667C348.124 108.54 347.21 108.43 345.732 108.143Z"/><path fill="#5E9ACE" transform="matrix(0.349425 0 0 0.348432 0.00012207 3.05176e-05)" d="M96.7015 111.33L97.0747 111.527C99.5799 112.82 101.11 112.824 103.655 113.602C107.132 114.664 110.912 118.492 112.07 121.948C112.894 124.388 112.669 127.06 111.45 129.329C106.795 138.193 90.2264 142.271 81.3237 137.258C70.4975 131.162 73.12 121.635 82.6589 115.921C83.2687 118.024 84.572 121.686 84.0068 123.686C82.7681 124.334 82.3809 123.358 81.0661 124.014C78.5671 130.741 88.8328 134.105 94.0626 132.542C100.295 130.68 104.772 125.104 103.857 118.389C103.745 117.573 102.951 117.154 102.339 116.859C101.195 116.809 100.435 117.338 99.3838 117.867C97.9252 115.44 97.3419 114.083 96.7015 111.33Z"/><path transform="matrix(0.349425 0 0 0.348432 0.00012207 3.05176e-05)" d="M222.338 333.847C230.008 333.967 234.521 343.434 237.532 349.362C242.903 359.937 242.327 366.714 238.52 377.547C250.114 392.283 267.482 405.414 287.185 402.216C299.119 400.28 307.204 391.294 309.348 379.552C309.929 377.727 310.212 369.294 311.612 368.272C317.042 364.312 320.373 368.581 320.043 373.543C319.309 384.56 315.39 395.469 307.177 402.85C287.46 420.57 257.869 410.844 240.812 394.478C237.326 391.133 234.076 387.317 230.839 383.716C222.281 383.741 218.545 379.792 217.026 371.47C216.599 375.254 216.207 376.423 214.039 379.53C210.564 383.394 207.977 384.085 202.87 383.787C192.284 397.236 178.68 408.131 161.75 411.895C135.214 417.793 113.83 400.186 112.928 373.304C112.841 370.703 113.976 368.21 116.933 368.005C122.759 367.601 122.431 372.288 123.139 376.46C124.981 394.594 138.012 405.455 156.399 403.218C172.37 401.275 185.6 389.839 195.402 377.686C193.51 372.813 192.208 369.038 192.431 363.474C193.024 354.514 197.909 343.713 204.232 337.334C208.596 332.931 212.769 334.223 216.517 338.384C218.385 335.727 219.151 334.786 222.338 333.847Z"/><path transform="matrix(0.349425 0 0 0.348432 0.00012207 3.05176e-05)" d="M273.913 232.738C298.494 231.231 317.215 250.333 312.983 275.063C312.246 279.372 310.906 282.507 309.101 286.394C300.575 283.985 288.94 287.649 287.332 297.528C287.193 298.38 287.366 300.109 287.425 301.023C285.398 301.59 283.884 301.895 281.835 302.281C281.641 302.311 281.447 302.338 281.252 302.362C271.992 303.519 262.025 301.151 254.613 295.392C247.439 289.771 242.819 281.509 241.787 272.455C239.404 251.748 253.404 235.12 273.913 232.738Z"/><path fill="#FCFCFC" transform="matrix(0.349425 0 0 0.348432 0.00012207 3.05176e-05)" d="M264.144 243.381C271.183 242.152 277.875 246.895 279.047 253.943C280.22 260.992 275.424 267.645 268.367 268.762C261.388 269.866 254.824 265.136 253.665 258.166C252.505 251.196 257.183 244.596 264.144 243.381Z"/><path fill="#FCFCFC" transform="matrix(0.349425 0 0 0.348432 0.00012207 3.05176e-05)" d="M290.313 275.565C294.23 275.417 295.604 277.6 296.612 280.959C295.685 285.04 294.557 286.904 290.239 287.54C281.781 286.128 281.482 277.216 290.313 275.565Z"/><path transform="matrix(0.349425 0 0 0.348432 0.00012207 3.05176e-05)" d="M152.114 234.705L152.334 234.697C172.336 234.157 187.779 249.883 188.028 269.636C188.218 278.702 184.714 287.456 178.321 293.886C170.76 301.483 162.27 304.353 151.797 304.363C148.598 304.14 145.921 303.75 142.74 303.276C142.81 301.638 142.981 299.514 142.606 297.957C141.727 294.39 139.436 291.334 136.258 289.491C131.257 286.527 126.814 287.136 121.503 288.445C113.287 275.309 116.153 254.818 127.543 244.375C134.667 237.842 142.694 235.302 152.114 234.705Z"/><path fill="#FCFCFC" transform="matrix(0.349425 0 0 0.348432 0.00012207 3.05176e-05)" d="M139.318 245.351C146.367 244.38 152.881 249.269 153.917 256.308C154.953 263.347 150.123 269.906 143.093 271.006C135.972 272.12 129.309 267.213 128.26 260.083C127.211 252.953 132.178 246.335 139.318 245.351Z"/><path fill="#FCFCFC" transform="matrix(0.349425 0 0 0.348432 0.00012207 3.05176e-05)" d="M163.054 277.545C166.387 276.839 169.657 278.982 170.341 282.32C171.025 285.657 168.861 288.913 165.518 289.575C162.207 290.231 158.987 288.091 158.309 284.784C157.632 281.477 159.751 278.244 163.054 277.545Z"/><path fill="#DF6248" transform="matrix(0.349425 0 0 0.348432 0.00012207 3.05176e-05)" d="M290.07 306.711C292.703 306.818 295.672 307.557 298.252 307.609C305.563 307.757 312.056 306.209 315.222 314.725C318.256 322.888 312.401 329.281 304.875 331.936C298.477 333.758 290.966 333.481 285.309 329.699C279.182 325.603 276.68 318.274 281.18 311.978C283.183 309.176 286.708 307.236 290.07 306.711Z"/><path fill="#FCBA92" transform="matrix(0.349425 0 0 0.348432 0.00012207 3.05176e-05)" d="M307.117 310.145C310.335 312.2 303.141 325.139 299.726 325.836C299.038 325 298.339 324.116 298.468 322.974C298.983 318.406 303.765 312.84 307.117 310.145Z"/><path fill="#FCBA92" transform="matrix(0.349425 0 0 0.348432 0.00012207 3.05176e-05)" d="M293.189 311.653C294.218 311.825 294.566 311.942 295.55 312.301C297.963 315.016 290.982 323.96 288.935 326.495C287.981 326.849 288.47 326.782 287.406 326.626C286.998 326.248 286.598 325.97 286.646 325.284C286.862 322.236 291.53 313.726 293.189 311.653Z"/><path fill="#DF6248" transform="matrix(0.349425 0 0 0.348432 0.00012207 3.05176e-05)" d="M140.71 307.156C144.712 306.623 149.142 310.502 150.889 313.851C155.888 323.438 147.347 331.622 138.182 333.104C134.282 333.735 132.056 333.518 128.159 332.843C127.369 332.633 126.589 332.382 125.825 332.091C118.17 329.191 113.95 322.302 117.216 314.341C120.333 306.742 124.881 309.524 131.347 309.44C134.793 309.395 137.575 308.473 140.71 307.156Z"/><path fill="#FCBA92" transform="matrix(0.349425 0 0 0.348432 0.00012207 3.05176e-05)" d="M130.989 311.492C137.124 314.6 127.984 324.271 125.204 327.212C124.935 327.201 124.619 327.071 124.341 326.985C123.985 326.639 123.485 326.151 123.498 325.637C123.577 322.298 129.195 313.921 130.989 311.492Z"/><path fill="#FCBA92" transform="matrix(0.349425 0 0 0.348432 0.00012207 3.05176e-05)" d="M143.467 310.964L144.27 311.212C146.129 313.791 140.509 325.234 137.176 325.803C133.97 323.306 136.37 320.376 138.065 317.569C139.451 315.275 141.519 312.777 143.467 310.964Z"/><path transform="matrix(0.349425 0 0 0.348432 0.00012207 3.05176e-05)" d="M163.923 195.447C167.393 194.95 172.085 195.849 172.447 200.075C172.807 204.266 170.021 208.222 167.557 211.328C158.448 222.965 145.074 230.49 130.399 232.236C126.537 232.49 124.164 231.84 122.502 228.005C121.996 226.836 121.726 225.13 122.348 223.954C125.268 218.437 132.805 219.312 137.895 217.332C143.001 215.402 147.929 212.388 152.053 208.813C155.231 206.059 157.399 202.768 159.666 199.291C160.944 197.331 161.711 196.33 163.923 195.447Z"/><path transform="matrix(0.349425 0 0 0.348432 0.00012207 3.05176e-05)" d="M261.244 193.981C267.117 193.561 267.652 195.901 270.512 200.314C276.034 208.833 285.863 215.354 295.884 217.063C299.673 217.709 304.704 217.547 306.397 221.552C307.123 223.266 307.106 225.205 306.347 226.906C305.46 228.907 304.117 229.731 302.217 230.489C286.319 231.287 265.55 219.116 257.947 205.236C255.166 200.16 255.79 196.486 261.244 193.981Z"/><path transform="matrix(0.349425 0 0 0.348432 0.00012207 3.05176e-05)" d="M213.23 303.332C221.179 302.356 229.294 305.915 233.999 312.267C238.324 318.105 232.621 323.717 227.603 316.83C225.424 313.838 222.121 311.889 218.487 311.112C205.518 309.681 203.754 323.013 198.446 319.798C197.529 319.248 196.895 318.327 196.71 317.274C196.424 315.725 196.977 314.172 197.878 312.936C201.865 307.462 206.727 304.602 213.23 303.332Z"/><path fill="#FCFCFC" transform="matrix(0.349425 0 0 0.348432 0.00012207 3.05176e-05)" d="M303.931 290.983C308.454 290.572 313.034 292.073 309.719 297.653C307.892 300.729 303.615 301.993 300.256 302.644C295.926 303.042 291.259 301.899 294.459 296.319C296.288 293.13 300.48 291.74 303.931 290.983Z"/><path fill="#FCFCFC" transform="matrix(0.349425 0 0 0.348432 0.00012207 3.05176e-05)" d="M124.609 292.708C129.304 292.902 135.715 295.034 136.561 300.411C136.681 301.16 136.49 301.927 136.034 302.533C135.246 303.558 133.986 304.188 132.723 304.399C128.912 304.265 117.751 301.859 120.544 294.826C121.124 293.364 123.134 292.961 124.609 292.708Z"/><path fill="#5E9ACE" transform="matrix(0.349425 0 0 0.348432 0.00012207 3.05176e-05)" d="M327.81 417.485C340.672 430.583 356.336 437.969 374.719 437.06C384.893 436.557 393.281 432.931 401.863 427.771C400.364 430.983 398.695 434.112 396.862 437.146C376.366 470.73 332.586 486.287 296.147 495.082C273.476 501.487 248.552 504.833 225.17 507.657C228.39 505.831 232.346 503.072 235.614 501.642C244.868 497.595 251.816 492.81 260.134 487.198C279.235 474.311 296.234 459.15 310.695 441.164C316.894 433.455 322.031 425.428 327.81 417.485Z"/><path fill="#DF6248" transform="matrix(0.349425 0 0 0.348432 0.00012207 3.05176e-05)" d="M355.867 47.9673C357.524 50.5615 363.178 74.9695 363.115 79.3068C363.311 81.2341 362.979 82.8573 361.561 84.2589C358.869 86.9188 355.297 87.9784 351.586 88.2782C348.341 88.5403 346.544 88.0938 344.097 85.8125C339.77 80.1186 338.276 69.9015 336.111 63.1482C335.848 62.3273 333.537 53.9702 334.719 53.7741C336.951 53.4035 340.557 53.9421 342.949 53.7918C347.513 53.3354 352.08 50.2574 355.867 47.9673Z"/><path fill="#FCFCFC" transform="matrix(0.349425 0 0 0.348432 0.00012207 3.05176e-05)" d="M342.173 55.6902C344.284 55.6985 345.29 57.6419 346.083 59.3808C348.185 63.9861 351.646 74.9771 350.041 79.574C349.486 80.3192 348.436 80.5693 347.51 80.9213C343.406 81.0898 339.652 62.389 339.442 58.5816C339.385 57.5539 341.408 56.2094 342.173 55.6902Z"/><path fill="#DF6248" transform="matrix(0.349425 0 0 0.348432 0.00012207 3.05176e-05)" d="M85.8496 52.7238L86.2189 53.0216C89.5357 62.8298 92.2982 73.7921 93.2574 84.099C93.8486 90.4515 85.9193 93.5174 80.6675 93.2893C77.6336 93.1575 76.4889 92.359 74.4538 90.2982C70.7692 85.2332 68.826 74.8866 67.1859 68.653C66.2174 65.0192 65.13 61.418 63.9256 57.8554C73.6569 58.136 77.3133 58.1349 85.8496 52.7238Z"/><path fill="#FCFCFC" transform="matrix(0.349425 0 0 0.348432 0.00012207 3.05176e-05)" d="M72.2076 60.9371C73.2408 60.8828 74.5057 60.9538 75.5581 60.9838C77.5988 65.023 81.9376 80.5313 81.2805 85.1436C80.7528 85.8243 80.6847 85.6341 79.589 85.8879C79.3797 85.8784 79.1705 85.8673 78.9613 85.8545C77.9259 85.7901 77.6224 85.9143 76.914 85.1199C73.6211 81.4272 69.9104 66.1925 70.4114 61.5986C71.019 60.9428 71.085 61.1345 72.2076 60.9371Z"/><defs><linearGradient id="gradient_0" gradientUnits="userSpaceOnUse" x1="74.385818" y1="51.051334" x2="67.010704" y2="24.944193"><stop offset="0" stop-color="#DD3820"/><stop offset="1" stop-color="#E65D45"/></linearGradient></defs><path fill="url(#gradient_0)" transform="matrix(0.349425 0 0 0.348432 0.00012207 3.05176e-05)" d="M68.8254 24.2119C73.2947 23.7202 77.7071 23.9682 81.576 26.5376C84.2638 28.3076 86.1398 31.0712 86.7928 34.2225C87.488 37.7168 86.3378 42.7837 84.286 45.6661C81.1757 50.0355 77.598 51.1835 72.652 52.0914C68.1889 52.451 64.5558 52.5623 60.5913 49.9959C53.8131 45.6079 52.7131 37.1326 57.2354 30.6533C60.2181 26.3798 63.8636 25.1234 68.8254 24.2119Z"/><defs><linearGradient id="gradient_1" gradientUnits="userSpaceOnUse" x1="343.82959" y1="46.826019" x2="337.06952" y2="20.83086"><stop offset="0" stop-color="#DD351D"/><stop offset="1" stop-color="#E55D46"/></linearGradient></defs><path fill="url(#gradient_1)" transform="matrix(0.349425 0 0 0.348432 0.00012207 3.05176e-05)" d="M338.437 20.0121C342.986 19.6218 346.68 19.5853 350.714 22.059C358.955 27.1124 358.439 39.2108 350.69 44.477C347.804 46.4389 346.126 47.1016 342.691 47.8586C338.311 48.471 334.658 48.6847 330.681 46.3092C327.691 44.4832 325.55 41.5418 324.731 38.1346C322.226 28.1429 329.603 22.2166 338.437 20.0121Z"/><path fill="#DC472F" transform="matrix(0.349425 0 0 0.348432 0.00012207 3.05176e-05)" d="M365.975 65.4603C370.089 66.597 374.426 71.1648 376.333 74.8547C378.093 78.0746 378.169 82.443 376.888 85.861C371.539 100.127 354.062 106.867 340.097 101.49C334.299 99.2578 331.485 96.7597 328.85 91.2632C326.168 84.3386 329.808 78.9797 333.585 73.4985C335.969 79.511 336.233 87.5143 341.934 91.3989C349.707 96.6943 361.623 93.9764 366.867 86.3112C372.031 78.7638 367.356 73.3712 366.042 65.8572L365.975 65.4603Z"/><path fill="#DC472F" transform="matrix(0.349425 0 0 0.348432 0.00012207 3.05176e-05)" d="M95.8883 69.092C97.021 69.7415 100.429 71.3354 101.199 71.9717C107.91 77.5119 109.966 87.0615 105.468 94.5359C98.2029 106.612 80.9047 111.072 68.5549 104.982C70.9787 103.737 75.2903 100.788 75.592 97.8367C80.8332 99.4854 86.5171 98.9593 91.3665 96.3765C102.407 90.5872 100.03 81.5674 96.4421 72.0515C96.1065 71.1614 96.0386 70.036 95.8883 69.092Z"/><path fill="#DF6248" transform="matrix(0.349425 0 0 0.348432 0.00012207 3.05176e-05)" d="M68.5549 104.982C61.4426 101.449 58.4254 96.4701 59.2174 88.2999C59.6074 84.2764 61.7566 81.0704 63.897 77.7689C66.7924 86.3772 66.5583 93.1843 75.592 97.8367C75.2903 100.788 70.9787 103.737 68.5549 104.982Z"/><path fill="#FCFCFC" transform="matrix(0.349425 0 0 0.348432 0.00012207 3.05176e-05)" d="M88.5752 111.79C89.1385 111.809 89.6985 111.855 90.2609 111.894C93.2974 113.814 95.4274 122.862 94.9617 126.415C94.8522 127.25 94.2963 127.472 93.6868 127.88C92.9942 128.031 92.6908 128.182 92.0602 127.878C89.72 125.448 87.894 117.939 87.7037 114.496C87.6191 112.965 87.7198 112.742 88.5752 111.79Z"/><path fill="#FCFCFC" transform="matrix(0.349425 0 0 0.348432 0.00012207 3.05176e-05)" d="M357.89 107.402C358.425 107.341 359.646 107.145 359.927 107.693C361.973 111.683 363.23 116.641 363.776 121.085C363.99 122.828 363.579 123.179 362.296 123.947C361.765 123.831 360.731 123.6 360.412 123.178C358.345 120.438 356.436 111.377 356.328 108.183C356.759 107.49 356.804 107.689 357.89 107.402Z"/><path fill="#FCFCFC" transform="matrix(0.349425 0 0 0.348432 0.00012207 3.05176e-05)" d="M135.195 564.062C136.505 564.006 137.865 563.99 139.181 563.956C134.073 568.919 130.271 569.257 123.376 569.272C122.015 569.076 120.928 568.755 119.9 567.831C119.741 564.644 132.549 564.14 135.195 564.062Z"/><path fill="#FCFCFC" transform="matrix(0.349425 0 0 0.348432 0.00012207 3.05176e-05)" d="M305.916 563.677C308.917 563.259 320.242 564.553 320.535 568.073C313.532 569.709 311.025 567.98 305.916 563.677Z"/><path fill="#FCFCFC" fill-opacity="0.89019608" transform="matrix(0.349425 0 0 0.348432 0.00012207 3.05176e-05)" d="M234.23 560.113C239.013 559.924 248.632 559.719 252.993 560.806C250.579 561.068 249.08 561.028 246.681 560.975C240.317 561.139 234.89 561.417 228.587 560.593C230.431 560.328 232.366 560.237 234.23 560.113Z"/></svg>