<?xml version="1.0" encoding="utf-8" ?><svg xmlns="http://www.w3.org/2000/svg" xmlns:xlink="http://www.w3.org/1999/xlink" width="195" height="200" viewBox="0 0 195 200"><path transform="matrix(0.396341 0 0 0.394477 0 -1.52588e-05)" d="M322.312 52.1439C322.336 50.6848 320.053 39.4455 319.31 38.3689C314.322 31.1344 307.495 28.5729 311.571 17.1787C313.469 12.0272 317.363 7.85809 322.373 5.61382C326.613 3.66466 334.643 3.46475 338.836 5.29994C349.746 10.0755 351.339 19.1885 347.537 29.0563C348.437 32.9945 350.141 40.6792 351.361 44.2847C354.552 46.7155 359.242 47.152 363.14 51.0689C369.365 57.3225 367.773 62.4096 368.067 70.227C370.754 70.3526 373.585 70.2122 376.243 70.2593C383.594 70.3897 398.472 67.357 404.907 70.9957C407.439 75.4307 406.534 83.1337 406.847 88.2518C407.011 90.9325 407.443 94.9938 407.235 97.5479L406.755 95.6427C406.402 96.0081 406.395 108.06 406.653 109.16C407.263 107.028 406.743 103.039 407.235 102.128L407.396 102.128C407.62 116.394 407.746 130.662 407.775 144.931L407.695 226.411C407.68 228.232 407.606 230.125 407.642 231.938C407.943 247.137 405.96 263.064 406.832 278.193C410.611 275.816 414.963 273.277 418.407 270.521C428.271 262.729 436.437 253.003 442.404 241.939C444.489 238.126 446.368 234.341 447.333 230.06C447.401 229.757 447.466 229.453 447.526 229.148C441.646 224.728 441.56 221.718 438.578 215.457C436.826 211.778 431.871 208.479 431.358 203.942C430.871 200.997 433.503 199.221 436.135 199.092C440.321 198.887 442.32 202.718 444.991 204.931C445.55 198.641 446.212 184.248 449.879 179.523L452.756 178.398C453.981 178.81 455.197 179.232 456.437 179.597C459.138 184.044 457.471 191.154 457.374 196.611L457.503 196.388C459.909 192.147 462.452 182.647 467.19 181.285C468.663 180.862 469.924 181.271 471.307 181.709C471.809 182.458 472.497 183.42 472.92 184.189C472.666 190.353 471.409 192.011 469.308 197.788C468.819 199.131 468.138 202.099 467.794 203.571C471.524 199.207 473.372 193.662 477.93 191.027C479.73 190.981 481.244 190.747 482.677 192.035C483.533 192.806 483.99 194.043 483.924 195.176C483.602 200.626 478.569 205.919 476.032 210.896C472.872 217.098 471.92 222.503 466.911 227.266C462.582 231.382 459.903 230.675 455.145 232.604C454.553 232.844 451.719 240.509 450.966 242.036C447.753 248.557 443.505 256.467 438.702 262.087C432.306 269.571 424.212 276.422 415.828 281.561C412.811 283.409 407.806 285.383 405.516 286.993L405.439 287.382C404.741 290.971 404.918 297.609 404.746 301.626L403.409 328.114C402.907 339.025 400.843 354.102 397.197 364.337C389.885 384.856 376.102 403.871 357.946 416.078C334.379 431.52 304.916 439.552 277.685 445.945C274.118 446.785 270.398 446.831 266.915 448.029C266.617 449.807 266.694 459.472 266.728 461.807C266.862 470.843 266.336 480.893 267.067 489.822C274.109 486.625 285.735 486.138 284.242 497.312C291.556 497.406 299.349 498.294 306.449 500.008C311.933 501.332 314.451 501.051 312.215 507L130.839 507L130.788 506.625C130.585 505.193 130.426 503.819 131.313 502.569C134.097 498.644 153.254 498.627 158.682 497.503L159.058 497.424C158.879 489.611 162.867 486.998 170.126 488.317C172.51 488.75 174.105 490.27 175.965 490.578C176.456 489.7 176.225 461.469 176.253 457.673C173.989 457.781 171.453 457.788 169.181 457.746C154.111 457.469 138.775 458.24 123.728 457.791C101.532 457.063 79.4076 454.878 57.4979 451.25C53.5983 450.632 46.917 450.925 43.8023 448.562C41.0172 446.449 41.3102 436.35 41.3014 432.951L41.2941 412.643C41.2911 409.63 41.4255 403.672 41.0076 400.905L40.9534 400.563C34.9988 401.823 30.7189 404.065 24.4742 402.371C22.9979 401.045 22.1213 400.253 20.9908 398.63C20.979 396.54 21.0614 395.297 21.5907 393.289C24.9524 390.272 24.3613 389.666 23.4528 385.239C22.8273 382.191 23.9652 378.677 25.6965 376.13C19.8595 371.873 16.8093 370.469 11.761 364.616C7.15228 359.607 5.57734 353.415 6.14925 346.555C7.25785 333.256 19.4549 322.688 29.5198 315.135C32.5394 312.869 38.0428 311.169 40.6853 308.622C41.6692 303.937 40.5655 297.148 40.4897 292.382C40.3719 284.976 40.4254 277.494 40.4233 270.084L40.1319 133.998L40.02 102.348C39.9726 96.593 39.4726 84.7263 40.5933 79.5074C50.7444 77.3662 61.1565 78.6436 71.4698 78.1798C71.551 78.0719 71.6322 77.9641 71.7134 77.8562C71.2031 74.7063 71.1667 71.7031 71.6144 68.6638C72.4036 63.3052 77.4014 58.8097 79.2882 54.739C79.4948 54.2932 76.0994 41.2225 75.449 40.3817C73.2801 37.5774 68.3681 34.8817 67.9396 30.3161C67.2091 25.6191 67.3775 21.0794 70.089 16.8773C72.7348 12.7772 77.3294 9.32375 82.1455 8.37464C87.0129 7.56292 94.4444 7.84161 98.6577 10.8165C104.971 15.2743 107.517 19.7613 106.087 27.5744C105.88 28.9922 104.665 32.9018 104.82 34.0846C105.156 36.6426 106.586 44.8817 107.375 46.9066C108.034 48.5988 114.77 51.0258 116.99 52.5997C123.678 57.3421 125.572 62.4757 124.546 70.5468C124.445 71.6356 123.986 75.2742 124.163 76.2232C126.022 76.8306 140.173 76.2108 143.126 76.1357L174.423 75.3287L273.581 72.6051C287.094 72.2015 300.759 72.4197 314.439 72.0036C314.286 61.9654 315.773 59.4068 322.312 52.1439ZM259.562 496.03C259.13 491.012 260.031 486.919 260.131 481.99C260.271 471.231 260.304 460.471 260.229 449.711C256.795 449.73 253.521 450.16 250.117 450.465C234.959 451.825 220.351 454.799 205.067 455.277C202.264 455.365 184.731 456.819 183.233 457.548C182.361 460.124 183.521 475.597 183.623 479.422C183.72 484.9 183.737 490.38 183.673 495.859C187.745 496.559 192.387 495.944 196.567 495.934C203.23 495.917 210.029 495.523 216.663 495.478C226.942 495.359 237.223 495.358 247.502 495.474C251.334 495.538 256.147 496.1 259.562 496.03ZM21.1472 363.392C30.1429 370.912 30.8919 368.381 40.906 369.581C41.4549 364.64 41.6145 320.778 40.5314 318.103C40.3737 317.998 40.0019 317.734 39.8472 317.665C37.588 319.483 35.0074 320.627 32.7381 322.298C25.022 327.978 15.0587 336.589 13.7032 346.624C13.1022 351.023 14.2971 355.478 17.0183 358.985C18.2798 360.601 19.6815 361.966 21.1472 363.392Z"/><path fill="#F1EFF0" transform="matrix(0.396341 0 0 0.394477 0 -1.52588e-05)" d="M183.673 495.859C187.745 496.559 192.387 495.944 196.567 495.934C203.23 495.917 210.029 495.523 216.663 495.478C226.942 495.359 237.223 495.358 247.502 495.474C251.334 495.538 256.147 496.1 259.562 496.03C259.942 498.275 260.366 499.446 262.338 500.882C267.183 504.411 281.408 502.993 284.242 497.312C291.556 497.406 299.349 498.294 306.449 500.008C311.933 501.332 314.451 501.051 312.215 507L130.839 507L130.788 506.625C130.585 505.193 130.426 503.819 131.313 502.569C134.097 498.644 153.254 498.627 158.682 497.503L159.058 497.424C161.3 501.06 164.767 502.656 168.902 503.242C172.835 503.8 178.118 503.984 181.53 501.596C183.498 500.219 183.441 498.059 183.673 495.859Z"/><path fill="#74BEEC" transform="matrix(0.396341 0 0 0.394477 0 -1.52588e-05)" d="M365.898 74.7478C373.962 74.4857 382.073 74.5843 390.136 74.2954C393.826 74.1631 398.347 74.1608 401.975 73.6858C402.465 97.7798 403.431 121.891 403.651 146.009C404.027 185.491 403.41 224.977 401.8 264.428C401.381 282.566 400.585 300.694 399.414 318.799C398.463 332.604 397.681 345.534 393.96 358.957C391.31 368.515 389.764 369.074 381.502 373.819C374.015 378.12 368.158 380.88 359.166 380.724C348.179 380.889 336.31 376.216 327.543 369.672C323.886 366.943 321.429 363.905 317.364 361.239C315.168 364.277 312.983 367.351 310.957 370.495C291.839 400.171 264.32 423.881 232.892 439.781C225.428 443.558 216.109 448.711 207.796 450.707C202.649 451.43 191.825 451.915 186.339 452.25C149.135 454.888 111.762 453.851 74.7619 449.155C64.996 447.982 55.8515 447.393 46.2807 445.035C45.9776 439.393 46.187 434.145 46.2252 428.501L46.2235 406.105L45.8217 323.25C45.1491 266.137 44.7852 209.021 44.7299 151.904L44.2945 97.507C44.274 92.7819 43.9729 87.6859 44.0388 83.0603C49.692 82.8354 55.3464 82.6417 61.0018 82.4794C64.7671 82.3741 70.1136 82.1888 73.8507 82.6278C79.9195 89.154 81.3928 91.2216 90.781 92.4603C91.8552 92.602 95.7712 93.2052 96.7687 93.4357C97.7497 95.8444 98.8234 100.063 99.4705 102.692C98.3572 102.8 96.844 102.876 95.8166 103.213C96.0807 106.103 96.5891 108.694 99.8926 110.094C108.055 113.551 118.577 106.194 116.315 97.2436C116.19 96.7489 115.378 96.5043 114.924 96.3759C113.886 96.542 113.369 97.0354 112.505 97.6466C111.047 95.0181 111.051 94.3293 110.282 91.5304C110.873 89.455 113.799 87.6417 115.461 86.1746C117.396 84.4668 119.131 82.8359 120.969 81.024C133.67 80.9359 146.089 80.3961 158.77 80.0061L217.243 78.4179L271.118 77.1943C285.831 76.9189 300.759 76.8962 315.433 75.9642C318.195 78.9367 319.218 82.0854 322.725 84.5554C326.984 87.5544 330.936 88.3781 336.031 88.6844C336.952 88.7424 337.875 88.7798 338.797 88.7965C341.092 92.7319 341.276 94.4389 341.998 98.9475C341.001 98.8616 339.565 98.6376 338.656 98.9054C336.584 100.665 339.583 103.511 340.935 104.803C343.115 106.886 346.011 107.688 348.974 107.427C355.003 107.051 359.898 100.273 359.24 94.4473C359.123 93.4115 358.858 92.3288 358.025 91.6371C356.535 91.3947 355.675 92.9204 354.087 90.8496C353.533 90.1265 352.741 87.7235 352.443 86.7786C354.196 85.2359 356.212 84.0454 358.05 82.6106C360.981 80.3225 363.454 77.5346 365.898 74.7478Z"/><path fill="#5D99CB" transform="matrix(0.396341 0 0 0.394477 0 -1.52588e-05)" d="M110.282 91.5304C114.563 92.259 117.154 93.6507 120.273 96.7278C121.077 97.5216 123.216 99.1746 123.485 100.201C122.876 99.8952 121.847 98.8196 121.348 98.2794C119.018 95.7533 115.373 92.561 111.792 92.0763L111.413 92.3094C111.319 93.3615 111.227 93.552 111.652 94.4663C112.864 95.5157 115.894 94.6285 116.335 95.9875C117.038 98.1579 117.949 98.7718 117.332 101.019C115.167 108.901 107.906 113.127 100.011 110.788C96.6431 109.79 94.9298 106.651 95.8166 103.213C96.0807 106.103 96.5891 108.694 99.8926 110.094C108.055 113.551 118.577 106.194 116.315 97.2436C116.19 96.7489 115.378 96.5043 114.924 96.3759C113.886 96.542 113.369 97.0354 112.505 97.6466C111.047 95.0181 111.051 94.3293 110.282 91.5304Z"/><path transform="matrix(0.396341 0 0 0.394477 0 -1.52588e-05)" d="M263.881 226.821C266.621 226.38 270.014 226.66 272.696 227.343C278.215 228.727 282.758 232.815 285.538 237.695C287.172 240.563 289.81 246.63 285.903 248.834C285.244 249.206 283.101 249.521 282.453 249.094C280.265 247.654 279.67 244.541 278.497 242.35C276.714 238.704 274.6 236.293 270.689 234.951L270.358 234.84C261.331 232.976 256.555 238.267 253.768 246C252.158 250.466 247.379 250.711 246.07 246.221C245.268 243.47 248.156 237.969 249.787 235.755C253.877 230.182 257.286 227.944 263.881 226.821Z"/><path transform="matrix(0.396341 0 0 0.394477 0 -1.52588e-05)" d="M167.884 227.099C174.31 226.275 181.25 228.902 185.244 234.247C187.468 237.223 193.029 245.503 188.599 249.017C187.962 249.778 184.452 249.624 184.056 248.936C180.228 242.271 180.096 236.56 170.915 234.756C159.984 234.347 159.253 239.81 155.311 248.012C153.595 251.581 148.293 249.515 148.262 246.62C148.187 239.72 153.893 231.862 160.073 228.966C162.729 227.717 165.141 227.346 167.884 227.099Z"/><path transform="matrix(0.396341 0 0 0.394477 0 -1.52588e-05)" d="M238.558 265.013C242.481 264.639 243.597 267.698 241.632 270.497C238.557 274.876 231.1 278.097 225.986 279.318C215.819 281.745 206.297 278.371 197.896 273.156C195.838 271.474 193.559 267.233 196.503 265.64C199.035 264.271 204.209 268.654 206.275 269.913C207.835 270.87 209.5 271.644 211.238 272.22C216.956 274.077 225.088 273.377 230.301 270.282C232.993 268.683 235.354 266.601 238.216 265.181L238.558 265.013Z"/><path fill="#5D99CB" transform="matrix(0.396341 0 0 0.394477 0 -1.52588e-05)" d="M318.656 368.133C320.22 369.192 323.173 372.032 324.839 373.356C343.492 388.192 365.27 389.809 385.445 377.208C371.64 411.976 324.697 430.257 290.941 437.694C289.579 438.023 288.182 438.399 286.833 438.781C271.006 443.263 254.544 445.361 238.295 447.719C234.394 448.285 230.488 448.607 226.619 449.469C228.579 448.188 231.592 446.019 233.635 445.059C248.053 438.289 261.542 428.975 273.979 419.041C291.879 404.743 306.094 387.169 318.656 368.133Z"/><path fill="#D8664B" transform="matrix(0.396341 0 0 0.394477 0 -1.52588e-05)" d="M332.322 39.4936C337.526 38.7535 339.808 37.1063 344.279 34.2982C345.814 39.9894 352.56 61.3344 349.919 66.1438C348.681 68.3982 345.97 69.5964 343.575 70.1991C341.298 70.772 338.831 70.9322 336.496 70.7156C331.914 67.736 329.754 62.8646 329.054 57.5569C327.972 54.6097 326.041 46.1361 325.267 42.9061C325.038 41.7898 324.737 40.6312 324.469 39.5186L332.322 39.4936Z"/><path fill="#F1EFF0" transform="matrix(0.396341 0 0 0.394477 0 -1.52588e-05)" d="M331.475 41.1613C335.133 41.3415 336.53 47.8388 337.538 50.7685C338.359 53.1544 341.421 64.957 336.013 63.8127C332.868 63.1053 331.155 53.5622 330.358 50.4841C329.658 47.6964 329.151 46.0476 329.285 43.1906C330.159 42.0831 330.301 41.9406 331.475 41.1613Z"/><path fill="#D74F35" transform="matrix(0.396341 0 0 0.394477 0 -1.52588e-05)" d="M324.469 39.5186L332.322 39.4936C331.979 40.0763 331.681 40.5132 331.475 41.1613C330.301 41.9406 330.159 42.0831 329.285 43.1906C329.151 46.0476 329.658 47.6964 330.358 50.4841C329.148 52.253 328.819 55.4739 329.054 57.5569C327.972 54.6097 326.041 46.1361 325.267 42.9061C325.038 41.7898 324.737 40.6312 324.469 39.5186Z"/><path fill="#D8664B" transform="matrix(0.396341 0 0 0.394477 0 -1.52588e-05)" d="M324.469 39.5186L332.322 39.4936C331.979 40.0763 331.681 40.5132 331.475 41.1613C330.301 41.9406 330.159 42.0831 329.285 43.1906C329.251 42.4688 329.382 42.5355 329.079 42.0594C327.82 41.7865 326.895 42.919 325.267 42.9061C325.038 41.7898 324.737 40.6312 324.469 39.5186Z"/><path fill="#D8664B" transform="matrix(0.396341 0 0 0.394477 0 -1.52588e-05)" d="M100.348 38.7351L100.681 38.8439C101.519 40.2298 105.591 55.4489 105.901 57.8295C106.257 60.5589 108.107 68.7284 106.195 71.0671C104.131 73.5913 100.783 74.6191 97.6817 75.037C94.3422 75.4869 92.8614 74.5109 90.52 72.6491C86.7731 68.513 85.5631 59.0969 83.8982 53.6467C82.877 50.3035 81.8216 46.8441 80.7989 43.4969C90.8453 43.5216 91.4034 43.5456 100.348 38.7351Z"/><path fill="#F1EFF0" transform="matrix(0.396341 0 0 0.394477 0 -1.52588e-05)" d="M89.9913 45.8755C90.2423 45.9364 90.781 45.9964 90.929 46.2155C92.8007 48.9863 97.4425 65.968 95.5089 68.0217C94.3594 68.3374 94.0599 68.2346 92.8359 68.1143C89.2415 64.6584 87.971 58.6044 87.2088 53.844C86.9449 52.196 85.813 47.734 86.6324 46.3894C87.6525 45.8614 88.8084 45.9322 89.9913 45.8755Z"/><defs><linearGradient id="gradient_0" gradientUnits="userSpaceOnUse" x1="89.328239" y1="37.198891" x2="84.171761" y2="13.301109"><stop offset="0" stop-color="#D63720"/><stop offset="1" stop-color="#E46245"/></linearGradient></defs><path fill="url(#gradient_0)" transform="matrix(0.396341 0 0 0.394477 0 -1.52588e-05)" d="M87.3146 12.5915C93.0384 12.1162 100.612 15.4954 101.193 21.9122C102.19 32.9245 96.185 37.0999 86.31 38.2016C82.7067 38.3279 80.7223 38.4018 77.5023 36.2445C70.8908 31.8151 71.1154 23.6104 75.4972 17.7487C78.4801 13.7584 82.7202 13.1431 87.3146 12.5915Z"/><defs><linearGradient id="gradient_1" gradientUnits="userSpaceOnUse" x1="333.60559" y1="33.21944" x2="326.83646" y2="9.8302746"><stop offset="0" stop-color="#D6371D"/><stop offset="1" stop-color="#E45E45"/></linearGradient></defs><path fill="url(#gradient_1)" transform="matrix(0.396341 0 0 0.394477 0 -1.52588e-05)" d="M330.441 9.0973C337.4 9.23693 343.62 10.9461 344.614 19.0784C345.703 27.992 338.879 33.5218 330.649 34.2952C326.838 34.6318 323.276 34.5679 320.206 32.0025C317.712 29.9001 316.169 26.8833 315.923 23.631C315.166 14.3521 322.102 9.70106 330.441 9.0973Z"/><path fill="#D74F35" transform="matrix(0.396341 0 0 0.394477 0 -1.52588e-05)" d="M353.555 50.5519C357.09 51.8761 362.236 55.9384 363.253 59.5028C366.018 69.7538 357.671 79.0948 348.657 82.5724C338.497 86.4929 323.829 83.982 319.626 72.7044C318.137 67.3563 320.577 60.899 324.588 57.2297C324.919 59.0769 325.274 60.9197 325.653 62.7577C326.531 66.8725 328.393 71.8791 332.172 74.1254C339.46 78.4605 350.054 75.5734 354.427 68.3894C357.952 62.599 355.004 56.5046 353.555 50.5519Z"/><path fill="#D74F35" transform="matrix(0.396341 0 0 0.394477 0 -1.52588e-05)" d="M109.507 53.608C114.133 55.6439 117.479 57.3448 119.344 62.5091C123.202 73.197 115.112 83.1313 105.349 86.6475C98.3063 89.1836 86.5505 88.4563 80.8003 83.3062C82.4175 83.6825 82.8804 84.627 84.2731 84.6013L84.4199 84.0756L84.9773 83.8716C85.6885 84.0943 86.7203 84.5457 87.3202 84.1826C89.3316 82.9654 91.7429 81.6336 90.7186 79.1077C98.6196 81.7388 109.329 79.0288 112.439 70.3429C114.305 65.1304 110.35 59.0652 109.507 53.608Z"/><path fill="#D8664B" transform="matrix(0.396341 0 0 0.394477 0 -1.52588e-05)" d="M80.7363 61.2169C83.307 68.6003 82.9123 75.0517 90.7186 79.1077C91.7429 81.6336 89.3316 82.9654 87.3202 84.1826C86.7203 84.5457 85.6885 84.0943 84.9773 83.8716L84.4199 84.0756L84.2731 84.6013C82.8804 84.627 82.4175 83.6825 80.8003 83.3062C73.5204 77.6885 75.862 67.5586 80.7363 61.2169Z"/><path fill="#F1EFF0" transform="matrix(0.396341 0 0 0.394477 0 -1.52588e-05)" d="M104.05 91.8207L104.934 91.8774C106.73 92.9138 109.347 103.069 108.284 105.281C107.92 106.038 107.116 106.278 106.432 106.562C104.072 105.94 101.499 94.7464 102.02 92.4316C102.548 91.8943 103.256 91.927 104.05 91.8207Z"/><path fill="#F1EFF0" transform="matrix(0.396341 0 0 0.394477 0 -1.52588e-05)" d="M344.722 88.1045C345.875 87.9739 346.627 87.8051 347.763 88.0536C349.166 89.2731 351.935 100.767 350.945 102.576C349.762 102.679 348.177 102.946 347.651 101.671C346.493 98.8651 343.907 90.7926 344.722 88.1045Z"/><path transform="matrix(0.396341 0 0 0.394477 0 -1.52588e-05)" d="M407.396 102.128L407.235 102.128C406.743 103.039 407.263 107.028 406.653 109.16C406.395 108.06 406.402 96.0081 406.755 95.6427L407.235 97.5479C407.331 99.1116 407.369 100.562 407.396 102.128Z"/></svg>