<?xml version="1.0" encoding="utf-8" ?><svg xmlns="http://www.w3.org/2000/svg" xmlns:xlink="http://www.w3.org/1999/xlink" width="194" height="200" viewBox="0 0 194 200"><path transform="matrix(0.395112 0 0 0.393701 -3.05176e-05 0)" d="M347.836 8.85585C355.472 8.6416 362.033 11.7116 365.692 18.7806C368.581 24.3628 366.82 28.9037 364.913 34.4428C365.606 36.7514 366.261 39.0425 366.879 41.3726C367.662 44.3262 367.89 47.3329 369.302 50.0442C373.009 51.881 376.012 51.8521 379.765 55.2722C383.917 59.0548 385.692 63.1366 385.643 68.8153C385.625 70.806 385.186 73.131 385.297 75.0312C388.347 76.1686 408.166 74.6532 412.835 74.4816C415.448 74.3855 420.72 73.929 422.666 75.9545C424.926 78.307 424.678 105.957 424.776 110.552C425.023 122.201 425.519 133.853 425.699 145.5C426 169.504 426.009 193.511 425.725 217.516C425.519 238.183 424.263 259.58 424.529 280.152C434.599 274.504 441.067 269.517 447.858 260.024C453.468 252.18 457.112 245.89 460.429 236.804C458.477 233.838 455.948 231.868 454.564 228.492C451.887 221.966 454.237 219.364 458.663 214.857C459.425 214.081 460.383 211.77 461.459 210.644C462.275 209.793 463.267 209.132 464.366 208.705C467.552 207.472 471.49 207.802 474.571 209.23C477.803 210.739 480.299 213.475 481.506 216.832C483.564 222.385 482.147 229.648 478.027 233.909C475.296 236.734 472.361 237.698 468.796 239.011C467.502 240.973 464.686 248.653 463.057 251.722C455.401 266.146 444.9 277.871 430.544 285.863C428.32 287.101 425.94 287.957 423.605 288.981C421.999 313.832 422.018 342.181 414.529 366.186C411.687 375.296 405.395 385.49 399.932 393.299C381.362 419.847 349.182 431.858 319.22 440.345C315.67 441.353 309.605 442.138 306.526 443.732C304.143 450.922 302.487 462.79 305.061 469.882C309.747 482.455 326.583 475.962 335.658 472.278C346.038 468.065 345.236 485.111 346.001 491.386C346.592 496.235 345.798 498.248 340.966 499.63C340.254 499.411 338.881 499.019 338.321 498.589C333.308 494.735 334.272 486.066 333.407 480.34C326.517 481.828 322.928 483.766 315.52 483.572C298.384 483.124 295.8 468.289 297.274 454.246C297.446 452.602 299.581 446.625 298.636 445.67C293.437 446.116 284.88 448.33 278.968 449.187C259.892 452.131 240.705 454.311 221.454 455.723C212.481 456.345 203.484 457.038 194.498 457.447C188.791 457.707 172.981 457.122 168.97 458.528C166.863 459.267 165.204 460.897 163.574 462.364C156.281 468.924 149.513 477.402 145.236 486.266C143.731 489.386 142.363 492.658 141.144 495.898C140.259 498.247 139.501 500.773 138.344 503.001C137.743 504.158 136.733 505.352 135.435 505.72C131.143 506.934 120.559 500.646 116.703 498.309C115.523 497.363 114.186 496.36 113.599 494.92C112.784 492.916 113.995 489.919 116.194 489.382C122.861 487.751 128.386 491.314 134.119 494.009C138.132 483.373 148.629 464.691 158.273 458.556C153.182 458.553 148.143 457.889 142.976 457.738C117.916 457.004 92.5479 454.774 67.8484 450.407C64.5165 449.818 62.2952 449.576 62.0078 445.702C61.6603 441.018 61.8534 436.326 61.8806 431.619C61.8927 424.062 61.8667 416.506 61.8026 408.949L61.2572 324.855L61.2627 302.368C61.2664 299.742 61.2695 297.054 61.2697 294.472C61.284 293.644 61.229 289.663 60.5496 289.251C48.198 281.757 37.7121 273.891 29.503 261.367C27.2362 257.902 25.1564 254.317 23.2726 250.629C22.294 248.672 18.9601 240.61 18.6516 240.525C11.334 238.489 6.82121 233.883 5.60576 225.904C5.02046 222.062 5.54413 218.42 8.49208 214.517C12.6943 208.952 22.8405 206.329 27.3876 212.99C29.3349 216.133 28.3086 216.056 31.4652 218.961C38.04 225.011 31.6717 233.208 27.316 238.024C32.7854 254.491 45.1832 271.747 60.7936 279.846C61.4352 274.788 60.8801 268.87 61.024 263.722C61.3741 251.205 60.5824 238.688 60.4242 226.212C60.1132 201.686 60.2832 177.152 59.9949 152.618L59.408 109.674C59.373 105.554 58.8387 86.8528 60.1284 84.4081C61.7763 83.3403 63.7952 83.1991 65.713 83.1183C74.3043 82.7566 82.8712 82.7558 91.4635 82.6673C91.4087 82.1469 91.3653 81.6253 91.3331 81.103C90.6801 70.5037 92.7353 67.6955 99.442 60.1142C98.6074 55.4917 97.0754 50.3377 96.138 45.1801C93.2895 42.4905 90.1417 40.6523 88.4602 36.8732C84.6162 28.2344 89.5005 17.3656 98.0244 13.7762C107.574 9.82428 120.25 12.6119 124.567 22.8108C126.665 27.7671 125.457 32.5939 123.534 37.315C123.826 39.6645 126.697 51.4428 127.631 53.4906C143.194 58.1357 145.714 65.998 142.891 81.0739C146.285 81.5042 155.683 80.7233 159.844 80.6147L201.225 79.6082L332.804 76.4845C332.415 66.5912 334.653 63.8592 340.661 56.6326C340.275 54.2842 339.529 51.9443 339.041 49.6153C338.486 46.9706 337.993 44.3849 337.376 41.7485C336.737 41.212 336.101 40.6711 335.469 40.1261C331.235 36.4662 329.469 34.2068 328.984 28.4216C328.318 20.4743 332.768 14.4414 339.486 10.652C342.149 9.14985 344.828 9.00244 347.836 8.85585Z"/><path fill="#75C0F0" transform="matrix(0.395112 0 0 0.393701 -3.05176e-05 0)" d="M383.098 79.7132C395.323 79.244 407.444 79.0354 419.705 78.4609C420.133 101.363 420.981 124.182 421.221 147.106C421.655 187.192 421.233 227.283 419.954 267.351C419.564 281.495 418.928 295.632 418.045 309.754C417.547 318.294 417.1 326.844 416.175 335.351C415.388 342.592 412.836 363.948 408.087 369.035C406.282 370.969 403.92 372.447 401.701 373.861C394.159 378.665 386.443 382.115 377.359 382.271C365.754 382.469 353.798 377.827 344.871 370.471C341.846 367.978 338.944 364.626 335.463 362.812C332.439 365.985 330.038 371.047 327.538 374.76C306.404 406.15 275.979 429.729 241.613 445.071C237.413 446.946 232.833 449.246 228.389 450.509C223.993 451.47 216.445 451.747 211.751 452.02C204.297 452.485 196.84 452.909 189.382 453.291C168.13 454.143 146.849 453.937 125.617 452.675C111.728 451.86 98.3412 451.14 84.5899 448.803C78.9852 447.851 71.3765 447.223 66.0144 445.844L63.717 87.5343C73.5502 87.2808 83.9719 86.831 93.7578 86.7564C100.6 95.8632 105.511 96.7154 116.62 97.7385C116.787 98.6682 116.922 99.5617 117.187 100.469L118.848 107.177C117.754 107.111 116.709 106.924 115.813 107.51C114.417 109.76 116.593 112.822 118.607 113.962C128.037 119.301 138.677 110.351 135.376 100.137C133.91 100.619 132.766 100.966 131.507 101.864C131.289 100.591 130.865 99.2205 130.517 97.9655L129.579 94.9626C133.993 91.0443 135.905 90.7837 140.458 85.3694C144.341 85.6802 153.114 85.2431 157.249 85.154L193.515 84.2766L296.497 81.728C308.948 81.3933 321.402 81.153 333.856 81.0073C340.099 92.06 345.366 93.0186 357.56 94.1699C357.523 96.3846 359.345 100.274 359.565 102.608C359.74 104.48 358.023 102.742 356.482 104.478C356.123 105.722 356.46 106.341 357.027 107.481C359.402 112.231 366.128 113.188 370.538 110.894C375.004 108.572 378.02 102.196 376.053 97.3571C375.84 96.8351 375.512 96.8648 375.053 96.759C371.482 97.8792 371.471 96.7317 370.695 93.6095C370.437 92.84 370.123 92.2409 370.301 91.4778C371.578 90.0707 374.768 88.4313 376.416 87.1888C378.645 85.5083 381.55 82.0558 383.098 79.7132Z"/><path fill="#609DCE" transform="matrix(0.395112 0 0 0.393701 -3.05176e-05 0)" d="M370.695 93.6095C375.257 94.6519 379.407 94.8453 381.954 99.2233C389.147 111.589 370.279 119.811 360.223 116.721C351.89 114.161 343.102 103.786 353.347 97.0871C354.875 96.088 357.082 95.8907 357.56 94.1699C357.523 96.3846 359.345 100.274 359.565 102.608C359.74 104.48 358.023 102.742 356.482 104.478C356.123 105.722 356.46 106.341 357.027 107.481C359.402 112.231 366.128 113.188 370.538 110.894C375.004 108.572 378.02 102.196 376.053 97.3571C375.84 96.8351 375.512 96.8648 375.053 96.759C371.482 97.8792 371.471 96.7317 370.695 93.6095Z"/><path fill="#609DCE" transform="matrix(0.395112 0 0 0.393701 -3.05176e-05 0)" d="M130.517 97.9655C132.593 99.063 135.9 97.5042 138.331 99.4078C148.37 107.266 143.274 115.379 133.681 119.727C124.287 123.984 108.599 121.133 109.244 108.231C110.556 105.933 114.293 100.541 117.187 100.469L118.848 107.177C117.754 107.111 116.709 106.924 115.813 107.51C114.417 109.76 116.593 112.822 118.607 113.962C128.037 119.301 138.677 110.351 135.376 100.137C133.91 100.619 132.766 100.966 131.507 101.864C131.289 100.591 130.865 99.2205 130.517 97.9655Z"/><path transform="matrix(0.395112 0 0 0.393701 -3.05176e-05 0)" d="M255.402 257.859C270.237 257.271 270.188 268.934 265.06 279.293C261.135 287.243 254.188 293.289 245.772 296.08C236.605 299.161 227.591 298.25 219.021 293.986C213.378 290.864 209.431 287.605 206.135 281.977C201.844 275.164 199.111 261.865 210.482 260.363C218.065 259.362 226.788 259.958 234.533 259.64C241.586 259.35 248.426 258.19 255.402 257.859Z"/><path fill="#ED8E76" transform="matrix(0.395112 0 0 0.393701 -3.05176e-05 0)" d="M237.345 277.846C244.466 276.777 251.055 278.737 256.971 282.637C251.035 289.432 246.531 291.353 237.518 292.475C230.125 292.76 223.177 291.875 217.244 287.183C223.263 281.012 228.948 278.852 237.345 277.846Z"/><path fill="#FDFDFD" transform="matrix(0.395112 0 0 0.393701 -3.05176e-05 0)" d="M254.682 262.859C256.636 262.708 261.164 262.403 262.485 263.748L262.423 264.404C261.102 266.13 256.647 267.59 254.576 268.313C242.8 272.426 231.22 273.049 218.966 271.021C214.634 269.724 211.936 269.227 208.951 265.513C216.967 264.239 229.075 264.956 237.488 264.405C243.273 264.025 249.001 263.118 254.682 262.859Z"/><path fill="#7B150E" transform="matrix(0.395112 0 0 0.393701 -3.05176e-05 0)" d="M207.076 270.954C208.236 271.356 210.194 272.39 211.719 272.948C216.155 274.572 219.905 275.39 224.503 276.21C222.42 277.064 221.311 277.58 219.357 278.688C216.897 280.262 215.024 281.499 213.255 283.832C210.662 280.527 207.026 275.405 207.076 270.954Z"/><path fill="#7B150E" transform="matrix(0.395112 0 0 0.393701 -3.05176e-05 0)" d="M253.465 273.381C257.526 271.756 259.556 271.532 263.257 270.315C262.59 273.695 261.96 275.869 260.187 278.882C258.755 277.838 257.82 277.321 256.259 276.463C253.671 276.151 252.938 275.58 250.785 274.219L253.465 273.381Z"/><path fill="#3E100B" transform="matrix(0.395112 0 0 0.393701 -3.05176e-05 0)" d="M250.785 274.219L253.465 273.381C254.388 274.487 255.343 275.389 256.259 276.463C253.671 276.151 252.938 275.58 250.785 274.219Z"/><path transform="matrix(0.395112 0 0 0.393701 -3.05176e-05 0)" d="M278.823 209.569C296.502 208.296 302.197 228.593 305.356 242.386C306.4 246.944 304.286 250.286 298.91 248.377C297.201 247.408 296.752 243.916 296.362 242.313C294.409 234.287 291.421 222.774 283.623 218.565L283.31 218.397L282.963 218.316C273.173 215.958 269.14 231.841 268.103 238.747C267.443 241.636 267.56 246.518 266.263 249.056C264.73 252.056 258.501 251.257 258.414 247.006C258.27 239.88 260.24 231.016 262.92 224.456C263.915 221.991 265.2 219.653 266.748 217.493C270.091 212.82 273.171 210.51 278.823 209.569Z"/><path transform="matrix(0.395112 0 0 0.393701 -3.05176e-05 0)" d="M184.523 213.064C199.735 211.568 206.236 227.136 209.155 239.465C209.78 242.106 211.436 247.935 210.331 250.415C209.867 251.456 209.001 252.263 207.931 252.654C201.911 254.871 201.751 246.549 201.099 242.913C200.695 240.66 200.132 238.439 199.416 236.265C197.586 230.764 194.925 224.805 189.54 222.095C187.548 221.473 185.393 221.642 183.521 222.565C175.21 226.578 172.956 242.467 171.075 250.428C170.01 254.937 163.546 253.136 163.357 250.007C162.824 241.199 166.602 230.171 171.132 222.694C174.336 217.407 178.709 214.291 184.523 213.064Z"/><path fill="#DC6249" transform="matrix(0.395112 0 0 0.393701 -3.05176e-05 0)" d="M295.126 258.31C317.582 256.218 322.756 278.019 301.975 282.844C281.761 286.119 272.543 262.12 295.126 258.31Z"/><path fill="#FBB38D" transform="matrix(0.395112 0 0 0.393701 -3.05176e-05 0)" d="M305.934 262.665C306.681 262.733 306.63 262.715 307.232 263.164C308.266 265.638 303.205 274.767 301.276 276.529C297.044 274.179 299.92 270.763 301.813 267.748C302.923 265.98 304.444 264.115 305.934 262.665Z"/><path fill="#FBB38D" transform="matrix(0.395112 0 0 0.393701 -3.05176e-05 0)" d="M295.091 263.662C300.852 264.564 291.816 275.602 290.353 277.375C285.519 276.928 292.805 265.256 295.091 263.662Z"/><path fill="#DC6249" transform="matrix(0.395112 0 0 0.393701 -3.05176e-05 0)" d="M173.824 262.34C178.127 262.329 182.013 263.019 185.516 265.689C188.212 267.724 189.951 270.779 190.325 274.136C191.316 282.773 182.572 286.87 175.392 287.576C170.693 287.633 166.959 286.347 163.148 283.602C158.136 279.992 156.478 273.202 160.465 268.167C163.673 264.117 168.927 262.841 173.824 262.34Z"/><path fill="#FBB38D" transform="matrix(0.395112 0 0 0.393701 -3.05176e-05 0)" d="M171.452 267.787C172.274 267.918 172.245 267.902 172.988 268.271C175.254 271.048 168.711 279.427 166.488 281.258C165.38 281.276 165.212 281.385 164.518 280.798C164.138 278.694 169.817 269.226 171.452 267.787Z"/><path fill="#FBB38D" transform="matrix(0.395112 0 0 0.393701 -3.05176e-05 0)" d="M182.799 267.738C183.328 267.714 183.118 267.696 183.636 267.937C184.725 270.944 180.05 279.318 176.903 280.718C175.783 279.797 175.507 278.928 175.959 277.496C177.166 273.673 179.277 269.844 182.799 267.738Z"/><path fill="#609DCE" transform="matrix(0.395112 0 0 0.393701 -3.05176e-05 0)" d="M336.633 369.628C337.364 369.987 338.674 371.208 339.304 371.799C351.998 383.701 370.703 390.147 387.875 385.641C393.368 384.199 398.606 381.328 403.659 378.38C402.436 380.826 401.125 383.227 399.729 385.578C382.378 414.814 347.625 428.255 316.35 436.353C313.835 437.004 311.328 437.674 308.811 438.319C304.278 439.686 298.598 440.879 293.908 441.888C282.982 444.2 271.983 446.157 260.93 447.755C255.064 448.583 249.407 448.831 243.538 449.933C246.12 448.784 248.722 447.318 251.217 445.967C257.76 442.424 264.352 438.949 270.789 435.216C275.034 432.754 278.904 429.847 282.86 426.962C297.194 416.722 310.133 404.659 321.352 391.077C327.336 383.721 331.28 376.655 336.633 369.628Z"/><path fill="#DC6249" transform="matrix(0.395112 0 0 0.393701 -3.05176e-05 0)" d="M119.82 42.7668L120.002 42.8637C121.167 44.8842 124.385 58.1163 125.036 61.0889C125.497 64.446 128.149 72.3301 125.948 75.0718C122.248 79.6802 115.292 81.194 110.295 77.6622C105.89 73.1628 102.986 55.006 100.78 47.5149C108.779 47.3794 112.914 47.4858 119.82 42.7668Z"/><path fill="#FDFDFD" transform="matrix(0.395112 0 0 0.393701 -3.05176e-05 0)" d="M106.815 50.266C108.125 50.2054 109.535 49.9872 110.619 50.6841C112.797 53.7684 115.746 66.211 115.691 70.198C115.672 71.6119 115.67 71.9181 114.739 72.8692C112.994 73.0493 112.071 72.6911 111.173 71.0923C109.051 67.3121 104.471 53.7908 106.815 50.266Z"/><path fill="#DC6249" transform="matrix(0.395112 0 0 0.393701 -3.05176e-05 0)" d="M361.528 38.9754L361.862 39.1127C364.49 46.7077 366.335 55.3366 367.891 63.2362C368.34 65.5189 368.821 70.1501 367.129 71.9689C363.604 75.7582 356.037 77.1616 351.808 73.7793C347.458 69.2348 344.302 51.3766 342.131 44.3955C351.672 44.0943 353.095 44.9734 361.528 38.9754Z"/><path fill="#FDFDFD" transform="matrix(0.395112 0 0 0.393701 -3.05176e-05 0)" d="M348.791 46.5751C350.759 46.4001 351.693 46.2406 352.702 48.2395C354.492 51.7822 355.422 55.8448 356.227 59.7165C356.741 62.1848 357.358 65.1129 356.852 67.6007C356.706 68.3334 356.093 68.5025 355.548 68.7679C353.102 68.8691 352.287 67.9625 351.504 65.4742C349.744 59.8847 346.971 52.9039 347.775 47.0627C347.821 46.7238 348.482 46.6636 348.791 46.5751Z"/><defs><linearGradient id="gradient_0" gradientUnits="userSpaceOnUse" x1="108.46023" y1="41.668907" x2="104.15044" y2="17.209192"><stop offset="0" stop-color="#E14023"/><stop offset="1" stop-color="#E76853"/></linearGradient></defs><path fill="url(#gradient_0)" transform="matrix(0.395112 0 0 0.393701 -3.05176e-05 0)" d="M105.132 16.8381C108.88 16.6014 113.051 17.2228 116.226 19.3473C118.682 20.9643 120.365 23.5212 120.879 26.4173C122.475 35.351 115.59 41.1472 107.438 42.4249C103.436 42.8902 99.9401 42.6009 96.5762 40.0062C93.9243 37.9651 92.2043 34.9434 91.8034 31.621C90.8812 23.4066 97.4238 17.6874 105.132 16.8381Z"/><defs><linearGradient id="gradient_1" gradientUnits="userSpaceOnUse" x1="351.47589" y1="37.930363" x2="344.20901" y2="14.358492"><stop offset="0" stop-color="#DA3E25"/><stop offset="1" stop-color="#E76A52"/></linearGradient></defs><path fill="url(#gradient_1)" transform="matrix(0.395112 0 0 0.393701 -3.05176e-05 0)" d="M347.166 13.5886C364.359 11.0248 369.696 35.338 349.519 38.9421C345.301 39.4647 341.796 39.6246 338.127 36.8983C332.683 32.8531 331.928 24.3683 336.075 19.1481C339.015 15.4474 342.624 14.1808 347.166 13.5886Z"/><path fill="#DC6249" transform="matrix(0.395112 0 0 0.393701 -3.05176e-05 0)" d="M370.926 55.0331C379.575 57.7479 383.534 66.0714 380.192 74.8236C373.883 91.3492 344.805 95.467 337.564 77.8217C335.794 70.9287 338.279 67.3253 342.062 61.8806C343.118 67.1278 345.051 75.7013 349.807 78.843C356.637 83.3536 367.488 80.1961 371.889 73.5174C376.079 67.1583 372.282 61.5967 370.965 55.2341L370.926 55.0331Z"/><path fill="#DC6249" transform="matrix(0.395112 0 0 0.393701 -3.05176e-05 0)" d="M128.601 58.1465C133.296 60.0781 136.577 61.801 138.721 66.7503C140.462 70.7663 139.951 75.1568 138.372 79.1459C133.353 91.8307 113.116 97.3191 102.239 89.0245C103.181 88.7823 104.18 88.7828 105.131 88.6025C108.163 88.0276 109.459 86.1959 111.081 83.8161C113.359 84.442 115.027 84.8423 117.342 84.6075C123.294 84.0039 130.288 80.1841 131.908 74.0292C133.066 69.6265 130.063 62.3327 128.601 58.1465Z"/><path fill="#ED8E76" transform="matrix(0.395112 0 0 0.393701 -3.05176e-05 0)" d="M100.231 65.3338C102.959 72.8628 102.656 80.1006 111.081 83.8161C109.459 86.1959 108.163 88.0276 105.131 88.6025C104.18 88.7828 103.181 88.7823 102.239 89.0245C92.8482 82.6978 95.0468 73.4809 100.231 65.3338Z"/><path fill="#FDFDFD" transform="matrix(0.395112 0 0 0.393701 -3.05176e-05 0)" d="M363.321 93.0808C363.952 92.9805 365.429 92.6549 365.753 93.3916C367.402 97.1377 368.833 101.7 369.028 105.8C369.061 106.5 368.394 106.762 367.914 107.063C367.143 107.295 366.702 107.507 365.909 107.372C364.841 105.641 361.924 96.1112 362.346 93.6672C362.414 93.277 362.803 93.2778 363.321 93.0808Z"/><path fill="#FDFDFD" transform="matrix(0.395112 0 0 0.393701 -3.05176e-05 0)" d="M123.565 96.5915C124.07 96.4989 124.345 96.5061 124.866 96.4801C126.124 97.6981 128.348 106.807 127.996 109.108C127.848 110.078 127.205 110.287 126.489 110.731C126.037 110.645 125.26 110.522 125.03 110.205C123.434 108.002 121.434 99.5085 121.535 97.1409C122.117 96.6245 122.629 96.7284 123.565 96.5915Z"/></svg>